Playfair Display-Bold Italic.ufo
<glyph name="numbersign" format="1">
  <advance width="616"/>
  <unicode hex="0023"/>
  <outline>
    <contour>
      <point x="121" y="454" type="line"/>
      <point x="113" y="434" type="line"/>
      <point x="614" y="434" type="line"/>
      <point x="622" y="454" type="line"/>
    </contour>
    <contour>
      <point x="35" y="267" type="line"/>
      <point x="26" y="247" type="line"/>
      <point x="526" y="247" type="line"/>
      <point x="536" y="267" type="line"/>
    </contour>
    <contour>
      <point x="548" y="602" type="line"/>
      <point x="524" y="602" type="line"/>
      <point x="292" y="101" type="line"/>
      <point x="316" y="101" type="line"/>
    </contour>
    <contour>
      <point x="361" y="602" type="line"/>
      <point x="337" y="602" type="line"/>
      <point x="105" y="101" type="line"/>
      <point x="129" y="101" type="line"/>
    </contour>
  </outline>
</glyph>
<glyph name="dollar" format="1">
  <advance width="649"/>
  <unicode hex="0024"/>
  <outline>
    <contour>
      <point x="415" y="840" type="line"/>
      <point x="145" y="-132" type="line"/>
      <point x="167" y="-132" type="line"/>
      <point x="437" y="840" type="line"/>
    </contour>
    <contour>
      <point x="499" y="840" type="line"/>
      <point x="229" y="-132" type="line"/>
      <point x="251" y="-132" type="line"/>
      <point x="521" y="840" type="line"/>
    </contour>
    <contour>
      <point x="453" y="699"/>
      <point x="500" y="691"/>
      <point x="532" y="671" type="curve"/>
      <point x="514" y="643"/>
      <point x="480" y="589"/>
      <point x="480" y="530" type="curve" smooth="yes"/>
      <point x="480" y="471"/>
      <point x="514" y="432"/>
      <point x="565" y="432" type="curve" smooth="yes"/>
      <point x="619" y="432"/>
      <point x="653" y="484"/>
      <point x="653" y="551" type="curve" smooth="yes"/>
      <point x="653" y="605"/>
      <point x="628" y="646"/>
      <point x="578" y="676" type="curve" smooth="yes"/>
      <point x="524" y="708"/>
      <point x="471" y="722"/>
      <point x="384" y="722" type="curve" smooth="yes"/>
      <point x="271" y="722"/>
      <point x="121" y="673"/>
      <point x="121" y="499" type="curve" smooth="yes"/>
      <point x="121" y="335"/>
      <point x="392" y="223"/>
      <point x="392" y="107" type="curve" smooth="yes"/>
      <point x="392" y="49"/>
      <point x="364" y="9"/>
      <point x="255" y="9" type="curve" smooth="yes"/>
      <point x="202" y="9"/>
      <point x="158" y="17"/>
      <point x="126" y="37" type="curve"/>
      <point x="144" y="65"/>
      <point x="178" y="119"/>
      <point x="178" y="178" type="curve" smooth="yes"/>
      <point x="178" y="237"/>
      <point x="144" y="276"/>
      <point x="93" y="276" type="curve" smooth="yes"/>
      <point x="39" y="276"/>
      <point x="5" y="224"/>
      <point x="5" y="157" type="curve" smooth="yes"/>
      <point x="5" y="103"/>
      <point x="30" y="62"/>
      <point x="80" y="32" type="curve" smooth="yes"/>
      <point x="134" y="0"/>
      <point x="187" y="-14"/>
      <point x="274" y="-14" type="curve" smooth="yes"/>
      <point x="396" y="-14"/>
      <point x="585" y="28"/>
      <point x="585" y="208" type="curve" smooth="yes"/>
      <point x="585" y="374"/>
      <point x="292" y="484"/>
      <point x="292" y="608" type="curve" smooth="yes"/>
      <point x="292" y="669"/>
      <point x="343" y="699"/>
      <point x="400" y="699" type="curve" smooth="yes"/>
    </contour>
  </outline>
</glyph>
<glyph name="percent" format="1">
  <advance width="816"/>
  <unicode hex="0025"/>
  <outline>
    <contour>
      <point x="355" y="748"/>
      <point x="363" y="725"/>
      <point x="363" y="687" type="curve" smooth="yes"/>
      <point x="363" y="601"/>
      <point x="327" y="451"/>
      <point x="261" y="451" type="curve" smooth="yes"/>
      <point x="247" y="451"/>
      <point x="239" y="474"/>
      <point x="239" y="513" type="curve" smooth="yes"/>
      <point x="239" y="598"/>
      <point x="275" y="748"/>
      <point x="341" y="748" type="curve" smooth="yes"/>
    </contour>
    <contour>
      <point x="112" y="483"/>
      <point x="166" y="438"/>
      <point x="254" y="438" type="curve" smooth="yes"/>
      <point x="391" y="438"/>
      <point x="490" y="542"/>
      <point x="490" y="637" type="curve" smooth="yes"/>
      <point x="490" y="715"/>
      <point x="437" y="761"/>
      <point x="349" y="761" type="curve" smooth="yes"/>
      <point x="212" y="761"/>
      <point x="112" y="657"/>
      <point x="112" y="562" type="curve" smooth="yes"/>
    </contour>
    <contour>
      <point x="613" y="296"/>
      <point x="621" y="273"/>
      <point x="621" y="235" type="curve" smooth="yes"/>
      <point x="621" y="149"/>
      <point x="585" y="-1"/>
      <point x="519" y="-1" type="curve" smooth="yes"/>
      <point x="505" y="-1"/>
      <point x="497" y="22"/>
      <point x="497" y="61" type="curve" smooth="yes"/>
      <point x="497" y="146"/>
      <point x="533" y="296"/>
      <point x="599" y="296" type="curve" smooth="yes"/>
    </contour>
    <contour>
      <point x="370" y="31"/>
      <point x="424" y="-14"/>
      <point x="512" y="-14" type="curve" smooth="yes"/>
      <point x="649" y="-14"/>
      <point x="748" y="90"/>
      <point x="748" y="185" type="curve" smooth="yes"/>
      <point x="748" y="263"/>
      <point x="695" y="309"/>
      <point x="607" y="309" type="curve" smooth="yes"/>
      <point x="470" y="309"/>
      <point x="370" y="205"/>
      <point x="370" y="110" type="curve" smooth="yes"/>
    </contour>
    <component base="fraction" xOffset="384"/>
  </outline>
</glyph>
<glyph name="ampersand" format="1">
  <advance width="894"/>
  <unicode hex="0026"/>
  <outline>
    <contour>
      <point x="563" y="216" type="line"/>
      <point x="551" y="190"/>
      <point x="515" y="152"/>
      <point x="457" y="152" type="curve" smooth="yes"/>
      <point x="427" y="152"/>
      <point x="395" y="162"/>
      <point x="395" y="200" type="curve" smooth="yes"/>
      <point x="395" y="234"/>
      <point x="420" y="258"/>
      <point x="481" y="276" type="curve" smooth="yes"/>
      <point x="556" y="299"/>
      <point x="631" y="321"/>
      <point x="706" y="344" type="curve" smooth="yes"/>
      <point x="855" y="389"/>
      <point x="941" y="446"/>
      <point x="941" y="576" type="curve" smooth="yes"/>
      <point x="941" y="687"/>
      <point x="878" y="722"/>
      <point x="798" y="722" type="curve" smooth="yes"/>
      <point x="776" y="722"/>
      <point x="740" y="720"/>
      <point x="711" y="708" type="curve" smooth="yes"/>
      <point x="670" y="693"/>
      <point x="641" y="665"/>
      <point x="641" y="624" type="curve" smooth="yes"/>
      <point x="641" y="578"/>
      <point x="679" y="546"/>
      <point x="732" y="546" type="curve" smooth="yes"/>
      <point x="783" y="546"/>
      <point x="837" y="576"/>
      <point x="837" y="629" type="curve" smooth="yes"/>
      <point x="837" y="661"/>
      <point x="818" y="686"/>
      <point x="779" y="701" type="curve"/>
      <point x="787" y="704"/>
      <point x="796" y="705"/>
      <point x="806" y="705" type="curve" smooth="yes"/>
      <point x="860" y="705"/>
      <point x="905" y="676"/>
      <point x="905" y="624" type="curve" smooth="yes"/>
      <point x="905" y="556"/>
      <point x="827" y="537"/>
      <point x="771" y="520" type="curve" smooth="yes"/>
      <point x="683" y="493"/>
      <point x="594" y="467"/>
      <point x="506" y="440" type="curve" smooth="yes"/>
      <point x="383" y="403"/>
      <point x="325" y="338"/>
      <point x="325" y="255" type="curve" smooth="yes"/>
      <point x="325" y="166"/>
      <point x="391" y="131"/>
      <point x="453" y="131" type="curve" smooth="yes"/>
      <point x="523" y="131"/>
      <point x="566" y="176"/>
      <point x="580" y="209" type="curve"/>
    </contour>
    <contour>
      <point x="477" y="560" type="line"/>
      <point x="508" y="560"/>
      <point x="549" y="580"/>
      <point x="549" y="626" type="curve" smooth="yes"/>
      <point x="549" y="670"/>
      <point x="511" y="702"/>
      <point x="421" y="702" type="curve" smooth="yes"/>
      <point x="325" y="702"/>
      <point x="228" y="665"/>
      <point x="228" y="587" type="curve" smooth="yes"/>
      <point x="228" y="545"/>
      <point x="257" y="507"/>
      <point x="328" y="488" type="curve"/>
      <point x="138" y="453"/>
      <point x="23" y="347"/>
      <point x="23" y="211" type="curve" smooth="yes"/>
      <point x="23" y="58"/>
      <point x="169" y="-14"/>
      <point x="351" y="-14" type="curve" smooth="yes"/>
      <point x="615" y="-14"/>
      <point x="732" y="137"/>
      <point x="732" y="259" type="curve" smooth="yes"/>
      <point x="732" y="325"/>
      <point x="698" y="381"/>
      <point x="637" y="405" type="curve"/>
      <point x="626" y="394" type="line"/>
      <point x="691" y="367"/>
      <point x="711" y="317"/>
      <point x="711" y="266" type="curve" smooth="yes"/>
      <point x="711" y="132"/>
      <point x="572" y="80"/>
      <point x="448" y="80" type="curve" smooth="yes"/>
      <point x="312" y="80"/>
      <point x="238" y="143"/>
      <point x="238" y="267" type="curve" smooth="yes"/>
      <point x="238" y="364"/>
      <point x="283" y="454"/>
      <point x="341" y="480" type="curve"/>
      <point x="355" y="473"/>
      <point x="385" y="458"/>
      <point x="410" y="458" type="curve" smooth="yes"/>
      <point x="425" y="458"/>
      <point x="441" y="464"/>
      <point x="441" y="479" type="curve" smooth="yes"/>
      <point x="441" y="492"/>
      <point x="429" y="500"/>
      <point x="405" y="500" type="curve" smooth="yes"/>
      <point x="393" y="500"/>
      <point x="366" y="498"/>
      <point x="342" y="494" type="curve"/>
      <point x="340" y="504"/>
      <point x="339" y="514"/>
      <point x="339" y="524" type="curve" smooth="yes"/>
      <point x="339" y="608"/>
      <point x="407" y="662"/>
      <point x="471" y="662" type="curve" smooth="yes"/>
      <point x="506" y="662"/>
      <point x="526" y="646"/>
      <point x="526" y="623" type="curve" smooth="yes"/>
      <point x="526" y="598"/>
      <point x="504" y="578"/>
      <point x="476" y="578" type="curve"/>
    </contour>
  </outline>
</glyph>
<glyph name="quotesingle" format="1">
  <advance width="256"/>
  <unicode hex="0027"/>
  <outline>
    <contour>
      <point x="302" y="709"/>
      <point x="276" y="730"/>
      <point x="238" y="730" type="curve" smooth="yes"/>
      <point x="176" y="730"/>
      <point x="135" y="679"/>
      <point x="135" y="624" type="curve" smooth="yes"/>
      <point x="135" y="580"/>
      <point x="158" y="543"/>
      <point x="170" y="468" type="curve"/>
      <point x="184" y="468" type="line"/>
      <point x="222" y="537"/>
      <point x="303" y="605"/>
      <point x="303" y="673" type="curve"/>
    </contour>
  </outline>
</glyph>
<glyph name="parenright" format="1">
  <advance width="421"/>
  <unicode hex="0029"/>
  <outline>
    <contour>
      <point x="149" y="793" type="line"/>
      <point x="195" y="677"/>
      <point x="219" y="581"/>
      <point x="219" y="447" type="curve" smooth="yes"/>
      <point x="219" y="160"/>
      <point x="89" y="-21"/>
      <point x="-107" y="-169" type="curve" smooth="yes"/>
      <point x="-97" y="-182" type="line"/>
      <point x="185" y="-44"/>
      <point x="396" y="178"/>
      <point x="396" y="401" type="curve" smooth="yes"/>
      <point x="396" y="577"/>
      <point x="305" y="691"/>
      <point x="167" y="806" type="curve"/>
    </contour>
  </outline>
</glyph>
<glyph name="asterisk" format="1">
  <advance width="477"/>
  <unicode hex="002A"/>
  <outline>
    <contour>
      <point x="295" y="518" type="line"/>
      <point x="285" y="589"/>
      <point x="269" y="637"/>
      <point x="279" y="675" type="curve" smooth="yes"/>
      <point x="289" y="715"/>
      <point x="321" y="729"/>
      <point x="349" y="729" type="curve" smooth="yes"/>
      <point x="377" y="729"/>
      <point x="402" y="715"/>
      <point x="392" y="675" type="curve" smooth="yes"/>
      <point x="382" y="637"/>
      <point x="344" y="593"/>
      <point x="298" y="518" type="curve"/>
    </contour>
    <contour>
      <point x="295" y="516" type="line"/>
      <point x="223" y="528"/>
      <point x="167" y="528"/>
      <point x="140" y="547" type="curve" smooth="yes"/>
      <point x="110" y="567"/>
      <point x="120" y="599"/>
      <point x="140" y="623" type="curve" smooth="yes"/>
      <point x="160" y="648"/>
      <point x="190" y="665"/>
      <point x="220" y="645" type="curve" smooth="yes"/>
      <point x="248" y="626"/>
      <point x="262" y="581"/>
      <point x="297" y="519" type="curve"/>
    </contour>
    <contour>
      <point x="297" y="516" type="line"/>
      <point x="234" y="457"/>
      <point x="194" y="409"/>
      <point x="158" y="390" type="curve" smooth="yes"/>
      <point x="118" y="370"/>
      <point x="95" y="388"/>
      <point x="88" y="412" type="curve" smooth="yes"/>
      <point x="79" y="437"/>
      <point x="85" y="468"/>
      <point x="125" y="488" type="curve" smooth="yes"/>
      <point x="163" y="507"/>
      <point x="214" y="506"/>
      <point x="296" y="518" type="curve"/>
    </contour>
    <contour>
      <point x="299" y="518" type="line"/>
      <point x="308" y="447"/>
      <point x="324" y="399"/>
      <point x="314" y="361" type="curve" smooth="yes"/>
      <point x="304" y="321"/>
      <point x="272" y="307"/>
      <point x="245" y="307" type="curve" smooth="yes"/>
      <point x="216" y="307"/>
      <point x="191" y="321"/>
      <point x="201" y="361" type="curve" smooth="yes"/>
      <point x="211" y="399"/>
      <point x="248" y="443"/>
      <point x="295" y="517" type="curve"/>
    </contour>
    <contour>
      <point x="433" y="388"/>
      <point x="403" y="371"/>
      <point x="373" y="391" type="curve" smooth="yes"/>
      <point x="345" y="410"/>
      <point x="331" y="455"/>
      <point x="296" y="517" type="curve"/>
      <point x="298" y="520" type="line"/>
      <point x="370" y="508"/>
      <point x="426" y="508"/>
      <point x="453" y="489" type="curve" smooth="yes"/>
      <point x="483" y="469"/>
      <point x="473" y="437"/>
      <point x="453" y="413" type="curve" smooth="yes"/>
    </contour>
    <contour>
      <point x="514" y="599"/>
      <point x="508" y="568"/>
      <point x="468" y="548" type="curve" smooth="yes"/>
      <point x="430" y="529"/>
      <point x="379" y="530"/>
      <point x="297" y="517" type="curve"/>
      <point x="296" y="520" type="line"/>
      <point x="359" y="579"/>
      <point x="399" y="627"/>
      <point x="435" y="646" type="curve" smooth="yes"/>
      <point x="475" y="666"/>
      <point x="498" y="648"/>
      <point x="505" y="624" type="curve" smooth="yes"/>
    </contour>
  </outline>
</glyph>
<glyph name="plus" format="1">
  <advance width="569"/>
  <unicode hex="002B"/>
  <outline>
    <contour>
      <point x="46" y="340" type="line"/>
      <point x="279" y="340" type="line"/>
      <point x="212" y="105" type="line"/>
      <point x="248" y="105" type="line"/>
      <point x="315" y="340" type="line"/>
      <point x="547" y="340" type="line"/>
      <point x="556" y="370" type="line"/>
      <point x="324" y="370" type="line"/>
      <point x="391" y="606" type="line"/>
      <point x="355" y="606" type="line"/>
      <point x="288" y="370" type="line"/>
      <point x="55" y="370" type="line"/>
    </contour>
  </outline>
</glyph>
<glyph name="comma" format="1">
  <advance width="310"/>
  <unicode hex="002C"/>
  <outline>
    <contour>
      <point x="192" y="135"/>
      <point x="162" y="158"/>
      <point x="111" y="158" type="curve" smooth="yes"/>
      <point x="47" y="158"/>
      <point x="-1" y="114"/>
      <point x="-1" y="52" type="curve" smooth="yes"/>
      <point x="-1" y="9"/>
      <point x="27" y="-14"/>
      <point x="77" y="-14" type="curve" smooth="yes"/>
      <point x="104" y="-14"/>
      <point x="128" y="-3"/>
      <point x="147" y="17" type="curve"/>
      <point x="143" y="-47"/>
      <point x="91" y="-97"/>
      <point x="37" y="-120" type="curve"/>
      <point x="42" y="-138" type="line"/>
      <point x="135" y="-98"/>
      <point x="192" y="-18"/>
      <point x="192" y="76" type="curve" smooth="yes"/>
    </contour>
  </outline>
</glyph>
<glyph name="hyphen" format="1">
  <advance width="507"/>
  <unicode hex="002D"/>
  <outline>
    <contour>
      <point x="80" y="321" type="line"/>
      <point x="53" y="222" type="line"/>
      <point x="414" y="222" type="line"/>
      <point x="441" y="321" type="line"/>
    </contour>
  </outline>
</glyph>
<glyph name="period" format="1">
  <advance width="302"/>
  <unicode hex="002E"/>
  <outline>
    <contour>
      <point x="-1" y="9"/>
      <point x="26" y="-14"/>
      <point x="77" y="-14" type="curve" smooth="yes"/>
      <point x="140" y="-14"/>
      <point x="190" y="37"/>
      <point x="190" y="90" type="curve" smooth="yes"/>
      <point x="190" y="135"/>
      <point x="162" y="158"/>
      <point x="111" y="158" type="curve" smooth="yes"/>
      <point x="47" y="158"/>
      <point x="-1" y="114"/>
      <point x="-1" y="52" type="curve" smooth="yes"/>
    </contour>
  </outline>
</glyph>
<glyph name="slash" format="1">
  <advance width="456"/>
  <unicode hex="002F"/>
  <outline>
    <contour>
      <point x="-47" y="-14" type="line"/>
      <point x="-14" y="-14" type="line"/>
      <point x="534" y="722" type="line"/>
      <point x="501" y="722" type="line"/>
    </contour>
  </outline>
</glyph>
<glyph name="zero" format="1">
  <advance width="659"/>
  <unicode hex="0030"/>
  <outline>
    <contour>
      <point x="192" y="533"/>
      <point x="19" y="352"/>
      <point x="19" y="172" type="curve" smooth="yes"/>
      <point x="19" y="57"/>
      <point x="106" y="-14"/>
      <point x="242" y="-14" type="curve" smooth="yes"/>
      <point x="447" y="-14"/>
      <point x="621" y="167"/>
      <point x="621" y="347" type="curve" smooth="yes"/>
      <point x="621" y="461"/>
      <point x="536" y="533"/>
      <point x="398" y="533" type="curve" smooth="yes"/>
    </contour>
    <contour>
      <point x="414" y="515"/>
      <point x="439" y="473"/>
      <point x="439" y="374" type="curve" smooth="yes"/>
      <point x="439" y="208"/>
      <point x="371" y="4"/>
      <point x="256" y="4" type="curve" smooth="yes"/>
      <point x="226" y="4"/>
      <point x="201" y="46"/>
      <point x="201" y="145" type="curve" smooth="yes"/>
      <point x="201" y="313"/>
      <point x="268" y="515"/>
      <point x="384" y="515" type="curve" smooth="yes"/>
    </contour>
  </outline>
</glyph>
<glyph name="one" format="1">
  <advance width="391"/>
  <unicode hex="0031"/>
  <outline>
    <contour>
      <point x="356" y="530" type="line"/>
      <point x="288" y="489"/>
      <point x="205" y="442"/>
      <point x="45" y="407" type="curve"/>
      <point x="42" y="386" type="line"/>
      <point x="98" y="398"/>
      <point x="131" y="405"/>
      <point x="164" y="415" type="curve"/>
      <point x="40" y="0" type="line"/>
      <point x="217" y="0" type="line"/>
      <point x="376" y="530" type="line"/>
    </contour>
  </outline>
</glyph>
<glyph name="two" format="1">
  <advance width="556"/>
  <unicode hex="0032"/>
  <outline>
    <contour>
      <point x="165" y="533"/>
      <point x="60" y="437"/>
      <point x="60" y="349" type="curve" smooth="yes"/>
      <point x="60" y="293"/>
      <point x="102" y="281"/>
      <point x="135" y="281" type="curve" smooth="yes"/>
      <point x="168" y="281"/>
      <point x="209" y="294"/>
      <point x="246" y="329" type="curve"/>
      <point x="234" y="343" type="line"/>
      <point x="203" y="316"/>
      <point x="179" y="302"/>
      <point x="141" y="302" type="curve" smooth="yes"/>
      <point x="100" y="302"/>
      <point x="84" y="318"/>
      <point x="84" y="350" type="curve" smooth="yes"/>
      <point x="84" y="425"/>
      <point x="173" y="501"/>
      <point x="256" y="501" type="curve" smooth="yes"/>
      <point x="301" y="501"/>
      <point x="332" y="478"/>
      <point x="332" y="424" type="curve" smooth="yes"/>
      <point x="332" y="261"/>
      <point x="48" y="80"/>
      <point x="-22" y="21" type="curve"/>
      <point x="-27" y="0" type="line"/>
      <point x="14" y="17"/>
      <point x="40" y="26"/>
      <point x="93" y="24" type="curve" smooth="yes"/>
      <point x="170" y="21"/>
      <point x="229" y="-6"/>
      <point x="296" y="-6" type="curve" smooth="yes"/>
      <point x="421" y="-6"/>
      <point x="472" y="72"/>
      <point x="472" y="145" type="curve" smooth="yes"/>
      <point x="472" y="184"/>
      <point x="457" y="211"/>
      <point x="416" y="234" type="curve"/>
      <point x="406" y="221" type="line"/>
      <point x="426" y="210"/>
      <point x="438" y="195"/>
      <point x="438" y="177" type="curve" smooth="yes"/>
      <point x="438" y="145"/>
      <point x="396" y="129"/>
      <point x="341" y="129" type="curve" smooth="yes"/>
      <point x="276" y="129"/>
      <point x="221" y="157"/>
      <point x="177" y="157" type="curve"/>
      <point x="279" y="226"/>
      <point x="505" y="304"/>
      <point x="505" y="424" type="curve" smooth="yes"/>
      <point x="505" y="489"/>
      <point x="438" y="533"/>
      <point x="328" y="533" type="curve" smooth="yes"/>
    </contour>
  </outline>
</glyph>
<glyph name="three" format="1">
  <advance width="539"/>
  <unicode hex="0033"/>
  <outline>
    <contour>
      <point x="173" y="533"/>
      <point x="65" y="452"/>
      <point x="65" y="379" type="curve" smooth="yes"/>
      <point x="65" y="323"/>
      <point x="107" y="311"/>
      <point x="140" y="311" type="curve" smooth="yes"/>
      <point x="164" y="311"/>
      <point x="192" y="317"/>
      <point x="220" y="332" type="curve"/>
      <point x="209" y="347" type="line"/>
      <point x="190" y="337"/>
      <point x="171" y="332"/>
      <point x="147" y="332" type="curve" smooth="yes"/>
      <point x="105" y="332"/>
      <point x="89" y="348"/>
      <point x="89" y="380" type="curve" smooth="yes"/>
      <point x="89" y="435"/>
      <point x="158" y="491"/>
      <point x="231" y="491" type="curve" smooth="yes"/>
      <point x="296" y="491"/>
      <point x="332" y="457"/>
      <point x="332" y="401" type="curve" smooth="yes"/>
      <point x="332" y="328"/>
      <point x="285" y="278"/>
      <point x="224" y="250" type="curve"/>
      <point x="189" y="252"/>
      <point x="161" y="250"/>
      <point x="157" y="232" type="curve"/>
      <point x="153" y="220"/>
      <point x="163" y="217"/>
      <point x="174" y="217" type="curve" smooth="yes"/>
      <point x="191" y="217"/>
      <point x="210" y="225"/>
      <point x="232" y="234" type="curve"/>
      <point x="261" y="231"/>
      <point x="277" y="196"/>
      <point x="277" y="143" type="curve" smooth="yes"/>
      <point x="277" y="-32"/>
      <point x="69" y="-123"/>
      <point x="-86" y="-133" type="curve"/>
      <point x="-91" y="-151" type="line"/>
      <point x="126" y="-148"/>
      <point x="460" y="-43"/>
      <point x="460" y="121" type="curve" smooth="yes"/>
      <point x="460" y="215"/>
      <point x="369" y="248"/>
      <point x="250" y="250" type="curve"/>
      <point x="359" y="274"/>
      <point x="497" y="336"/>
      <point x="497" y="432" type="curve" smooth="yes"/>
      <point x="497" y="492"/>
      <point x="427" y="533"/>
      <point x="314" y="533" type="curve" smooth="yes"/>
    </contour>
  </outline>
</glyph>
<glyph name="five" format="1">
  <advance width="480"/>
  <unicode hex="0035"/>
  <outline>
    <contour>
      <point x="412" y="503"/>
      <point x="381" y="493"/>
      <point x="337" y="493" type="curve" smooth="yes"/>
      <point x="273" y="493"/>
      <point x="228" y="521"/>
      <point x="170" y="518" type="curve"/>
      <point x="39" y="209" type="line"/>
      <point x="49" y="204" type="line"/>
      <point x="91" y="228"/>
      <point x="120" y="231"/>
      <point x="139" y="231" type="curve" smooth="yes"/>
      <point x="203" y="231"/>
      <point x="225" y="196"/>
      <point x="225" y="137" type="curve" smooth="yes"/>
      <point x="225" y="-30"/>
      <point x="47" y="-130"/>
      <point x="-88" y="-130" type="curve"/>
      <point x="-93" y="-148" type="line"/>
      <point x="103" y="-143"/>
      <point x="410" y="-42"/>
      <point x="410" y="139" type="curve" smooth="yes"/>
      <point x="410" y="216"/>
      <point x="355" y="261"/>
      <point x="227" y="261" type="curve" smooth="yes"/>
      <point x="161" y="261"/>
      <point x="106" y="249"/>
      <point x="63" y="225" type="curve"/>
      <point x="143" y="406" type="line"/>
      <point x="184" y="412"/>
      <point x="244" y="371"/>
      <point x="291" y="371" type="curve" smooth="yes"/>
      <point x="360" y="371"/>
      <point x="413" y="434"/>
      <point x="448" y="531" type="curve"/>
      <point x="436" y="538" type="line"/>
    </contour>
  </outline>
</glyph>
<glyph name="six" format="1">
  <advance width="593"/>
  <unicode hex="0036"/>
  <outline>
    <contour>
      <point x="357" y="689"/>
      <point x="22" y="460"/>
      <point x="22" y="173" type="curve" smooth="yes"/>
      <point x="22" y="41"/>
      <point x="93" y="-14"/>
      <point x="211" y="-14" type="curve" smooth="yes"/>
      <point x="402" y="-14"/>
      <point x="559" y="130"/>
      <point x="559" y="286" type="curve" smooth="yes"/>
      <point x="559" y="387"/>
      <point x="493" y="438"/>
      <point x="407" y="438" type="curve" smooth="yes"/>
      <point x="331" y="438"/>
      <point x="274" y="399"/>
      <point x="246" y="293" type="curve"/>
      <point x="263" y="288" type="line"/>
      <point x="281" y="353"/>
      <point x="311" y="379"/>
      <point x="336" y="379" type="curve" smooth="yes"/>
      <point x="356" y="379"/>
      <point x="375" y="361"/>
      <point x="375" y="299" type="curve" smooth="yes"/>
      <point x="375" y="191"/>
      <point x="317" y="6"/>
      <point x="242" y="6" type="curve" smooth="yes"/>
      <point x="216" y="6"/>
      <point x="203" y="28"/>
      <point x="203" y="113" type="curve" smooth="yes"/>
      <point x="203" y="440"/>
      <point x="397" y="652"/>
      <point x="566" y="702" type="curve"/>
      <point x="560" y="722" type="line"/>
    </contour>
  </outline>
</glyph>
<glyph name="seven" format="1">
  <advance width="514"/>
  <unicode hex="0037"/>
  <outline>
    <contour>
      <point x="84" y="524"/>
      <point x="38" y="446"/>
      <point x="38" y="372" type="curve" smooth="yes"/>
      <point x="38" y="287"/>
      <point x="98" y="244"/>
      <point x="186" y="226" type="curve"/>
      <point x="191" y="243" type="line"/>
      <point x="126" y="258"/>
      <point x="82" y="287"/>
      <point x="82" y="335" type="curve" smooth="yes"/>
      <point x="82" y="374"/>
      <point x="111" y="389"/>
      <point x="146" y="389" type="curve" smooth="yes"/>
      <point x="198" y="389"/>
      <point x="226" y="356"/>
      <point x="289" y="356" type="curve" smooth="yes"/>
      <point x="371" y="356"/>
      <point x="417" y="411"/>
      <point x="556" y="494" type="curve"/>
      <point x="556" y="494"/>
      <point x="541" y="492"/>
      <point x="541" y="492" type="curve"/>
      <point x="411" y="358"/>
      <point x="122" y="152"/>
      <point x="72" y="-32" type="curve" smooth="yes"/>
      <point x="57" y="-87"/>
      <point x="62" y="-148"/>
      <point x="144" y="-148" type="curve" smooth="yes"/>
      <point x="208" y="-148"/>
      <point x="243" y="-112"/>
      <point x="252" y="-67" type="curve" smooth="yes"/>
      <point x="257" y="-44"/>
      <point x="252" y="-53"/>
      <point x="268" y="12" type="curve" smooth="yes"/>
      <point x="323" y="233"/>
      <point x="389" y="307"/>
      <point x="580" y="518" type="curve"/>
      <point x="551" y="518" type="line"/>
      <point x="526" y="483"/>
      <point x="492" y="479"/>
      <point x="458" y="480" type="curve" smooth="yes"/>
      <point x="355" y="482"/>
      <point x="294" y="524"/>
      <point x="205" y="524" type="curve" smooth="yes"/>
    </contour>
  </outline>
</glyph>
<glyph name="eight" format="1">
  <advance width="595"/>
  <unicode hex="0038"/>
  <outline>
    <contour>
      <point x="285" y="722"/>
      <point x="152" y="642"/>
      <point x="152" y="521" type="curve" smooth="yes"/>
      <point x="152" y="369"/>
      <point x="358" y="334"/>
      <point x="358" y="172" type="curve" smooth="yes"/>
      <point x="358" y="85"/>
      <point x="292" y="4"/>
      <point x="226" y="4" type="curve" smooth="yes"/>
      <point x="181" y="4"/>
      <point x="167" y="43"/>
      <point x="167" y="101" type="curve" smooth="yes"/>
      <point x="167" y="212"/>
      <point x="219" y="312"/>
      <point x="282" y="360" type="curve"/>
      <point x="278" y="364" type="line"/>
      <point x="138" y="316"/>
      <point x="-11" y="229"/>
      <point x="-11" y="118" type="curve" smooth="yes"/>
      <point x="-11" y="26"/>
      <point x="86" y="-14"/>
      <point x="199" y="-14" type="curve" smooth="yes"/>
      <point x="368" y="-14"/>
      <point x="525" y="86"/>
      <point x="525" y="220" type="curve" smooth="yes"/>
      <point x="525" y="379"/>
      <point x="309" y="408"/>
      <point x="309" y="564" type="curve" smooth="yes"/>
      <point x="309" y="634"/>
      <point x="356" y="704"/>
      <point x="403" y="704" type="curve" smooth="yes"/>
      <point x="432" y="704"/>
      <point x="445" y="677"/>
      <point x="445" y="624" type="curve" smooth="yes"/>
      <point x="445" y="534"/>
      <point x="408" y="448"/>
      <point x="362" y="404" type="curve"/>
      <point x="366" y="400" type="line"/>
      <point x="469" y="443"/>
      <point x="616" y="518"/>
      <point x="616" y="614" type="curve" smooth="yes"/>
      <point x="616" y="688"/>
      <point x="535" y="722"/>
      <point x="432" y="722" type="curve" smooth="yes"/>
    </contour>
  </outline>
</glyph>
<glyph name="nine" format="1">
  <advance width="582"/>
  <unicode hex="0039"/>
  <outline>
    <contour>
      <point x="169" y="533"/>
      <point x="12" y="389"/>
      <point x="12" y="233" type="curve" smooth="yes"/>
      <point x="12" y="132"/>
      <point x="78" y="81"/>
      <point x="164" y="81" type="curve" smooth="yes"/>
      <point x="240" y="81"/>
      <point x="297" y="120"/>
      <point x="325" y="226" type="curve"/>
      <point x="308" y="231" type="line"/>
      <point x="290" y="166"/>
      <point x="260" y="140"/>
      <point x="235" y="140" type="curve" smooth="yes"/>
      <point x="215" y="140"/>
      <point x="196" y="158"/>
      <point x="196" y="220" type="curve" smooth="yes"/>
      <point x="196" y="328"/>
      <point x="254" y="513"/>
      <point x="329" y="513" type="curve" smooth="yes"/>
      <point x="355" y="513"/>
      <point x="368" y="491"/>
      <point x="368" y="406" type="curve" smooth="yes"/>
      <point x="368" y="91"/>
      <point x="179" y="-120"/>
      <point x="15" y="-168" type="curve"/>
      <point x="21" y="-188" type="line"/>
      <point x="220" y="-157"/>
      <point x="549" y="69"/>
      <point x="549" y="346" type="curve" smooth="yes"/>
      <point x="549" y="478"/>
      <point x="478" y="533"/>
      <point x="360" y="533" type="curve" smooth="yes"/>
    </contour>
  </outline>
</glyph>
<glyph name="less" format="1">
  <advance width="588"/>
  <unicode hex="003C"/>
  <outline>
    <contour>
      <point x="46" y="355" type="line"/>
      <point x="436" y="145" type="line"/>
      <point x="452" y="177" type="line"/>
      <point x="121" y="351" type="line"/>
      <point x="608" y="553" type="line"/>
      <point x="598" y="582" type="line"/>
    </contour>
  </outline>
</glyph>
<glyph name="equal" format="1">
  <advance width="641"/>
  <unicode hex="003D"/>
  <outline>
    <contour>
      <point x="59" y="270" type="line"/>
      <point x="560" y="270" type="line"/>
      <point x="569" y="300" type="line"/>
      <point x="68" y="300" type="line"/>
    </contour>
    <contour>
      <point x="99" y="410" type="line"/>
      <point x="600" y="410" type="line"/>
      <point x="609" y="440" type="line"/>
      <point x="108" y="440" type="line"/>
    </contour>
  </outline>
</glyph>
<glyph name="greater" format="1">
  <advance width="591"/>
  <unicode hex="003E"/>
  <outline>
    <contour>
      <point x="55" y="155" type="line"/>
      <point x="580" y="372" type="line"/>
      <point x="151" y="603" type="line"/>
      <point x="135" y="574" type="line"/>
      <point x="505" y="376" type="line"/>
      <point x="45" y="184" type="line"/>
    </contour>
  </outline>
</glyph>
<glyph name="question" format="1">
  <advance width="518"/>
  <unicode hex="003F"/>
  <outline>
    <contour>
      <point x="344" y="757"/>
      <point x="371" y="725"/>
      <point x="371" y="678" type="curve" smooth="yes"/>
      <point x="371" y="615"/>
      <point x="316" y="576"/>
      <point x="222" y="500" type="curve" smooth="yes"/>
      <point x="143" y="436"/>
      <point x="75" y="385"/>
      <point x="75" y="309" type="curve" smooth="yes"/>
      <point x="75" y="225"/>
      <point x="155" y="187"/>
      <point x="252" y="187" type="curve" smooth="yes"/>
      <point x="331" y="187"/>
      <point x="453" y="217"/>
      <point x="453" y="314" type="curve" smooth="yes"/>
      <point x="453" y="354"/>
      <point x="418" y="385"/>
      <point x="379" y="385" type="curve" smooth="yes"/>
      <point x="328" y="385"/>
      <point x="294" y="350"/>
      <point x="294" y="304" type="curve" smooth="yes"/>
      <point x="294" y="259"/>
      <point x="326" y="233"/>
      <point x="356" y="223" type="curve"/>
      <point x="336" y="213"/>
      <point x="313" y="209"/>
      <point x="292" y="209" type="curve" smooth="yes"/>
      <point x="248" y="209"/>
      <point x="226" y="236"/>
      <point x="226" y="270" type="curve" smooth="yes"/>
      <point x="226" y="322"/>
      <point x="252" y="354"/>
      <point x="386" y="450" type="curve" smooth="yes"/>
      <point x="515" y="543"/>
      <point x="574" y="596"/>
      <point x="574" y="654" type="curve" smooth="yes"/>
      <point x="574" y="741"/>
      <point x="465" y="782"/>
      <point x="354" y="782" type="curve" smooth="yes"/>
      <point x="265" y="782"/>
      <point x="134" y="758"/>
      <point x="134" y="657" type="curve" smooth="yes"/>
      <point x="134" y="602"/>
      <point x="180" y="572"/>
      <point x="225" y="572" type="curve" smooth="yes"/>
      <point x="278" y="572"/>
      <point x="318" y="613"/>
      <point x="318" y="661" type="curve" smooth="yes"/>
      <point x="318" y="709"/>
      <point x="268" y="742"/>
      <point x="219" y="739" type="curve"/>
      <point x="243" y="754"/>
      <point x="276" y="757"/>
      <point x="293" y="757" type="curve" smooth="yes"/>
    </contour>
    <component base="period" xOffset="114"/>
  </outline>
</glyph>
<glyph name="at" format="1">
  <advance width="873"/>
  <unicode hex="0040"/>
  <outline>
    <contour>
      <point x="583" y="63"/>
      <point x="579" y="80"/>
      <point x="591" y="121" type="curve" smooth="yes"/>
      <point x="697" y="478" type="line"/>
      <point x="652" y="467"/>
      <point x="595" y="464"/>
      <point x="546" y="464" type="curve"/>
      <point x="456" y="167" type="line" smooth="yes"/>
      <point x="437" y="104"/>
      <point x="425" y="26"/>
      <point x="527" y="26" type="curve" smooth="yes"/>
      <point x="648" y="26"/>
      <point x="841" y="134"/>
      <point x="841" y="357" type="curve" smooth="yes"/>
      <point x="841" y="537"/>
      <point x="714" y="628"/>
      <point x="518" y="628" type="curve" smooth="yes"/>
      <point x="197" y="628"/>
      <point x="27" y="384"/>
      <point x="27" y="165" type="curve" smooth="yes"/>
      <point x="27" y="-64"/>
      <point x="213" y="-141"/>
      <point x="394" y="-141" type="curve" smooth="yes"/>
      <point x="505" y="-141"/>
      <point x="598" y="-112"/>
      <point x="661" y="-72" type="curve"/>
      <point x="655" y="-59" type="line"/>
      <point x="581" y="-101"/>
      <point x="488" y="-124"/>
      <point x="393" y="-124" type="curve" smooth="yes"/>
      <point x="218" y="-124"/>
      <point x="48" y="-45"/>
      <point x="48" y="167" type="curve" smooth="yes"/>
      <point x="48" y="375"/>
      <point x="213" y="610"/>
      <point x="518" y="610" type="curve" smooth="yes"/>
      <point x="697" y="610"/>
      <point x="820" y="530"/>
      <point x="820" y="356" type="curve" smooth="yes"/>
      <point x="820" y="151"/>
      <point x="649" y="63"/>
      <point x="603" y="63" type="curve" smooth="yes"/>
    </contour>
    <contour>
      <point x="472" y="218" type="line"/>
      <point x="444" y="132"/>
      <point x="415" y="86"/>
      <point x="375" y="86" type="curve" smooth="yes"/>
      <point x="350" y="86"/>
      <point x="342" y="105"/>
      <point x="342" y="146" type="curve" smooth="yes"/>
      <point x="342" y="288"/>
      <point x="438" y="435"/>
      <point x="488" y="435" type="curve" smooth="yes"/>
      <point x="524" y="435"/>
      <point x="520" y="381"/>
      <point x="514" y="356" type="curve"/>
      <point x="526" y="365" type="line"/>
      <point x="537" y="433"/>
      <point x="526" y="478"/>
      <point x="455" y="478" type="curve" smooth="yes"/>
      <point x="304" y="478"/>
      <point x="185" y="281"/>
      <point x="185" y="149" type="curve" smooth="yes"/>
      <point x="185" y="56"/>
      <point x="243" y="26"/>
      <point x="306" y="26" type="curve" smooth="yes"/>
      <point x="375" y="26"/>
      <point x="440" y="63"/>
      <point x="476" y="201" type="curve"/>
    </contour>
  </outline>
</glyph>
<glyph name="A" format="1">
  <advance width="669"/>
  <unicode hex="0041"/>
  <outline>
    <contour>
      <point x="379" y="600" type="line"/>
      <point x="326" y="542" type="line"/>
      <point x="349" y="104" type="line" smooth="yes"/>
      <point x="353" y="36"/>
      <point x="327" y="23"/>
      <point x="263" y="20" type="curve"/>
      <point x="259" y="0" type="line"/>
      <point x="295" y="2"/>
      <point x="361" y="3"/>
      <point x="429" y="3" type="curve" smooth="yes"/>
      <point x="485" y="3"/>
      <point x="559" y="2"/>
      <point x="598" y="0" type="curve"/>
      <point x="602" y="20" type="line"/>
      <point x="582" y="21"/>
      <point x="557" y="36"/>
      <point x="553" y="84" type="curve" smooth="yes"/>
      <point x="513" y="713" type="line"/>
      <point x="491" y="710"/>
      <point x="462" y="710"/>
      <point x="438" y="713" type="curve"/>
      <point x="30" y="139" type="line" smooth="yes"/>
      <point x="-28" y="58"/>
      <point x="-53" y="31"/>
      <point x="-92" y="20" type="curve"/>
      <point x="-96" y="0" type="line"/>
      <point x="-75" y="2"/>
      <point x="-59" y="3"/>
      <point x="-31" y="3" type="curve" smooth="yes"/>
      <point x="6" y="3"/>
      <point x="42" y="2"/>
      <point x="111" y="0" type="curve"/>
      <point x="115" y="20" type="line"/>
      <point x="38" y="26"/>
      <point x="-7" y="54"/>
      <point x="47" y="131" type="curve" smooth="yes"/>
    </contour>
    <contour>
      <point x="131" y="268" type="line"/>
      <point x="433" y="268" type="line"/>
      <point x="441" y="288" type="line"/>
      <point x="149" y="288" type="line"/>
    </contour>
    <contour>
      <point x="542" y="0" type="move" name="ogonek"/>
    </contour>
    <contour>
      <point x="472" y="708" type="move" name="top"/>
    </contour>
  </outline>
</glyph>
<glyph name="B" format="1">
  <advance width="710"/>
  <unicode hex="0042"/>
  <outline>
    <contour>
      <point x="418" y="707"/>
      <point x="383" y="705"/>
      <point x="311" y="705" type="curve" smooth="yes"/>
      <point x="260" y="705"/>
      <point x="178" y="706"/>
      <point x="137" y="708" type="curve"/>
      <point x="132" y="688" type="line"/>
      <point x="209" y="686"/>
      <point x="207" y="663"/>
      <point x="191" y="602" type="curve" smooth="yes"/>
      <point x="59" y="106" type="line" smooth="yes"/>
      <point x="40" y="33"/>
      <point x="24" y="23"/>
      <point x="-44" y="20" type="curve"/>
      <point x="-48" y="0" type="line"/>
      <point x="-6" y="2"/>
      <point x="75" y="3"/>
      <point x="129" y="3" type="curve" smooth="yes"/>
      <point x="222" y="3"/>
      <point x="270" y="0"/>
      <point x="306" y="0" type="curve" smooth="yes"/>
      <point x="525" y="0"/>
      <point x="656" y="80"/>
      <point x="656" y="220" type="curve" smooth="yes"/>
      <point x="656" y="308"/>
      <point x="559" y="372"/>
      <point x="390" y="370" type="curve"/>
      <point x="591" y="376"/>
      <point x="702" y="466"/>
      <point x="702" y="572" type="curve" smooth="yes"/>
      <point x="702" y="655"/>
      <point x="634" y="707"/>
      <point x="460" y="707" type="curve" smooth="yes"/>
    </contour>
    <contour>
      <point x="348" y="359" type="line" smooth="yes"/>
      <point x="422" y="359"/>
      <point x="444" y="302"/>
      <point x="444" y="240" type="curve" smooth="yes"/>
      <point x="444" y="134"/>
      <point x="381" y="23"/>
      <point x="294" y="23" type="curve" smooth="yes"/>
      <point x="241" y="23"/>
      <point x="253" y="71"/>
      <point x="262" y="106" type="curve" smooth="yes"/>
      <point x="397" y="617" type="line" smooth="yes"/>
      <point x="412" y="674"/>
      <point x="422" y="688"/>
      <point x="450" y="688" type="curve" smooth="yes"/>
      <point x="497" y="688"/>
      <point x="506" y="650"/>
      <point x="506" y="603" type="curve" smooth="yes"/>
      <point x="506" y="490"/>
      <point x="453" y="376"/>
      <point x="348" y="376" type="curve" smooth="yes"/>
      <point x="281" y="376" type="line"/>
      <point x="281" y="376"/>
      <point x="277" y="359"/>
      <point x="277" y="359" type="curve"/>
    </contour>
    <contour>
      <point x="458" y="708" type="move" name="top"/>
    </contour>
  </outline>
</glyph>
<glyph name="D" format="1">
  <advance width="802"/>
  <unicode hex="0044"/>
  <outline>
    <contour>
      <point x="791" y="625"/>
      <point x="672" y="708"/>
      <point x="476" y="708" type="curve" smooth="yes"/>
      <point x="438" y="708"/>
      <point x="356" y="706"/>
      <point x="328" y="705" type="curve" smooth="yes"/>
      <point x="265" y="704"/>
      <point x="178" y="706"/>
      <point x="136" y="708" type="curve"/>
      <point x="133" y="688" type="line"/>
      <point x="202" y="684"/>
      <point x="204" y="653"/>
      <point x="191" y="602" type="curve" smooth="yes"/>
      <point x="60" y="106" type="line" smooth="yes"/>
      <point x="41" y="33"/>
      <point x="24" y="23"/>
      <point x="-40" y="20" type="curve"/>
      <point x="-43" y="0" type="line"/>
      <point x="-3" y="2"/>
      <point x="80" y="3"/>
      <point x="127" y="3" type="curve" smooth="yes"/>
      <point x="208" y="3"/>
      <point x="252" y="0"/>
      <point x="285" y="0" type="curve" smooth="yes"/>
      <point x="657" y="0"/>
      <point x="791" y="260"/>
      <point x="791" y="457" type="curve" smooth="yes"/>
    </contour>
    <contour>
      <point x="241" y="18"/>
      <point x="245" y="36"/>
      <point x="263" y="104" type="curve" smooth="yes"/>
      <point x="394" y="604" type="line" smooth="yes"/>
      <point x="414" y="679"/>
      <point x="414" y="690"/>
      <point x="458" y="690" type="curve" smooth="yes"/>
      <point x="547" y="690"/>
      <point x="585" y="619"/>
      <point x="585" y="493" type="curve" smooth="yes"/>
      <point x="585" y="287"/>
      <point x="479" y="18"/>
      <point x="293" y="18" type="curve" smooth="yes"/>
    </contour>
    <contour>
      <point x="401" y="354" type="move" name="center"/>
    </contour>
    <contour>
      <point x="123" y="345" type="move" name="centre"/>
    </contour>
    <contour>
      <point x="467" y="708" type="move" name="top"/>
    </contour>
  </outline>
</glyph>
<glyph name="E" format="1">
  <advance width="637"/>
  <unicode hex="0045"/>
  <outline>
    <contour>
      <point x="456" y="346" type="line"/>
      <point x="460" y="366" type="line"/>
      <point x="246" y="366" type="line"/>
      <point x="242" y="346" type="line"/>
    </contour>
    <contour>
      <point x="335" y="346" type="line"/>
      <point x="410" y="346"/>
      <point x="432" y="280"/>
      <point x="432" y="234" type="curve"/>
      <point x="454" y="234" type="line"/>
      <point x="466" y="300"/>
      <point x="469" y="315"/>
      <point x="480" y="356" type="curve" smooth="yes"/>
      <point x="491" y="398"/>
      <point x="497" y="426"/>
      <point x="514" y="478" type="curve"/>
      <point x="492" y="478" type="line"/>
      <point x="470" y="420"/>
      <point x="414" y="366"/>
      <point x="349" y="366" type="curve"/>
    </contour>
    <contour>
      <point x="640" y="528" type="line"/>
      <point x="643" y="544"/>
      <point x="647" y="566"/>
      <point x="653" y="590" type="curve" smooth="yes"/>
      <point x="664" y="635"/>
      <point x="673" y="661"/>
      <point x="691" y="708" type="curve"/>
      <point x="628" y="705"/>
      <point x="545" y="705"/>
      <point x="484" y="705" type="curve" smooth="yes"/>
      <point x="412" y="705"/>
      <point x="252" y="705"/>
      <point x="137" y="708" type="curve"/>
      <point x="132" y="688" type="line"/>
      <point x="199" y="685"/>
      <point x="210" y="675"/>
      <point x="191" y="602" type="curve" smooth="yes"/>
      <point x="59" y="106" type="line" smooth="yes"/>
      <point x="40" y="33"/>
      <point x="24" y="23"/>
      <point x="-44" y="20" type="curve"/>
      <point x="-48" y="0" type="line"/>
      <point x="68" y="3"/>
      <point x="228" y="3"/>
      <point x="300" y="3" type="curve" smooth="yes"/>
      <point x="367" y="3"/>
      <point x="458" y="3"/>
      <point x="526" y="0" type="curve"/>
      <point x="533" y="51"/>
      <point x="545" y="103"/>
      <point x="552" y="128" type="curve" smooth="yes"/>
      <point x="559" y="156"/>
      <point x="566" y="182"/>
      <point x="573" y="200" type="curve"/>
      <point x="551" y="200" type="line"/>
      <point x="486" y="68"/>
      <point x="428" y="23"/>
      <point x="332" y="23" type="curve" smooth="yes"/>
      <point x="319" y="23" type="line" smooth="yes"/>
      <point x="253" y="23"/>
      <point x="243" y="33"/>
      <point x="262" y="106" type="curve" smooth="yes"/>
      <point x="394" y="602" type="line" smooth="yes"/>
      <point x="413" y="675"/>
      <point x="428" y="685"/>
      <point x="494" y="685" type="curve" smooth="yes"/>
      <point x="497" y="685" type="line" smooth="yes"/>
      <point x="577" y="685"/>
      <point x="619" y="646"/>
      <point x="618" y="528" type="curve"/>
    </contour>
    <contour>
      <point x="279" y="0" type="move" name="bottom"/>
    </contour>
    <contour>
      <point x="517" y="0" type="move" name="ogonek"/>
    </contour>
    <contour>
      <point x="428" y="708" type="move" name="top"/>
    </contour>
  </outline>
</glyph>
<glyph name="F" format="1">
  <advance width="603"/>
  <unicode hex="0046"/>
  <outline>
    <contour>
      <point x="466" y="346" type="line"/>
      <point x="470" y="366" type="line"/>
      <point x="256" y="366" type="line"/>
      <point x="252" y="346" type="line"/>
    </contour>
    <contour>
      <point x="630" y="498" type="line"/>
      <point x="635" y="523"/>
      <point x="643" y="554"/>
      <point x="653" y="590" type="curve" smooth="yes"/>
      <point x="665" y="635"/>
      <point x="673" y="661"/>
      <point x="691" y="708" type="curve"/>
      <point x="628" y="705"/>
      <point x="545" y="705"/>
      <point x="484" y="705" type="curve" smooth="yes"/>
      <point x="412" y="705"/>
      <point x="252" y="705"/>
      <point x="137" y="708" type="curve"/>
      <point x="132" y="688" type="line"/>
      <point x="199" y="685"/>
      <point x="210" y="675"/>
      <point x="191" y="602" type="curve" smooth="yes"/>
      <point x="59" y="106" type="line" smooth="yes"/>
      <point x="40" y="33"/>
      <point x="24" y="23"/>
      <point x="-44" y="20" type="curve"/>
      <point x="-48" y="0" type="line"/>
      <point x="-8" y="2"/>
      <point x="62" y="3"/>
      <point x="138" y="3" type="curve" smooth="yes"/>
      <point x="212" y="3"/>
      <point x="292" y="2"/>
      <point x="337" y="0" type="curve"/>
      <point x="341" y="20" type="line"/>
      <point x="257" y="23"/>
      <point x="243" y="33"/>
      <point x="262" y="106" type="curve" smooth="yes"/>
      <point x="394" y="602" type="line" smooth="yes"/>
      <point x="411" y="675"/>
      <point x="425" y="685"/>
      <point x="484" y="685" type="curve" smooth="yes"/>
      <point x="487" y="685" type="line" smooth="yes"/>
      <point x="566" y="685"/>
      <point x="619" y="640"/>
      <point x="608" y="498" type="curve"/>
    </contour>
    <contour>
      <point x="345" y="346" type="line"/>
      <point x="404" y="346"/>
      <point x="437" y="296"/>
      <point x="437" y="204" type="curve"/>
      <point x="459" y="204" type="line"/>
      <point x="471" y="270"/>
      <point x="480" y="315"/>
      <point x="490" y="356" type="curve" smooth="yes"/>
      <point x="500" y="398"/>
      <point x="507" y="426"/>
      <point x="524" y="478" type="curve"/>
      <point x="502" y="478" type="line"/>
      <point x="472" y="410"/>
      <point x="420" y="366"/>
      <point x="359" y="366" type="curve"/>
    </contour>
  </outline>
</glyph>
<glyph name="I" format="1">
  <advance width="422"/>
  <unicode hex="0049"/>
  <outline>
    <contour>
      <point x="394" y="602" type="line" smooth="yes"/>
      <point x="413" y="675"/>
      <point x="428" y="685"/>
      <point x="497" y="688" type="curve"/>
      <point x="502" y="708" type="line"/>
      <point x="452" y="706"/>
      <point x="384" y="705"/>
      <point x="314" y="705" type="curve" smooth="yes"/>
      <point x="242" y="705"/>
      <point x="174" y="706"/>
      <point x="137" y="708" type="curve"/>
      <point x="132" y="688" type="line"/>
      <point x="199" y="685"/>
      <point x="210" y="675"/>
      <point x="191" y="602" type="curve" smooth="yes"/>
      <point x="59" y="106" type="line" smooth="yes"/>
      <point x="40" y="33"/>
      <point x="23" y="23"/>
      <point x="-42" y="20" type="curve"/>
      <point x="-47" y="0" type="line"/>
      <point x="-8" y="2"/>
      <point x="58" y="3"/>
      <point x="130" y="3" type="curve" smooth="yes"/>
      <point x="200" y="3"/>
      <point x="274" y="2"/>
      <point x="317" y="0" type="curve"/>
      <point x="321" y="20" type="line"/>
      <point x="253" y="23"/>
      <point x="243" y="33"/>
      <point x="262" y="106" type="curve" smooth="yes"/>
    </contour>
    <contour>
      <point x="130" y="0" type="move" name="bottom"/>
    </contour>
    <contour>
      <point x="298" y="0" type="move" name="ogonek"/>
    </contour>
    <contour>
      <point x="344" y="708" type="move" name="top"/>
    </contour>
  </outline>
</glyph>
<glyph name="J" format="1">
  <advance width="715"/>
  <unicode hex="004A"/>
  <outline>
    <contour>
      <point x="264" y="366" type="line"/>
      <point x="264" y="366"/>
      <point x="261" y="346"/>
      <point x="261" y="346" type="curve"/>
      <point x="692" y="346" type="line"/>
      <point x="692" y="346"/>
      <point x="695" y="366"/>
      <point x="695" y="366" type="curve"/>
    </contour>
    <contour>
      <point x="535" y="543"/>
      <point x="576" y="614"/>
      <point x="705" y="650" type="curve"/>
      <point x="541" y="549"/>
      <point x="426" y="465"/>
      <point x="368" y="262" type="curve" smooth="yes"/>
      <point x="299" y="20" type="line" smooth="yes"/>
      <point x="261" y="-114"/>
      <point x="238" y="-171"/>
      <point x="178" y="-171" type="curve" smooth="yes"/>
      <point x="171" y="-171"/>
      <point x="165" y="-171"/>
      <point x="155" y="-169" type="curve"/>
      <point x="198" y="-151"/>
      <point x="220" y="-123"/>
      <point x="220" y="-85" type="curve" smooth="yes"/>
      <point x="220" y="-36"/>
      <point x="175" y="-12"/>
      <point x="119" y="-12" type="curve" smooth="yes"/>
      <point x="51" y="-12"/>
      <point x="15" y="-49"/>
      <point x="15" y="-99" type="curve" smooth="yes"/>
      <point x="15" y="-166"/>
      <point x="89" y="-188"/>
      <point x="180" y="-188" type="curve" smooth="yes"/>
      <point x="389" y="-188"/>
      <point x="482" y="-72"/>
      <point x="517" y="65" type="curve" smooth="yes"/>
      <point x="579" y="307" type="line" smooth="yes"/>
      <point x="619" y="462"/>
      <point x="660" y="590"/>
      <point x="744" y="666" type="curve"/>
      <point x="815" y="693"/>
      <point x="827" y="716"/>
      <point x="811" y="730" type="curve" smooth="yes"/>
      <point x="791" y="747"/>
      <point x="763" y="720"/>
      <point x="735" y="677" type="curve"/>
      <point x="685" y="651"/>
      <point x="615" y="642"/>
      <point x="571" y="642" type="curve" smooth="yes"/>
      <point x="425" y="642"/>
      <point x="383" y="739"/>
      <point x="241" y="739" type="curve" smooth="yes"/>
      <point x="133" y="739"/>
      <point x="82" y="682"/>
      <point x="82" y="599" type="curve" smooth="yes"/>
      <point x="82" y="502"/>
      <point x="168" y="448"/>
      <point x="299" y="440" type="curve"/>
      <point x="299" y="440"/>
      <point x="301" y="458"/>
      <point x="301" y="458" type="curve"/>
      <point x="201" y="464"/>
      <point x="163" y="494"/>
      <point x="163" y="538" type="curve" smooth="yes"/>
      <point x="163" y="574"/>
      <point x="189" y="589"/>
      <point x="220" y="589" type="curve" smooth="yes"/>
      <point x="273" y="589"/>
      <point x="336" y="543"/>
      <point x="414" y="543" type="curve" smooth="yes"/>
    </contour>
    <contour>
      <point x="554" y="708" type="move" name="top"/>
    </contour>
  </outline>
</glyph>
<glyph name="K" format="1">
  <advance width="783"/>
  <unicode hex="004B"/>
  <outline>
    <contour>
      <point x="394" y="602" type="line" smooth="yes"/>
      <point x="413" y="675"/>
      <point x="428" y="685"/>
      <point x="497" y="688" type="curve"/>
      <point x="502" y="708" type="line"/>
      <point x="455" y="706"/>
      <point x="390" y="705"/>
      <point x="324" y="705" type="curve" smooth="yes"/>
      <point x="248" y="705"/>
      <point x="176" y="706"/>
      <point x="137" y="708" type="curve"/>
      <point x="132" y="688" type="line"/>
      <point x="199" y="685"/>
      <point x="210" y="675"/>
      <point x="191" y="602" type="curve" smooth="yes"/>
      <point x="59" y="106" type="line" smooth="yes"/>
      <point x="40" y="33"/>
      <point x="23" y="23"/>
      <point x="-42" y="20" type="curve"/>
      <point x="-47" y="0" type="line"/>
      <point x="-6" y="2"/>
      <point x="64" y="3"/>
      <point x="140" y="3" type="curve" smooth="yes"/>
      <point x="206" y="3"/>
      <point x="276" y="2"/>
      <point x="317" y="0" type="curve"/>
      <point x="321" y="20" type="line"/>
      <point x="253" y="23"/>
      <point x="243" y="33"/>
      <point x="262" y="106" type="curve" smooth="yes"/>
    </contour>
    <contour>
      <point x="632" y="71"/>
      <point x="621" y="82"/>
      <point x="624" y="98" type="curve" smooth="yes"/>
      <point x="640" y="198" type="line" smooth="yes"/>
      <point x="658" y="309"/>
      <point x="622" y="373"/>
      <point x="429" y="375" type="curve"/>
      <point x="427" y="365" type="line"/>
      <point x="457" y="350"/>
      <point x="461" y="327"/>
      <point x="452" y="277" type="curve" smooth="yes"/>
      <point x="424" y="119" type="line" smooth="yes"/>
      <point x="410" y="42"/>
      <point x="458" y="-14"/>
      <point x="558" y="-14" type="curve" smooth="yes"/>
      <point x="618" y="-14"/>
      <point x="675" y="18"/>
      <point x="700" y="93" type="curve" smooth="yes"/>
      <point x="726" y="170" type="line"/>
      <point x="706" y="170" type="line"/>
      <point x="689" y="119" type="line" smooth="yes"/>
      <point x="679" y="89"/>
      <point x="666" y="71"/>
      <point x="646" y="71" type="curve" smooth="yes"/>
    </contour>
    <contour>
      <point x="441" y="378" type="line"/>
      <point x="376" y="396"/>
      <point x="358" y="392"/>
      <point x="353" y="369" type="curve" smooth="yes"/>
      <point x="347" y="344"/>
      <point x="370" y="341"/>
      <point x="441" y="360" type="curve"/>
    </contour>
    <contour>
      <point x="654" y="695"/>
      <point x="671" y="705"/>
      <point x="700" y="705" type="curve"/>
      <point x="712" y="705"/>
      <point x="720" y="703"/>
      <point x="726" y="700" type="curve"/>
      <point x="662" y="677"/>
      <point x="623" y="625"/>
      <point x="623" y="573" type="curve" smooth="yes"/>
      <point x="623" y="517"/>
      <point x="665" y="490"/>
      <point x="708" y="490" type="curve" smooth="yes"/>
      <point x="781" y="490"/>
      <point x="821" y="552"/>
      <point x="821" y="610" type="curve" smooth="yes"/>
      <point x="821" y="678"/>
      <point x="771" y="722"/>
      <point x="703" y="722" type="curve" smooth="yes"/>
      <point x="676" y="722"/>
      <point x="647" y="715"/>
      <point x="624" y="689" type="curve" smooth="yes"/>
      <point x="551" y="607"/>
      <point x="580" y="393"/>
      <point x="430" y="378" type="curve"/>
      <point x="428" y="368" type="line"/>
      <point x="590" y="365"/>
      <point x="570" y="593"/>
      <point x="639" y="677" type="curve" smooth="yes"/>
    </contour>
    <contour>
      <point x="317" y="0" type="move" name="bottom"/>
    </contour>
    <contour>
      <point x="460" y="708" type="move" name="top"/>
    </contour>
  </outline>
</glyph>
<glyph name="L" format="1">
  <advance width="617"/>
  <unicode hex="004C"/>
  <outline>
    <contour>
      <point x="558" y="210" type="line"/>
      <point x="501" y="71"/>
      <point x="403" y="23"/>
      <point x="336" y="23" type="curve" smooth="yes"/>
      <point x="318" y="23" type="line" smooth="yes"/>
      <point x="252" y="23"/>
      <point x="242" y="33"/>
      <point x="261" y="106" type="curve" smooth="yes"/>
      <point x="393" y="602" type="line" smooth="yes"/>
      <point x="412" y="675"/>
      <point x="427" y="685"/>
      <point x="496" y="688" type="curve"/>
      <point x="501" y="708" type="line"/>
      <point x="454" y="706"/>
      <point x="392" y="705"/>
      <point x="326" y="705" type="curve" smooth="yes"/>
      <point x="250" y="705"/>
      <point x="176" y="706"/>
      <point x="137" y="708" type="curve"/>
      <point x="132" y="688" type="line"/>
      <point x="199" y="685"/>
      <point x="210" y="675"/>
      <point x="191" y="602" type="curve" smooth="yes"/>
      <point x="59" y="106" type="line" smooth="yes"/>
      <point x="40" y="33"/>
      <point x="24" y="23"/>
      <point x="-44" y="20" type="curve"/>
      <point x="-48" y="0" type="line"/>
      <point x="68" y="3"/>
      <point x="232" y="3"/>
      <point x="304" y="3" type="curve" smooth="yes"/>
      <point x="371" y="3"/>
      <point x="462" y="3"/>
      <point x="530" y="0" type="curve"/>
      <point x="537" y="51"/>
      <point x="549" y="103"/>
      <point x="556" y="128" type="curve" smooth="yes"/>
      <point x="564" y="160"/>
      <point x="572" y="189"/>
      <point x="580" y="210" type="curve"/>
    </contour>
    <contour>
      <point x="303" y="0" type="move" name="bottom"/>
    </contour>
    <contour>
      <point x="451" y="708" type="move" name="right"/>
    </contour>
    <contour>
      <point x="326" y="708" type="move" name="top"/>
    </contour>
  </outline>
</glyph>
<glyph name="M" format="1">
  <advance width="949"/>
  <unicode hex="004D"/>
  <outline>
    <contour>
      <point x="457" y="252" type="line"/>
      <point x="399" y="708" type="line"/>
      <point x="373" y="706"/>
      <point x="340" y="705"/>
      <point x="307" y="705" type="curve" smooth="yes"/>
      <point x="240" y="705"/>
      <point x="175" y="706"/>
      <point x="138" y="708" type="curve"/>
      <point x="133" y="688" type="line"/>
      <point x="200" y="685"/>
      <point x="211" y="675"/>
      <point x="192" y="602" type="curve" smooth="yes"/>
      <point x="68" y="137" type="line" smooth="yes"/>
      <point x="53" y="80"/>
      <point x="26" y="23"/>
      <point x="-43" y="20" type="curve"/>
      <point x="-47" y="0" type="line"/>
      <point x="-25" y="2"/>
      <point x="13" y="3"/>
      <point x="48" y="3" type="curve" smooth="yes"/>
      <point x="83" y="3"/>
      <point x="143" y="2"/>
      <point x="167" y="0" type="curve"/>
      <point x="171" y="20" type="line"/>
      <point x="74" y="23"/>
      <point x="75" y="80"/>
      <point x="90" y="137" type="curve" smooth="yes"/>
      <point x="206" y="579" type="line"/>
      <point x="295" y="-5" type="line"/>
      <point x="317" y="-5" type="line"/>
      <point x="732" y="645" type="line"/>
      <point x="587" y="106" type="line" smooth="yes"/>
      <point x="568" y="33"/>
      <point x="553" y="23"/>
      <point x="484" y="20" type="curve"/>
      <point x="480" y="0" type="line"/>
      <point x="518" y="2"/>
      <point x="588" y="3"/>
      <point x="660" y="3" type="curve" smooth="yes"/>
      <point x="730" y="3"/>
      <point x="795" y="2"/>
      <point x="844" y="0" type="curve"/>
      <point x="848" y="20" type="line"/>
      <point x="781" y="23"/>
      <point x="770" y="33"/>
      <point x="789" y="106" type="curve" smooth="yes"/>
      <point x="921" y="602" type="line" smooth="yes"/>
      <point x="940" y="675"/>
      <point x="955" y="685"/>
      <point x="1024" y="688" type="curve"/>
      <point x="1029" y="708" type="line"/>
      <point x="979" y="706"/>
      <point x="914" y="705"/>
      <point x="844" y="705" type="curve" smooth="yes"/>
      <point x="746" y="705" type="line"/>
    </contour>
  </outline>
</glyph>
<glyph name="N" format="1">
  <advance width="861"/>
  <unicode hex="004E"/>
  <outline>
    <contour>
      <point x="565" y="-5" type="line"/>
      <point x="565" y="-5"/>
      <point x="615" y="272"/>
      <point x="615" y="272" type="curve"/>
      <point x="391" y="708" type="line"/>
      <point x="368" y="706"/>
      <point x="340" y="705"/>
      <point x="310" y="705" type="curve" smooth="yes"/>
      <point x="275" y="705"/>
      <point x="242" y="706"/>
      <point x="221" y="708" type="curve"/>
      <point x="216" y="688" type="line"/>
      <point x="294" y="685"/>
      <point x="302" y="675"/>
      <point x="287" y="602" type="curve"/>
      <point x="287" y="602"/>
      <point x="275" y="483"/>
      <point x="275" y="483" type="curve"/>
      <point x="543" y="-5" type="line"/>
    </contour>
    <contour>
      <point x="862" y="737"/>
      <point x="871" y="734"/>
      <point x="876" y="729" type="curve"/>
      <point x="817" y="719"/>
      <point x="772" y="676"/>
      <point x="772" y="616" type="curve" smooth="yes"/>
      <point x="772" y="569"/>
      <point x="807" y="542"/>
      <point x="861" y="542" type="curve" smooth="yes"/>
      <point x="923" y="542"/>
      <point x="973" y="583"/>
      <point x="973" y="647" type="curve" smooth="yes"/>
      <point x="973" y="707"/>
      <point x="927" y="754"/>
      <point x="856" y="754" type="curve" smooth="yes"/>
      <point x="807" y="754"/>
      <point x="773" y="726"/>
      <point x="748" y="690" type="curve" smooth="yes"/>
      <point x="671" y="578"/>
      <point x="600" y="248"/>
      <point x="551" y="23" type="curve"/>
      <point x="565" y="-5" type="line"/>
      <point x="643" y="364"/>
      <point x="705" y="591"/>
      <point x="766" y="682" type="curve" smooth="yes"/>
      <point x="787" y="713"/>
      <point x="817" y="737"/>
      <point x="851" y="737" type="curve" smooth="yes"/>
    </contour>
    <contour>
      <point x="26" y="-57"/>
      <point x="17" y="-54"/>
      <point x="12" y="-49" type="curve"/>
      <point x="71" y="-39"/>
      <point x="116" y="4"/>
      <point x="116" y="64" type="curve" smooth="yes"/>
      <point x="116" y="111"/>
      <point x="81" y="138"/>
      <point x="27" y="138" type="curve" smooth="yes"/>
      <point x="-35" y="138"/>
      <point x="-85" y="97"/>
      <point x="-85" y="33" type="curve" smooth="yes"/>
      <point x="-85" y="-27"/>
      <point x="-39" y="-74"/>
      <point x="32" y="-74" type="curve" smooth="yes"/>
      <point x="85" y="-74"/>
      <point x="115" y="-43"/>
      <point x="139" y="-11" type="curve" smooth="yes"/>
      <point x="200" y="70"/>
      <point x="267" y="392"/>
      <point x="320" y="664" type="curve"/>
      <point x="303" y="685" type="line"/>
      <point x="240" y="352"/>
      <point x="181" y="90"/>
      <point x="123" y="-1" type="curve" smooth="yes"/>
      <point x="102" y="-34"/>
      <point x="74" y="-57"/>
      <point x="37" y="-57" type="curve" smooth="yes"/>
    </contour>
    <contour>
      <point x="346" y="0" type="move" name="bottom"/>
    </contour>
    <contour>
      <point x="562" y="708" type="move" name="top"/>
    </contour>
  </outline>
</glyph>
<glyph name="O" format="1">
  <advance width="809"/>
  <unicode hex="004F"/>
  <outline>
    <contour>
      <point x="553" y="704"/>
      <point x="590" y="626"/>
      <point x="590" y="495" type="curve" smooth="yes"/>
      <point x="590" y="254"/>
      <point x="468" y="4"/>
      <point x="338" y="4" type="curve" smooth="yes"/>
      <point x="287" y="4"/>
      <point x="250" y="82"/>
      <point x="250" y="213" type="curve" smooth="yes"/>
      <point x="250" y="454"/>
      <point x="372" y="704"/>
      <point x="502" y="704" type="curve" smooth="yes"/>
    </contour>
    <contour>
      <point x="34" y="73"/>
      <point x="145" y="-14"/>
      <point x="329" y="-14" type="curve" smooth="yes"/>
      <point x="616" y="-14"/>
      <point x="807" y="261"/>
      <point x="807" y="481" type="curve" smooth="yes"/>
      <point x="807" y="635"/>
      <point x="695" y="722"/>
      <point x="511" y="722" type="curve" smooth="yes"/>
      <point x="223" y="722"/>
      <point x="34" y="447"/>
      <point x="34" y="226" type="curve" smooth="yes"/>
    </contour>
    <contour>
      <point x="335" y="0" type="move" name="bottom"/>
    </contour>
    <contour>
      <point x="535" y="708" type="move" name="top"/>
    </contour>
  </outline>
</glyph>
<glyph name="P" format="1">
  <advance width="679"/>
  <unicode hex="0050"/>
  <outline>
    <contour>
      <point x="288" y="284" type="line" smooth="yes"/>
      <point x="548" y="284"/>
      <point x="725" y="399"/>
      <point x="725" y="556" type="curve" smooth="yes"/>
      <point x="725" y="658"/>
      <point x="642" y="707"/>
      <point x="466" y="707" type="curve" smooth="yes"/>
      <point x="416" y="707"/>
      <point x="368" y="705"/>
      <point x="320" y="705" type="curve" smooth="yes"/>
      <point x="252" y="705"/>
      <point x="176" y="706"/>
      <point x="137" y="708" type="curve"/>
      <point x="132" y="688" type="line"/>
      <point x="208" y="684"/>
      <point x="202" y="661"/>
      <point x="191" y="602" type="curve" smooth="yes"/>
      <point x="59" y="106" type="line" smooth="yes"/>
      <point x="40" y="33"/>
      <point x="24" y="23"/>
      <point x="-44" y="20" type="curve"/>
      <point x="-48" y="0" type="line"/>
      <point x="-8" y="2"/>
      <point x="66" y="3"/>
      <point x="142" y="3" type="curve" smooth="yes"/>
      <point x="208" y="3"/>
      <point x="270" y="2"/>
      <point x="316" y="0" type="curve"/>
      <point x="320" y="20" type="line"/>
      <point x="253" y="24"/>
      <point x="246" y="50"/>
      <point x="261" y="106" type="curve" smooth="yes"/>
      <point x="393" y="602" type="line" smooth="yes"/>
      <point x="411" y="671"/>
      <point x="408" y="688"/>
      <point x="437" y="688" type="curve" smooth="yes"/>
      <point x="492" y="688"/>
      <point x="514" y="650"/>
      <point x="514" y="583" type="curve" smooth="yes"/>
      <point x="514" y="468"/>
      <point x="460" y="304"/>
      <point x="298" y="304" type="curve" smooth="yes"/>
      <point x="253" y="304" type="line"/>
      <point x="253" y="304"/>
      <point x="248" y="284"/>
      <point x="248" y="284" type="curve"/>
    </contour>
    <contour>
      <point x="137" y="0" type="move" name="bottom"/>
    </contour>
    <contour>
      <point x="450" y="708" type="move" name="top"/>
    </contour>
  </outline>
</glyph>
<glyph name="Q" format="1">
  <advance width="865"/>
  <unicode hex="0051"/>
  <outline>
    <contour>
      <point x="474" y="243"/>
      <point x="585" y="325"/>
      <point x="585" y="452" type="curve" smooth="yes"/>
      <point x="585" y="524"/>
      <point x="549" y="571"/>
      <point x="488" y="571" type="curve" smooth="yes"/>
      <point x="427" y="571"/>
      <point x="376" y="523"/>
      <point x="376" y="458" type="curve" smooth="yes"/>
      <point x="376" y="405"/>
      <point x="410" y="365"/>
      <point x="464" y="365" type="curve" smooth="yes"/>
      <point x="499" y="365"/>
      <point x="547" y="382"/>
      <point x="562" y="435" type="curve"/>
      <point x="561" y="417"/>
      <point x="557" y="399"/>
      <point x="550" y="382" type="curve" smooth="yes"/>
      <point x="525" y="321"/>
      <point x="462" y="276"/>
      <point x="384" y="276" type="curve" smooth="yes"/>
      <point x="305" y="276"/>
      <point x="289" y="322"/>
      <point x="289" y="387" type="curve" smooth="yes"/>
      <point x="289" y="536"/>
      <point x="373" y="704"/>
      <point x="507" y="704" type="curve" smooth="yes"/>
      <point x="596" y="704"/>
      <point x="644" y="629"/>
      <point x="644" y="496" type="curve" smooth="yes"/>
      <point x="644" y="278"/>
      <point x="524" y="115"/>
      <point x="347" y="25" type="curve" smooth="yes"/>
      <point x="261" y="-19"/>
      <point x="143" y="-65"/>
      <point x="76" y="-65" type="curve" smooth="yes"/>
      <point x="20" y="-65"/>
      <point x="-11" y="-42"/>
      <point x="-11" y="-9" type="curve" smooth="yes"/>
      <point x="-11" y="15"/>
      <point x="6" y="29"/>
      <point x="39" y="29" type="curve" smooth="yes"/>
      <point x="170" y="29"/>
      <point x="245" y="-188"/>
      <point x="493" y="-188" type="curve" smooth="yes"/>
      <point x="676" y="-188"/>
      <point x="787" y="-70"/>
      <point x="787" y="37" type="curve" smooth="yes"/>
      <point x="787" y="105"/>
      <point x="742" y="138"/>
      <point x="683" y="138" type="curve" smooth="yes"/>
      <point x="618" y="138"/>
      <point x="572" y="97"/>
      <point x="572" y="38" type="curve" smooth="yes"/>
      <point x="572" y="-20"/>
      <point x="616" y="-51"/>
      <point x="669" y="-51" type="curve" smooth="yes"/>
      <point x="700" y="-51"/>
      <point x="731" y="-40"/>
      <point x="754" y="-18" type="curve"/>
      <point x="742" y="-47"/>
      <point x="713" y="-91"/>
      <point x="636" y="-91" type="curve" smooth="yes"/>
      <point x="462" y="-91"/>
      <point x="293" y="131"/>
      <point x="118" y="131" type="curve" smooth="yes"/>
      <point x="31" y="131"/>
      <point x="-34" y="76"/>
      <point x="-34" y="3" type="curve" smooth="yes"/>
      <point x="-34" y="-57"/>
      <point x="9" y="-82"/>
      <point x="70" y="-82" type="curve" smooth="yes"/>
      <point x="305" y="-82"/>
      <point x="858" y="283"/>
      <point x="858" y="522" type="curve" smooth="yes"/>
      <point x="858" y="642"/>
      <point x="719" y="722"/>
      <point x="531" y="722" type="curve" smooth="yes"/>
      <point x="293" y="722"/>
      <point x="77" y="593"/>
      <point x="77" y="423" type="curve" smooth="yes"/>
      <point x="77" y="305"/>
      <point x="182" y="243"/>
      <point x="318" y="243" type="curve" smooth="yes"/>
    </contour>
  </outline>
</glyph>
<glyph name="R" format="1">
  <advance width="742"/>
  <unicode hex="0052"/>
  <outline>
    <contour>
      <point x="309" y="342" type="line"/>
      <point x="414" y="342"/>
      <point x="429" y="298"/>
      <point x="418" y="230" type="curve" smooth="yes"/>
      <point x="399" y="116" type="line" smooth="yes"/>
      <point x="386" y="36"/>
      <point x="430" y="-14"/>
      <point x="541" y="-14" type="curve" smooth="yes"/>
      <point x="637" y="-14"/>
      <point x="690" y="24"/>
      <point x="716" y="108" type="curve" smooth="yes"/>
      <point x="720" y="121" type="line"/>
      <point x="697" y="121" type="line"/>
      <point x="692" y="107" type="line" smooth="yes"/>
      <point x="677" y="65"/>
      <point x="658" y="43"/>
      <point x="630" y="43" type="curve" smooth="yes"/>
      <point x="604" y="43"/>
      <point x="593" y="61"/>
      <point x="600" y="105" type="curve" smooth="yes"/>
      <point x="617" y="209" type="line" smooth="yes"/>
      <point x="636" y="325"/>
      <point x="519" y="343"/>
      <point x="382" y="350" type="curve"/>
      <point x="358" y="352"/>
      <point x="335" y="354"/>
      <point x="311" y="356" type="curve"/>
    </contour>
    <contour>
      <point x="331" y="345" type="line"/>
      <point x="567" y="345"/>
      <point x="725" y="430"/>
      <point x="725" y="569" type="curve" smooth="yes"/>
      <point x="725" y="670"/>
      <point x="641" y="707"/>
      <point x="460" y="707" type="curve" smooth="yes"/>
      <point x="418" y="707"/>
      <point x="377" y="705"/>
      <point x="307" y="705" type="curve" smooth="yes"/>
      <point x="257" y="705"/>
      <point x="176" y="706"/>
      <point x="137" y="708" type="curve"/>
      <point x="132" y="688" type="line"/>
      <point x="208" y="683"/>
      <point x="205" y="661"/>
      <point x="190" y="602" type="curve" smooth="yes"/>
      <point x="59" y="106" type="line" smooth="yes"/>
      <point x="40" y="33"/>
      <point x="24" y="23"/>
      <point x="-44" y="20" type="curve"/>
      <point x="-48" y="0" type="line"/>
      <point x="-8" y="2"/>
      <point x="67" y="3"/>
      <point x="138" y="3" type="curve" smooth="yes"/>
      <point x="209" y="3"/>
      <point x="270" y="2"/>
      <point x="316" y="0" type="curve"/>
      <point x="320" y="20" type="line"/>
      <point x="241" y="24"/>
      <point x="246" y="46"/>
      <point x="262" y="106" type="curve" smooth="yes"/>
      <point x="402" y="636" type="line" smooth="yes"/>
      <point x="413" y="677"/>
      <point x="427" y="688"/>
      <point x="454" y="688" type="curve" smooth="yes"/>
      <point x="498" y="688"/>
      <point x="524" y="658"/>
      <point x="524" y="590" type="curve" smooth="yes"/>
      <point x="524" y="429"/>
      <point x="412" y="359"/>
      <point x="321" y="359" type="curve" smooth="yes"/>
      <point x="296" y="359" type="line"/>
      <point x="296" y="359"/>
      <point x="291" y="343"/>
      <point x="291" y="343" type="curve"/>
    </contour>
    <contour>
      <point x="338" y="0" type="move" name="bottom"/>
    </contour>
    <contour>
      <point x="429" y="708" type="move" name="top"/>
    </contour>
  </outline>
</glyph>
<glyph name="S" format="1">
  <advance width="609"/>
  <unicode hex="0053"/>
  <outline>
    <contour>
      <point x="629" y="715" type="line"/>
      <point x="616" y="678"/>
      <point x="607" y="662"/>
      <point x="596" y="662" type="curve" smooth="yes"/>
      <point x="589" y="662"/>
      <point x="574" y="671"/>
      <point x="563" y="676" type="curve" smooth="yes"/>
      <point x="534" y="690"/>
      <point x="480" y="722"/>
      <point x="386" y="722" type="curve" smooth="yes"/>
      <point x="273" y="722"/>
      <point x="123" y="659"/>
      <point x="123" y="519" type="curve" smooth="yes"/>
      <point x="123" y="357"/>
      <point x="324" y="270"/>
      <point x="324" y="101" type="curve" smooth="yes"/>
      <point x="324" y="49"/>
      <point x="300" y="9"/>
      <point x="207" y="9" type="curve" smooth="yes"/>
      <point x="108" y="9"/>
      <point x="48" y="57"/>
      <point x="44" y="155" type="curve" smooth="yes"/>
      <point x="43" y="179"/>
      <point x="46" y="213"/>
      <point x="53" y="233" type="curve"/>
      <point x="33" y="233" type="line"/>
      <point x="3" y="94"/>
      <point x="-17" y="36"/>
      <point x="-35" y="-7" type="curve"/>
      <point x="-15" y="-7" type="line"/>
      <point x="3" y="36"/>
      <point x="10" y="47"/>
      <point x="28" y="47" type="curve" smooth="yes"/>
      <point x="36" y="47"/>
      <point x="48" y="40"/>
      <point x="62" y="32" type="curve" smooth="yes"/>
      <point x="117" y="1"/>
      <point x="151" y="-14"/>
      <point x="256" y="-14" type="curve" smooth="yes"/>
      <point x="370" y="-14"/>
      <point x="547" y="42"/>
      <point x="547" y="188" type="curve" smooth="yes"/>
      <point x="547" y="352"/>
      <point x="324" y="460"/>
      <point x="324" y="598" type="curve" smooth="yes"/>
      <point x="324" y="669"/>
      <point x="375" y="695"/>
      <point x="432" y="695" type="curve" smooth="yes"/>
      <point x="522" y="695"/>
      <point x="576" y="647"/>
      <point x="576" y="566" type="curve" smooth="yes"/>
      <point x="576" y="551"/>
      <point x="574" y="530"/>
      <point x="570" y="511" type="curve"/>
      <point x="590" y="511" type="line"/>
      <point x="610" y="616"/>
      <point x="635" y="680"/>
      <point x="649" y="715" type="curve"/>
    </contour>
    <contour>
      <point x="407" y="708" type="move" name="top"/>
    </contour>
    <contour>
      <point x="238" y="0" type="move" name="bottom"/>
    </contour>
  </outline>
</glyph>
<glyph name="T" format="1">
  <advance width="695"/>
  <unicode hex="0054"/>
  <outline>
    <contour>
      <point x="732" y="886"/>
      <point x="691" y="847"/>
      <point x="691" y="786" type="curve" smooth="yes"/>
      <point x="691" y="739"/>
      <point x="715" y="703"/>
      <point x="739" y="685" type="curve"/>
      <point x="742" y="694" type="line"/>
      <point x="716" y="688"/>
      <point x="687" y="684"/>
      <point x="641" y="684" type="curve" smooth="yes"/>
      <point x="543" y="684"/>
      <point x="410" y="702"/>
      <point x="285" y="702" type="curve" smooth="yes"/>
      <point x="256" y="702"/>
      <point x="198" y="701"/>
      <point x="151" y="678" type="curve" smooth="yes"/>
      <point x="94" y="650"/>
      <point x="78" y="603"/>
      <point x="78" y="567" type="curve" smooth="yes"/>
      <point x="78" y="516"/>
      <point x="110" y="470"/>
      <point x="168" y="470" type="curve" smooth="yes"/>
      <point x="222" y="470"/>
      <point x="265" y="512"/>
      <point x="265" y="570" type="curve" smooth="yes"/>
      <point x="265" y="625"/>
      <point x="227" y="660"/>
      <point x="176" y="667" type="curve"/>
      <point x="201" y="679"/>
      <point x="242" y="684"/>
      <point x="290" y="684" type="curve" smooth="yes"/>
      <point x="387" y="684"/>
      <point x="544" y="664"/>
      <point x="631" y="664" type="curve" smooth="yes"/>
      <point x="701" y="664"/>
      <point x="760" y="673"/>
      <point x="804" y="691" type="curve" smooth="yes"/>
      <point x="858" y="714"/>
      <point x="888" y="750"/>
      <point x="888" y="800" type="curve" smooth="yes"/>
      <point x="888" y="844"/>
      <point x="850" y="886"/>
      <point x="790" y="886" type="curve" smooth="yes"/>
    </contour>
    <contour>
      <point x="254" y="116" type="line" smooth="yes"/>
      <point x="235" y="43"/>
      <point x="211" y="23"/>
      <point x="127" y="20" type="curve"/>
      <point x="123" y="0" type="line"/>
      <point x="165" y="2"/>
      <point x="242" y="3"/>
      <point x="319" y="3" type="curve" smooth="yes"/>
      <point x="400" y="3"/>
      <point x="481" y="2"/>
      <point x="528" y="0" type="curve"/>
      <point x="532" y="20" type="line"/>
      <point x="454" y="25"/>
      <point x="438" y="46"/>
      <point x="457" y="116" type="curve" smooth="yes"/>
      <point x="604" y="673" type="line"/>
      <point x="604" y="673"/>
      <point x="406" y="687"/>
      <point x="406" y="687" type="curve"/>
    </contour>
    <contour>
      <point x="320" y="0" type="move" name="bottom"/>
    </contour>
    <contour>
      <point x="348" y="354" type="move" name="center"/>
    </contour>
    <contour>
      <point x="486" y="708" type="move" name="top"/>
    </contour>
  </outline>
</glyph>
<glyph name="U" format="1">
  <advance width="702"/>
  <unicode hex="0055"/>
  <outline>
    <contour>
      <point x="590" y="280" type="line" smooth="yes"/>
      <point x="551" y="131"/>
      <point x="481" y="21"/>
      <point x="332" y="21" type="curve" smooth="yes"/>
      <point x="265" y="21"/>
      <point x="237" y="88"/>
      <point x="286" y="271" type="curve" smooth="yes"/>
      <point x="374" y="602" type="line" smooth="yes"/>
      <point x="393" y="675"/>
      <point x="408" y="685"/>
      <point x="477" y="688" type="curve"/>
      <point x="483" y="708" type="line"/>
      <point x="436" y="706"/>
      <point x="374" y="705"/>
      <point x="308" y="705" type="curve" smooth="yes"/>
      <point x="232" y="705"/>
      <point x="158" y="706"/>
      <point x="119" y="708" type="curve"/>
      <point x="113" y="688" type="line"/>
      <point x="180" y="685"/>
      <point x="191" y="675"/>
      <point x="172" y="602" type="curve" smooth="yes"/>
      <point x="89" y="288" type="line" smooth="yes"/>
      <point x="64" y="195"/>
      <point x="64" y="131"/>
      <point x="91" y="81" type="curve" smooth="yes"/>
      <point x="121" y="26"/>
      <point x="191" y="-14"/>
      <point x="313" y="-14" type="curve" smooth="yes"/>
      <point x="396" y="-14"/>
      <point x="470" y="23"/>
      <point x="518" y="79" type="curve" smooth="yes"/>
      <point x="561" y="130"/>
      <point x="592" y="198"/>
      <point x="616" y="291" type="curve" smooth="yes"/>
      <point x="678" y="532" type="line" smooth="yes"/>
      <point x="708" y="645"/>
      <point x="726" y="675"/>
      <point x="790" y="688" type="curve"/>
      <point x="796" y="708" type="line"/>
      <point x="775" y="706"/>
      <point x="742" y="705"/>
      <point x="712" y="705" type="curve" smooth="yes"/>
      <point x="675" y="705"/>
      <point x="627" y="706"/>
      <point x="601" y="708" type="curve"/>
      <point x="595" y="688" type="line"/>
      <point x="687" y="675"/>
      <point x="686" y="646"/>
      <point x="651" y="512" type="curve" smooth="yes"/>
    </contour>
    <contour>
      <point x="323" y="0" type="move" name="bottom"/>
    </contour>
    <contour>
      <point x="400" y="0" type="move" name="ogonek"/>
    </contour>
    <contour>
      <point x="495" y="708" type="move" name="top"/>
    </contour>
  </outline>
</glyph>
<glyph name="V" format="1">
  <advance width="680"/>
  <unicode hex="0056"/>
  <outline>
    <contour>
      <point x="355" y="121" type="line"/>
      <point x="400" y="163" type="line"/>
      <point x="352" y="604" type="line" smooth="yes"/>
      <point x="345" y="673"/>
      <point x="368" y="685"/>
      <point x="432" y="688" type="curve"/>
      <point x="437" y="708" type="line"/>
      <point x="398" y="706"/>
      <point x="335" y="705"/>
      <point x="263" y="705" type="curve" smooth="yes"/>
      <point x="201" y="705"/>
      <point x="133" y="706"/>
      <point x="95" y="708" type="curve"/>
      <point x="90" y="688" type="line"/>
      <point x="109" y="687"/>
      <point x="136" y="672"/>
      <point x="142" y="624" type="curve" smooth="yes"/>
      <point x="221" y="-5" type="line"/>
      <point x="246" y="-3"/>
      <point x="271" y="-3"/>
      <point x="296" y="-5" type="curve"/>
      <point x="669" y="569" type="line" smooth="yes"/>
      <point x="723" y="653"/>
      <point x="753" y="674"/>
      <point x="801" y="688" type="curve"/>
      <point x="806" y="708" type="line"/>
      <point x="785" y="706"/>
      <point x="759" y="705"/>
      <point x="731" y="705" type="curve" smooth="yes"/>
      <point x="694" y="705"/>
      <point x="608" y="706"/>
      <point x="589" y="708" type="curve"/>
      <point x="584" y="688" type="line"/>
      <point x="661" y="682"/>
      <point x="703" y="656"/>
      <point x="652" y="577" type="curve" smooth="yes"/>
    </contour>
  </outline>
</glyph>
<glyph name="W" format="1">
  <advance width="1035"/>
  <unicode hex="0057"/>
  <outline>
    <contour>
      <point x="604" y="541" type="line"/>
      <point x="350" y="131" type="line"/>
      <point x="394" y="179" type="line"/>
      <point x="348" y="604" type="line" smooth="yes"/>
      <point x="344" y="673"/>
      <point x="358" y="685"/>
      <point x="398" y="688" type="curve"/>
      <point x="403" y="708" type="line"/>
      <point x="370" y="706"/>
      <point x="319" y="705"/>
      <point x="259" y="705" type="curve" smooth="yes"/>
      <point x="197" y="705"/>
      <point x="129" y="706"/>
      <point x="91" y="708" type="curve"/>
      <point x="86" y="688" type="line"/>
      <point x="105" y="687"/>
      <point x="132" y="672"/>
      <point x="138" y="624" type="curve" smooth="yes"/>
      <point x="217" y="-5" type="line"/>
      <point x="292" y="-5" type="line"/>
      <point x="609" y="514" type="line"/>
    </contour>
    <contour>
      <point x="747" y="134" type="line"/>
      <point x="793" y="179" type="line"/>
      <point x="747" y="604" type="line" smooth="yes"/>
      <point x="740" y="673"/>
      <point x="763" y="685"/>
      <point x="827" y="688" type="curve"/>
      <point x="832" y="708" type="line"/>
      <point x="793" y="706"/>
      <point x="730" y="705"/>
      <point x="658" y="705" type="curve" smooth="yes"/>
      <point x="600" y="705"/>
      <point x="536" y="706"/>
      <point x="500" y="708" type="curve"/>
      <point x="495" y="688" type="line"/>
      <point x="510" y="687"/>
      <point x="532" y="672"/>
      <point x="537" y="624" type="curve" smooth="yes"/>
      <point x="616" y="-5" type="line"/>
      <point x="691" y="-5" type="line"/>
      <point x="1018" y="569" type="line" smooth="yes"/>
      <point x="1068" y="657"/>
      <point x="1102" y="674"/>
      <point x="1150" y="688" type="curve"/>
      <point x="1155" y="708" type="line"/>
      <point x="1134" y="706"/>
      <point x="1108" y="705"/>
      <point x="1080" y="705" type="curve" smooth="yes"/>
      <point x="1043" y="705"/>
      <point x="957" y="706"/>
      <point x="938" y="708" type="curve"/>
      <point x="933" y="688" type="line"/>
      <point x="1010" y="682"/>
      <point x="1048" y="660"/>
      <point x="1001" y="577" type="curve" smooth="yes"/>
    </contour>
    <contour>
      <point x="658" y="705" type="move" name="top"/>
    </contour>
  </outline>
</glyph>
<glyph name="X" format="1">
  <advance width="769"/>
  <unicode hex="0058"/>
  <outline>
    <contour>
      <point x="484" y="566" type="line" smooth="yes"/>
      <point x="471" y="673"/>
      <point x="429" y="722"/>
      <point x="324" y="722" type="curve" smooth="yes"/>
      <point x="247" y="722"/>
      <point x="190" y="694"/>
      <point x="161" y="615" type="curve" smooth="yes"/>
      <point x="135" y="538" type="line"/>
      <point x="155" y="538" type="line"/>
      <point x="172" y="589" type="line" smooth="yes"/>
      <point x="186" y="630"/>
      <point x="207" y="648"/>
      <point x="233" y="648" type="curve" smooth="yes"/>
      <point x="257" y="648"/>
      <point x="269" y="637"/>
      <point x="273" y="608" type="curve" smooth="yes"/>
      <point x="331" y="142" type="line" smooth="yes"/>
      <point x="344" y="42"/>
      <point x="382" y="-14"/>
      <point x="502" y="-14" type="curve" smooth="yes"/>
      <point x="573" y="-14"/>
      <point x="623" y="14"/>
      <point x="652" y="93" type="curve" smooth="yes"/>
      <point x="678" y="170" type="line"/>
      <point x="658" y="170" type="line"/>
      <point x="641" y="119" type="line" smooth="yes"/>
      <point x="628" y="81"/>
      <point x="608" y="67"/>
      <point x="582" y="67" type="curve" smooth="yes"/>
      <point x="557" y="67"/>
      <point x="544" y="80"/>
      <point x="540" y="105" type="curve" smooth="yes"/>
    </contour>
    <contour>
      <point x="742" y="705"/>
      <point x="750" y="702"/>
      <point x="755" y="697" type="curve"/>
      <point x="694" y="683"/>
      <point x="651" y="634"/>
      <point x="651" y="574" type="curve" smooth="yes"/>
      <point x="651" y="521"/>
      <point x="683" y="490"/>
      <point x="733" y="490" type="curve" smooth="yes"/>
      <point x="793" y="490"/>
      <point x="842" y="535"/>
      <point x="842" y="606" type="curve" smooth="yes"/>
      <point x="842" y="671"/>
      <point x="800" y="722"/>
      <point x="734" y="722" type="curve" smooth="yes"/>
      <point x="702" y="722"/>
      <point x="673" y="710"/>
      <point x="643" y="686" type="curve" smooth="yes"/>
      <point x="578" y="626"/>
      <point x="496" y="483"/>
      <point x="453" y="354" type="curve"/>
      <point x="442" y="278" type="line"/>
      <point x="514" y="492"/>
      <point x="606" y="632"/>
      <point x="663" y="680" type="curve" smooth="yes"/>
      <point x="685" y="696"/>
      <point x="707" y="705"/>
      <point x="729" y="705" type="curve" smooth="yes"/>
    </contour>
    <contour>
      <point x="55" y="3"/>
      <point x="47" y="6"/>
      <point x="42" y="11" type="curve"/>
      <point x="103" y="25"/>
      <point x="146" y="74"/>
      <point x="146" y="134" type="curve" smooth="yes"/>
      <point x="146" y="187"/>
      <point x="114" y="218"/>
      <point x="64" y="218" type="curve" smooth="yes"/>
      <point x="4" y="218"/>
      <point x="-45" y="173"/>
      <point x="-45" y="102" type="curve" smooth="yes"/>
      <point x="-45" y="37"/>
      <point x="-3" y="-14"/>
      <point x="63" y="-14" type="curve" smooth="yes"/>
      <point x="96" y="-14"/>
      <point x="127" y="-3"/>
      <point x="157" y="19" type="curve" smooth="yes"/>
      <point x="230" y="78"/>
      <point x="315" y="203"/>
      <point x="362" y="320" type="curve"/>
      <point x="377" y="396" type="line"/>
      <point x="301" y="200"/>
      <point x="196" y="71"/>
      <point x="136" y="28" type="curve" smooth="yes"/>
      <point x="113" y="13"/>
      <point x="92" y="3"/>
      <point x="68" y="3" type="curve" smooth="yes"/>
    </contour>
  </outline>
</glyph>
<glyph name="Y" format="1">
  <advance width="776"/>
  <unicode hex="0059"/>
  <outline>
    <contour>
      <point x="500" y="416" type="line"/>
      <point x="466" y="336" type="line"/>
      <point x="373" y="317" type="line"/>
      <point x="288" y="380" type="line"/>
      <point x="219" y="106" type="line" smooth="yes"/>
      <point x="201" y="33"/>
      <point x="184" y="23"/>
      <point x="116" y="20" type="curve"/>
      <point x="111" y="0" type="line"/>
      <point x="150" y="2"/>
      <point x="220" y="3"/>
      <point x="292" y="3" type="curve" smooth="yes"/>
      <point x="362" y="3"/>
      <point x="454" y="2"/>
      <point x="496" y="0" type="curve"/>
      <point x="501" y="20" type="line"/>
      <point x="433" y="23"/>
      <point x="404" y="33"/>
      <point x="422" y="106" type="curve" smooth="yes"/>
    </contour>
    <contour>
      <point x="743" y="705"/>
      <point x="752" y="702"/>
      <point x="757" y="697" type="curve"/>
      <point x="698" y="687"/>
      <point x="653" y="644"/>
      <point x="653" y="584" type="curve" smooth="yes"/>
      <point x="653" y="537"/>
      <point x="688" y="510"/>
      <point x="742" y="510" type="curve" smooth="yes"/>
      <point x="804" y="510"/>
      <point x="854" y="551"/>
      <point x="854" y="615" type="curve" smooth="yes"/>
      <point x="854" y="675"/>
      <point x="808" y="722"/>
      <point x="737" y="722" type="curve" smooth="yes"/>
      <point x="687" y="722"/>
      <point x="649" y="698"/>
      <point x="618" y="662" type="curve" smooth="yes"/>
      <point x="563" y="597"/>
      <point x="511" y="495"/>
      <point x="470" y="369" type="curve"/>
      <point x="444" y="597"/>
      <point x="417" y="722"/>
      <point x="263" y="722" type="curve" smooth="yes"/>
      <point x="193" y="722"/>
      <point x="124" y="694"/>
      <point x="94" y="602" type="curve" smooth="yes"/>
      <point x="73" y="538" type="line"/>
      <point x="73" y="538"/>
      <point x="95" y="538"/>
      <point x="95" y="538" type="curve"/>
      <point x="112" y="589" type="line" smooth="yes"/>
      <point x="119" y="610"/>
      <point x="131" y="636"/>
      <point x="157" y="636" type="curve" smooth="yes"/>
      <point x="222" y="636"/>
      <point x="262" y="421"/>
      <point x="275" y="265" type="curve"/>
      <point x="463" y="270" type="line"/>
      <point x="520" y="496"/>
      <point x="618" y="645"/>
      <point x="668" y="681" type="curve" smooth="yes"/>
      <point x="693" y="699"/>
      <point x="711" y="705"/>
      <point x="732" y="705" type="curve" smooth="yes"/>
    </contour>
    <contour>
      <point x="485" y="708" type="move" name="top"/>
    </contour>
  </outline>
</glyph>
<glyph name="Z" format="1">
  <advance width="662"/>
  <unicode hex="005A"/>
  <outline>
    <contour>
      <point x="516" y="346" type="line"/>
      <point x="516" y="346"/>
      <point x="524" y="366"/>
      <point x="524" y="366" type="curve"/>
      <point x="171" y="366" type="line"/>
      <point x="164" y="346" type="line"/>
    </contour>
    <contour>
      <point x="507" y="205"/>
      <point x="525" y="188"/>
      <point x="525" y="169" type="curve" smooth="yes"/>
      <point x="525" y="152"/>
      <point x="513" y="146"/>
      <point x="496" y="146" type="curve" smooth="yes"/>
      <point x="446" y="146"/>
      <point x="396" y="182"/>
      <point x="293" y="182" type="curve" smooth="yes"/>
      <point x="214" y="182"/>
      <point x="137" y="137"/>
      <point x="69" y="68" type="curve"/>
      <point x="649" y="638" type="line"/>
      <point x="720" y="665"/>
      <point x="734" y="699"/>
      <point x="718" y="713" type="curve" smooth="yes"/>
      <point x="698" y="730"/>
      <point x="660" y="703"/>
      <point x="630" y="660" type="curve"/>
      <point x="603" y="651"/>
      <point x="580" y="645"/>
      <point x="552" y="645" type="curve" smooth="yes"/>
      <point x="429" y="645"/>
      <point x="379" y="722"/>
      <point x="253" y="722" type="curve" smooth="yes"/>
      <point x="154" y="722"/>
      <point x="92" y="666"/>
      <point x="92" y="589" type="curve" smooth="yes"/>
      <point x="92" y="516"/>
      <point x="167" y="484"/>
      <point x="238" y="473" type="curve"/>
      <point x="238" y="473"/>
      <point x="243" y="492"/>
      <point x="243" y="492" type="curve"/>
      <point x="188" y="503"/>
      <point x="170" y="520"/>
      <point x="170" y="539" type="curve" smooth="yes"/>
      <point x="170" y="556"/>
      <point x="182" y="562"/>
      <point x="199" y="562" type="curve" smooth="yes"/>
      <point x="249" y="562"/>
      <point x="299" y="526"/>
      <point x="402" y="526" type="curve" smooth="yes"/>
      <point x="480" y="526"/>
      <point x="557" y="571"/>
      <point x="625" y="640" type="curve"/>
      <point x="45" y="70" type="line"/>
      <point x="-26" y="43"/>
      <point x="-40" y="9"/>
      <point x="-24" y="-5" type="curve" smooth="yes"/>
      <point x="-5" y="-22"/>
      <point x="34" y="5"/>
      <point x="64" y="48" type="curve"/>
      <point x="91" y="57"/>
      <point x="114" y="63"/>
      <point x="142" y="63" type="curve" smooth="yes"/>
      <point x="265" y="63"/>
      <point x="315" y="-14"/>
      <point x="441" y="-14" type="curve" smooth="yes"/>
      <point x="540" y="-14"/>
      <point x="602" y="42"/>
      <point x="602" y="119" type="curve" smooth="yes"/>
      <point x="602" y="192"/>
      <point x="527" y="224"/>
      <point x="456" y="235" type="curve"/>
      <point x="456" y="235"/>
      <point x="452" y="216"/>
      <point x="452" y="216" type="curve"/>
    </contour>
    <contour>
      <point x="240" y="0" type="move" name="bottom"/>
    </contour>
    <contour>
      <point x="428" y="708" type="move" name="top"/>
    </contour>
  </outline>
</glyph>
<glyph name="backslash" format="1">
  <advance width="490"/>
  <unicode hex="005C"/>
  <outline>
    <contour>
      <point x="162" y="722" type="line"/>
      <point x="131" y="722" type="line"/>
      <point x="357" y="-14" type="line"/>
      <point x="390" y="-14" type="line"/>
    </contour>
  </outline>
</glyph>
<glyph name="bracketright" format="1">
  <advance width="405"/>
  <unicode hex="005D"/>
  <outline>
    <contour>
      <point x="426" y="772" type="line"/>
      <point x="156" y="772" type="line"/>
      <point x="152" y="753" type="line"/>
      <point x="233" y="753" type="line"/>
      <point x="4" y="-162" type="line"/>
      <point x="-77" y="-162" type="line"/>
      <point x="-81" y="-181" type="line"/>
      <point x="189" y="-181" type="line"/>
    </contour>
  </outline>
</glyph>
<glyph name="asciicircum" format="1">
  <advance width="523"/>
  <unicode hex="005E"/>
  <outline>
    <contour>
      <point x="319" y="333"/>
      <point x="398" y="311"/>
      <point x="476" y="302" type="curve"/>
      <point x="482" y="317" type="line"/>
      <point x="394" y="363"/>
      <point x="345" y="445"/>
      <point x="332" y="528" type="curve"/>
      <point x="314" y="528" type="line"/>
      <point x="259" y="445"/>
      <point x="162" y="362"/>
      <point x="56" y="316" type="curve"/>
      <point x="60" y="302" type="line"/>
      <point x="128" y="316"/>
      <point x="201" y="338"/>
      <point x="250" y="362" type="curve"/>
    </contour>
  </outline>
</glyph>
<glyph name="a" format="1">
  <advance width="582"/>
  <unicode hex="0061"/>
  <outline>
    <contour>
      <point x="186" y="54"/>
      <point x="181" y="69"/>
      <point x="181" y="107" type="curve" smooth="yes"/>
      <point x="181" y="288"/>
      <point x="292" y="484"/>
      <point x="348" y="484" type="curve" smooth="yes"/>
      <point x="364" y="484"/>
      <point x="371" y="469"/>
      <point x="365" y="436" type="curve"/>
      <point x="376" y="442" type="line"/>
      <point x="383" y="510"/>
      <point x="356" y="533"/>
      <point x="314" y="533" type="curve" smooth="yes"/>
      <point x="173" y="533"/>
      <point x="-7" y="305"/>
      <point x="-7" y="111" type="curve" smooth="yes"/>
      <point x="-7" y="31"/>
      <point x="33" y="-14"/>
      <point x="117" y="-14" type="curve" smooth="yes"/>
      <point x="187" y="-14"/>
      <point x="245" y="18"/>
      <point x="278" y="125" type="curve"/>
      <point x="304" y="234" type="line"/>
      <point x="261" y="88"/>
      <point x="231" y="54"/>
      <point x="204" y="54" type="curve" smooth="yes"/>
    </contour>
    <contour>
      <point x="281" y="158" type="line" smooth="yes"/>
      <point x="262" y="94"/>
      <point x="265" y="49"/>
      <point x="285" y="21" type="curve" smooth="yes"/>
      <point x="302" y="-2"/>
      <point x="331" y="-14"/>
      <point x="372" y="-14" type="curve" smooth="yes"/>
      <point x="425" y="-14"/>
      <point x="486" y="5"/>
      <point x="515" y="89" type="curve" smooth="yes"/>
      <point x="540" y="162" type="line"/>
      <point x="521" y="162" type="line"/>
      <point x="500" y="106" type="line" smooth="yes"/>
      <point x="479" y="50"/>
      <point x="459" y="43"/>
      <point x="447" y="43" type="curve" smooth="yes"/>
      <point x="433" y="43"/>
      <point x="425" y="52"/>
      <point x="435" y="85" type="curve" smooth="yes"/>
      <point x="570" y="533" type="line"/>
      <point x="515" y="524"/>
      <point x="462" y="519"/>
      <point x="389" y="518" type="curve"/>
    </contour>
    <contour>
      <point x="439" y="0" type="move" name="ogonek"/>
    </contour>
    <contour>
      <point x="368" y="514" type="move" name="top"/>
    </contour>
  </outline>
</glyph>
<glyph name="b" format="1">
  <advance width="575"/>
  <unicode hex="0062"/>
  <outline>
    <contour>
      <point x="358" y="466"/>
      <point x="366" y="455"/>
      <point x="366" y="409" type="curve" smooth="yes"/>
      <point x="366" y="247"/>
      <point x="274" y="19"/>
      <point x="184" y="19" type="curve" smooth="yes"/>
      <point x="170" y="19"/>
      <point x="161" y="22"/>
      <point x="150" y="26" type="curve"/>
      <point x="143" y="13" type="line"/>
      <point x="160" y="-2"/>
      <point x="192" y="-14"/>
      <point x="229" y="-14" type="curve" smooth="yes"/>
      <point x="434" y="-14"/>
      <point x="552" y="214"/>
      <point x="552" y="370" type="curve" smooth="yes"/>
      <point x="552" y="474"/>
      <point x="508" y="533"/>
      <point x="415" y="533" type="curve" smooth="yes"/>
      <point x="339" y="533"/>
      <point x="288" y="474"/>
      <point x="235" y="336" type="curve"/>
      <point x="216" y="238" type="line"/>
      <point x="245" y="361"/>
      <point x="299" y="466"/>
      <point x="342" y="466" type="curve" smooth="yes"/>
    </contour>
    <contour>
      <point x="386" y="795" type="line"/>
      <point x="307" y="769"/>
      <point x="227" y="755"/>
      <point x="118" y="754" type="curve"/>
      <point x="111" y="733" type="line"/>
      <point x="176" y="733"/>
      <point x="187" y="712"/>
      <point x="174" y="667" type="curve" smooth="yes"/>
      <point x="-10" y="50" type="line" smooth="yes"/>
      <point x="-16" y="29"/>
      <point x="-23" y="9"/>
      <point x="-32" y="-9" type="curve"/>
      <point x="-17" y="-16" type="line"/>
      <point x="36" y="4"/>
      <point x="101" y="22"/>
      <point x="153" y="7" type="curve"/>
    </contour>
  </outline>
</glyph>
<glyph name="c" format="1">
  <advance width="484"/>
  <unicode hex="0063"/>
  <outline>
    <contour>
      <point x="397" y="513"/>
      <point x="407" y="509"/>
      <point x="416" y="501" type="curve"/>
      <point x="363" y="485"/>
      <point x="314" y="433"/>
      <point x="314" y="368" type="curve" smooth="yes"/>
      <point x="314" y="322"/>
      <point x="347" y="298"/>
      <point x="382" y="298" type="curve" smooth="yes"/>
      <point x="446" y="298"/>
      <point x="499" y="365"/>
      <point x="499" y="429" type="curve" smooth="yes"/>
      <point x="499" y="485"/>
      <point x="452" y="533"/>
      <point x="369" y="533" type="curve" smooth="yes"/>
      <point x="144" y="533"/>
      <point x="2" y="317"/>
      <point x="2" y="144" type="curve" smooth="yes"/>
      <point x="2" y="35"/>
      <point x="78" y="-14"/>
      <point x="180" y="-14" type="curve" smooth="yes"/>
      <point x="295" y="-14"/>
      <point x="366" y="53"/>
      <point x="409" y="120" type="curve"/>
      <point x="389" y="128" type="line"/>
      <point x="347" y="66"/>
      <point x="308" y="48"/>
      <point x="269" y="48" type="curve" smooth="yes"/>
      <point x="221" y="48"/>
      <point x="189" y="78"/>
      <point x="189" y="150" type="curve" smooth="yes"/>
      <point x="189" y="327"/>
      <point x="282" y="513"/>
      <point x="382" y="513" type="curve" smooth="yes"/>
    </contour>
    <contour>
      <point x="181" y="0" type="move" name="bottom"/>
    </contour>
    <contour>
      <point x="332" y="513" type="move" name="top"/>
    </contour>
  </outline>
</glyph>
<glyph name="d" format="1">
  <advance width="603"/>
  <unicode hex="0064"/>
  <outline>
    <contour>
      <point x="656" y="795" type="line"/>
      <point x="577" y="769"/>
      <point x="494" y="755"/>
      <point x="385" y="754" type="curve"/>
      <point x="378" y="733" type="line"/>
      <point x="443" y="733"/>
      <point x="454" y="712"/>
      <point x="441" y="667" type="curve" smooth="yes"/>
      <point x="306" y="158" type="line" smooth="yes"/>
      <point x="287" y="96"/>
      <point x="288" y="52"/>
      <point x="307" y="24" type="curve" smooth="yes"/>
      <point x="324" y="-1"/>
      <point x="355" y="-14"/>
      <point x="397" y="-14" type="curve" smooth="yes"/>
      <point x="450" y="-14"/>
      <point x="511" y="5"/>
      <point x="540" y="89" type="curve" smooth="yes"/>
      <point x="565" y="162" type="line"/>
      <point x="546" y="162" type="line"/>
      <point x="525" y="106" type="line" smooth="yes"/>
      <point x="504" y="50"/>
      <point x="484" y="43"/>
      <point x="472" y="43" type="curve" smooth="yes"/>
      <point x="460" y="43"/>
      <point x="448" y="52"/>
      <point x="460" y="85" type="curve" smooth="yes"/>
    </contour>
    <contour>
      <point x="191" y="48"/>
      <point x="186" y="67"/>
      <point x="186" y="105" type="curve" smooth="yes"/>
      <point x="186" y="315"/>
      <point x="301" y="510"/>
      <point x="361" y="510" type="curve" smooth="yes"/>
      <point x="387" y="510"/>
      <point x="391" y="495"/>
      <point x="397" y="468" type="curve"/>
      <point x="405" y="488" type="line"/>
      <point x="401" y="514"/>
      <point x="390" y="533"/>
      <point x="338" y="533" type="curve" smooth="yes"/>
      <point x="116" y="533"/>
      <point x="-1" y="278"/>
      <point x="-1" y="132" type="curve" smooth="yes"/>
      <point x="-1" y="28"/>
      <point x="59" y="-14"/>
      <point x="128" y="-14" type="curve" smooth="yes"/>
      <point x="245" y="-14"/>
      <point x="291" y="83"/>
      <point x="349" y="268" type="curve"/>
      <point x="364" y="376" type="line"/>
      <point x="308" y="132"/>
      <point x="241" y="48"/>
      <point x="210" y="48" type="curve" smooth="yes"/>
    </contour>
    <contour>
      <point x="302" y="257" type="move" name="center"/>
    </contour>
  </outline>
</glyph>
<glyph name="e" format="1">
  <advance width="496"/>
  <unicode hex="0065"/>
  <outline>
    <contour>
      <point x="161" y="200" type="line"/>
      <point x="318" y="231"/>
      <point x="503" y="317"/>
      <point x="503" y="445" type="curve" smooth="yes"/>
      <point x="503" y="505"/>
      <point x="450" y="533"/>
      <point x="379" y="533" type="curve" smooth="yes"/>
      <point x="159" y="533"/>
      <point x="-3" y="322"/>
      <point x="-3" y="127" type="curve" smooth="yes"/>
      <point x="-3" y="34"/>
      <point x="76" y="-14"/>
      <point x="170" y="-14" type="curve" smooth="yes"/>
      <point x="292" y="-14"/>
      <point x="378" y="53"/>
      <point x="423" y="120" type="curve"/>
      <point x="407" y="128" type="line"/>
      <point x="353" y="75"/>
      <point x="294" y="58"/>
      <point x="267" y="58" type="curve" smooth="yes"/>
      <point x="217" y="58"/>
      <point x="184" y="77"/>
      <point x="184" y="155" type="curve" smooth="yes"/>
      <point x="184" y="308"/>
      <point x="290" y="514"/>
      <point x="357" y="514" type="curve" smooth="yes"/>
      <point x="367" y="514"/>
      <point x="373" y="507"/>
      <point x="373" y="489" type="curve" smooth="yes"/>
      <point x="373" y="411"/>
      <point x="335" y="344"/>
      <point x="282" y="292" type="curve" smooth="yes"/>
      <point x="247" y="258"/>
      <point x="205" y="230"/>
      <point x="162" y="210" type="curve"/>
    </contour>
    <contour>
      <point x="192" y="0" type="move" name="bottom"/>
    </contour>
    <contour>
      <point x="264" y="0" type="move" name="ogonek"/>
    </contour>
    <contour>
      <point x="347" y="514" type="move" name="top"/>
    </contour>
  </outline>
</glyph>
<glyph name="f" format="1">
  <advance width="355"/>
  <unicode hex="0066"/>
  <outline>
    <contour>
      <point x="402" y="494" type="line"/>
      <point x="408" y="514" type="line"/>
      <point x="53" y="514" type="line"/>
      <point x="47" y="494" type="line"/>
    </contour>
    <contour>
      <point x="449" y="762"/>
      <point x="457" y="760"/>
      <point x="466" y="756" type="curve"/>
      <point x="410" y="735"/>
      <point x="377" y="689"/>
      <point x="377" y="638" type="curve" smooth="yes"/>
      <point x="377" y="594"/>
      <point x="408" y="570"/>
      <point x="457" y="570" type="curve" smooth="yes"/>
      <point x="522" y="570"/>
      <point x="565" y="623"/>
      <point x="565" y="670" type="curve" smooth="yes"/>
      <point x="565" y="739"/>
      <point x="506" y="782"/>
      <point x="408" y="782" type="curve" smooth="yes"/>
      <point x="349" y="782"/>
      <point x="299" y="769"/>
      <point x="257" y="738" type="curve" smooth="yes"/>
      <point x="200" y="696"/>
      <point x="158" y="621"/>
      <point x="128" y="504" type="curve" smooth="yes"/>
      <point x="-58" y="-188" type="line"/>
      <point x="-2" y="-179"/>
      <point x="51" y="-175"/>
      <point x="123" y="-174" type="curve"/>
      <point x="343" y="647" type="line" smooth="yes"/>
      <point x="357" y="700"/>
      <point x="372" y="730"/>
      <point x="391" y="746" type="curve" smooth="yes"/>
      <point x="405" y="758"/>
      <point x="421" y="762"/>
      <point x="440" y="762" type="curve" smooth="yes"/>
    </contour>
  </outline>
</glyph>
<glyph name="g" format="1">
  <advance width="487"/>
  <unicode hex="0067"/>
  <outline>
    <contour>
      <point x="228" y="227" type="line"/>
      <point x="107" y="179"/>
      <point x="7" y="140"/>
      <point x="7" y="77" type="curve" smooth="yes"/>
      <point x="7" y="42"/>
      <point x="37" y="19"/>
      <point x="71" y="8" type="curve" smooth="yes"/>
      <point x="207" y="-35" type="line" smooth="yes"/>
      <point x="240" y="-45"/>
      <point x="265" y="-52"/>
      <point x="265" y="-80" type="curve" smooth="yes"/>
      <point x="265" y="-133"/>
      <point x="176" y="-171"/>
      <point x="111" y="-171" type="curve" smooth="yes"/>
      <point x="68" y="-171"/>
      <point x="45" y="-154"/>
      <point x="45" y="-126" type="curve" smooth="yes"/>
      <point x="45" y="-103"/>
      <point x="61" y="-80"/>
      <point x="104" y="-56" type="curve"/>
      <point x="103" y="-41" type="line"/>
      <point x="29" y="-36"/>
      <point x="-107" y="-55"/>
      <point x="-107" y="-111" type="curve" smooth="yes"/>
      <point x="-107" y="-159"/>
      <point x="-10" y="-188"/>
      <point x="90" y="-188" type="curve" smooth="yes"/>
      <point x="226" y="-188"/>
      <point x="403" y="-135"/>
      <point x="403" y="-16" type="curve" smooth="yes"/>
      <point x="403" y="54"/>
      <point x="342" y="86"/>
      <point x="289" y="106" type="curve" smooth="yes"/>
      <point x="198" y="140" type="line" smooth="yes"/>
      <point x="177" y="148"/>
      <point x="163" y="154"/>
      <point x="163" y="165" type="curve" smooth="yes"/>
      <point x="163" y="184"/>
      <point x="204" y="205"/>
      <point x="288" y="235" type="curve"/>
    </contour>
    <contour>
      <point x="266" y="514" type="curve" smooth="yes"/>
      <point x="285" y="514"/>
      <point x="287" y="486"/>
      <point x="287" y="458" type="curve" smooth="yes"/>
      <point x="287" y="344"/>
      <point x="254" y="235"/>
      <point x="213" y="235" type="curve" smooth="yes"/>
      <point x="199" y="235"/>
      <point x="194" y="248"/>
      <point x="194" y="292" type="curve" smooth="yes"/>
      <point x="194" y="411"/>
      <point x="231" y="514"/>
    </contour>
    <contour>
      <point x="292" y="532" type="curve" smooth="yes"/>
      <point x="127" y="532"/>
      <point x="27" y="427"/>
      <point x="27" y="331" type="curve" smooth="yes"/>
      <point x="27" y="251"/>
      <point x="98" y="217"/>
      <point x="191" y="217" type="curve" smooth="yes"/>
      <point x="353" y="217"/>
      <point x="456" y="321"/>
      <point x="456" y="418" type="curve" smooth="yes"/>
      <point x="456" y="499"/>
      <point x="385" y="532"/>
    </contour>
    <contour>
      <point x="376" y="479" type="line"/>
      <point x="395" y="523"/>
      <point x="418" y="546"/>
      <point x="465" y="563" type="curve"/>
      <point x="461" y="570" type="line"/>
      <point x="429" y="490"/>
      <point x="466" y="452"/>
      <point x="498" y="452" type="curve" smooth="yes"/>
      <point x="523" y="452"/>
      <point x="547" y="474"/>
      <point x="547" y="513" type="curve" smooth="yes"/>
      <point x="547" y="550"/>
      <point x="524" y="579"/>
      <point x="478" y="579" type="curve" smooth="yes"/>
      <point x="425" y="579"/>
      <point x="376" y="542"/>
      <point x="355" y="486" type="curve"/>
    </contour>
    <contour>
      <point x="121" y="-181" type="move" name="bottom"/>
    </contour>
    <contour>
      <point x="307" y="519" type="move" name="top"/>
    </contour>
  </outline>
</glyph>
<glyph name="h" format="1">
  <advance width="592"/>
  <unicode hex="0068"/>
  <outline>
    <contour>
      <point x="386" y="795" type="line"/>
      <point x="307" y="769"/>
      <point x="227" y="755"/>
      <point x="118" y="754" type="curve"/>
      <point x="111" y="733" type="line"/>
      <point x="176" y="733"/>
      <point x="187" y="712"/>
      <point x="174" y="667" type="curve" smooth="yes"/>
      <point x="-24" y="0" type="line"/>
      <point x="-24" y="0"/>
      <point x="153" y="0"/>
      <point x="153" y="0" type="curve"/>
    </contour>
    <contour>
      <point x="154" y="3" type="line"/>
      <point x="212" y="223"/>
      <point x="322" y="471"/>
      <point x="376" y="471" type="curve" smooth="yes"/>
      <point x="389" y="471"/>
      <point x="390" y="453"/>
      <point x="378" y="417" type="curve" smooth="yes"/>
      <point x="292" y="158" type="line" smooth="yes"/>
      <point x="261" y="65"/>
      <point x="276" y="-14"/>
      <point x="383" y="-14" type="curve" smooth="yes"/>
      <point x="436" y="-14"/>
      <point x="497" y="5"/>
      <point x="526" y="89" type="curve" smooth="yes"/>
      <point x="551" y="162" type="line"/>
      <point x="532" y="162" type="line"/>
      <point x="511" y="106" type="line" smooth="yes"/>
      <point x="490" y="50"/>
      <point x="470" y="43"/>
      <point x="458" y="43" type="curve" smooth="yes"/>
      <point x="449" y="43"/>
      <point x="433" y="47"/>
      <point x="446" y="85" type="curve" smooth="yes"/>
      <point x="545" y="382" type="line" smooth="yes"/>
      <point x="573" y="466"/>
      <point x="560" y="533"/>
      <point x="460" y="533" type="curve" smooth="yes"/>
      <point x="353" y="533"/>
      <point x="284" y="468"/>
      <point x="176" y="143" type="curve"/>
    </contour>
    <contour>
      <point x="81" y="568" type="move" name="bar-left"/>
    </contour>
    <contour>
      <point x="296" y="257" type="move" name="center"/>
    </contour>
    <contour>
      <point x="250" y="754" type="move" name="top"/>
    </contour>
  </outline>
</glyph>
<glyph name="i" format="1">
  <advance width="336"/>
  <unicode hex="0069"/>
  <outline>
    <contour>
      <point x="169" y="633"/>
      <point x="199" y="610"/>
      <point x="257" y="610" type="curve" smooth="yes"/>
      <point x="326" y="610"/>
      <point x="380" y="651"/>
      <point x="380" y="714" type="curve" smooth="yes"/>
      <point x="380" y="759"/>
      <point x="349" y="782"/>
      <point x="291" y="782" type="curve" smooth="yes"/>
      <point x="221" y="782"/>
      <point x="169" y="748"/>
      <point x="169" y="676" type="curve" smooth="yes"/>
    </contour>
    <contour>
      <point x="35" y="158" type="line" smooth="yes"/>
      <point x="-4" y="41"/>
      <point x="38" y="-14"/>
      <point x="127" y="-14" type="curve" smooth="yes"/>
      <point x="180" y="-14"/>
      <point x="241" y="5"/>
      <point x="270" y="89" type="curve" smooth="yes"/>
      <point x="295" y="162" type="line"/>
      <point x="276" y="162" type="line"/>
      <point x="255" y="106" type="line" smooth="yes"/>
      <point x="234" y="50"/>
      <point x="214" y="43"/>
      <point x="202" y="43" type="curve" smooth="yes"/>
      <point x="188" y="43"/>
      <point x="179" y="52"/>
      <point x="190" y="85" type="curve" smooth="yes"/>
      <point x="294" y="393" type="line" smooth="yes"/>
      <point x="315" y="456"/>
      <point x="300" y="533"/>
      <point x="198" y="533" type="curve" smooth="yes"/>
      <point x="129" y="533"/>
      <point x="76" y="505"/>
      <point x="49" y="430" type="curve" smooth="yes"/>
      <point x="21" y="352" type="line"/>
      <point x="40" y="352" type="line"/>
      <point x="63" y="413" type="line" smooth="yes"/>
      <point x="81" y="461"/>
      <point x="98" y="476"/>
      <point x="118" y="476" type="curve" smooth="yes"/>
      <point x="132" y="476"/>
      <point x="137" y="463"/>
      <point x="127" y="434" type="curve" smooth="yes"/>
    </contour>
    <contour>
      <point x="194" y="0" type="move" name="ogonek"/>
    </contour>
    <contour>
      <point x="220" y="514" type="move" name="top"/>
    </contour>
  </outline>
</glyph>
<glyph name="k" format="1">
  <advance width="577"/>
  <unicode hex="006B"/>
  <outline>
    <contour>
      <point x="386" y="795" type="line"/>
      <point x="307" y="769"/>
      <point x="227" y="755"/>
      <point x="118" y="754" type="curve"/>
      <point x="111" y="733" type="line"/>
      <point x="176" y="733"/>
      <point x="187" y="712"/>
      <point x="174" y="667" type="curve" smooth="yes"/>
      <point x="-24" y="0" type="line"/>
      <point x="-24" y="0"/>
      <point x="153" y="0"/>
      <point x="153" y="0" type="curve"/>
    </contour>
    <contour>
      <point x="444" y="143" type="line" smooth="yes"/>
      <point x="473" y="280"/>
      <point x="339" y="299"/>
      <point x="211" y="290" type="curve"/>
      <point x="211" y="286" type="line"/>
      <point x="278" y="278"/>
      <point x="296" y="254"/>
      <point x="277" y="186" type="curve" smooth="yes"/>
      <point x="260" y="115" type="line" smooth="yes"/>
      <point x="243" y="34"/>
      <point x="271" y="-14"/>
      <point x="352" y="-14" type="curve" smooth="yes"/>
      <point x="411" y="-14"/>
      <point x="481" y="5"/>
      <point x="512" y="89" type="curve" smooth="yes"/>
      <point x="537" y="162" type="line"/>
      <point x="518" y="162" type="line"/>
      <point x="497" y="106" type="line" smooth="yes"/>
      <point x="476" y="50"/>
      <point x="456" y="43"/>
      <point x="444" y="43" type="curve" smooth="yes"/>
      <point x="432" y="43"/>
      <point x="425" y="51"/>
      <point x="432" y="85" type="curve" smooth="yes"/>
    </contour>
    <contour>
      <point x="460" y="514"/>
      <point x="471" y="509"/>
      <point x="476" y="501" type="curve"/>
      <point x="430" y="481"/>
      <point x="387" y="442"/>
      <point x="387" y="387" type="curve" smooth="yes"/>
      <point x="387" y="349"/>
      <point x="416" y="318"/>
      <point x="468" y="318" type="curve" smooth="yes"/>
      <point x="524" y="318"/>
      <point x="569" y="354"/>
      <point x="569" y="419" type="curve" smooth="yes"/>
      <point x="569" y="480"/>
      <point x="531" y="533"/>
      <point x="454" y="533" type="curve" smooth="yes"/>
      <point x="436" y="533"/>
      <point x="410" y="527"/>
      <point x="390" y="510" type="curve" smooth="yes"/>
      <point x="328" y="457"/>
      <point x="354" y="306"/>
      <point x="215" y="297" type="curve"/>
      <point x="213" y="286" type="line"/>
      <point x="223" y="287" type="line"/>
      <point x="366" y="284"/>
      <point x="349" y="451"/>
      <point x="405" y="498" type="curve" smooth="yes"/>
      <point x="418" y="509"/>
      <point x="432" y="514"/>
      <point x="451" y="514" type="curve" smooth="yes"/>
    </contour>
    <contour>
      <point x="217" y="0" type="move" name="bottom"/>
    </contour>
    <contour>
      <point x="295" y="754" type="move" name="top"/>
    </contour>
  </outline>
</glyph>
<glyph name="l" format="1">
  <advance width="316"/>
  <unicode hex="006C"/>
  <outline>
    <contour>
      <point x="380" y="795" type="line"/>
      <point x="301" y="769"/>
      <point x="221" y="755"/>
      <point x="112" y="754" type="curve"/>
      <point x="105" y="733" type="line"/>
      <point x="170" y="733"/>
      <point x="181" y="712"/>
      <point x="168" y="667" type="curve" smooth="yes"/>
      <point x="15" y="158" type="line" smooth="yes"/>
      <point x="-19" y="44"/>
      <point x="24" y="-14"/>
      <point x="109" y="-14" type="curve" smooth="yes"/>
      <point x="156" y="-14"/>
      <point x="221" y="3"/>
      <point x="251" y="89" type="curve" smooth="yes"/>
      <point x="276" y="162" type="line"/>
      <point x="257" y="162" type="line"/>
      <point x="236" y="106" type="line" smooth="yes"/>
      <point x="214" y="47"/>
      <point x="192" y="43"/>
      <point x="185" y="43" type="curve" smooth="yes"/>
      <point x="173" y="43"/>
      <point x="160" y="53"/>
      <point x="169" y="85" type="curve" smooth="yes"/>
    </contour>
    <contour>
      <point x="109" y="0" type="move" name="bottom"/>
    </contour>
    <contour>
      <point x="290" y="514" type="move" name="right"/>
    </contour>
    <contour>
      <point x="262" y="754" type="move" name="top"/>
    </contour>
    <contour>
      <point x="296" y="514" type="move" name="topright"/>
    </contour>
  </outline>
</glyph>
<glyph name="m" format="1">
  <advance width="887"/>
  <unicode hex="006D"/>
  <outline>
    <contour>
      <point x="282" y="393" type="line" smooth="yes"/>
      <point x="299" y="460"/>
      <point x="289" y="533"/>
      <point x="191" y="533" type="curve" smooth="yes"/>
      <point x="130" y="533"/>
      <point x="74" y="505"/>
      <point x="47" y="430" type="curve" smooth="yes"/>
      <point x="19" y="352" type="line"/>
      <point x="38" y="352" type="line"/>
      <point x="61" y="413" type="line" smooth="yes"/>
      <point x="78" y="458"/>
      <point x="95" y="476"/>
      <point x="114" y="476" type="curve" smooth="yes"/>
      <point x="129" y="476"/>
      <point x="134" y="466"/>
      <point x="125" y="434" type="curve" smooth="yes"/>
      <point x="3" y="0" type="line"/>
      <point x="3" y="0"/>
      <point x="180" y="0"/>
      <point x="180" y="0" type="curve"/>
    </contour>
    <contour>
      <point x="274" y="0" type="line"/>
      <point x="452" y="0" type="line"/>
      <point x="562" y="382" type="line" smooth="yes"/>
      <point x="589" y="476"/>
      <point x="573" y="533"/>
      <point x="486" y="533" type="curve" smooth="yes"/>
      <point x="351" y="533"/>
      <point x="280" y="425"/>
      <point x="201" y="143" type="curve"/>
      <point x="214" y="135" type="line"/>
      <point x="278" y="334"/>
      <point x="342" y="461"/>
      <point x="392" y="461" type="curve" smooth="yes"/>
      <point x="407" y="461"/>
      <point x="402" y="445"/>
      <point x="394" y="417" type="curve" smooth="yes"/>
    </contour>
    <contour>
      <point x="586" y="158" type="line" smooth="yes"/>
      <point x="566" y="99"/>
      <point x="567" y="56"/>
      <point x="584" y="28" type="curve" smooth="yes"/>
      <point x="601" y="0"/>
      <point x="633" y="-14"/>
      <point x="677" y="-14" type="curve" smooth="yes"/>
      <point x="730" y="-14"/>
      <point x="791" y="5"/>
      <point x="820" y="89" type="curve" smooth="yes"/>
      <point x="845" y="162" type="line"/>
      <point x="826" y="162" type="line"/>
      <point x="805" y="106" type="line" smooth="yes"/>
      <point x="784" y="50"/>
      <point x="764" y="43"/>
      <point x="752" y="43" type="curve" smooth="yes"/>
      <point x="743" y="43"/>
      <point x="727" y="47"/>
      <point x="740" y="85" type="curve" smooth="yes"/>
      <point x="839" y="382" type="line" smooth="yes"/>
      <point x="870" y="475"/>
      <point x="851" y="533"/>
      <point x="763" y="533" type="curve" smooth="yes"/>
      <point x="653" y="533"/>
      <point x="567" y="463"/>
      <point x="480" y="141" type="curve"/>
      <point x="491" y="136" type="line"/>
      <point x="570" y="389"/>
      <point x="636" y="461"/>
      <point x="671" y="461" type="curve" smooth="yes"/>
      <point x="681" y="461"/>
      <point x="682" y="447"/>
      <point x="672" y="417" type="curve" smooth="yes"/>
    </contour>
  </outline>
</glyph>
<glyph name="n" format="1">
  <advance width="619"/>
  <unicode hex="006E"/>
  <outline>
    <contour>
      <point x="283" y="393" type="line" smooth="yes"/>
      <point x="300" y="457"/>
      <point x="289" y="533"/>
      <point x="184" y="533" type="curve" smooth="yes"/>
      <point x="115" y="533"/>
      <point x="72" y="500"/>
      <point x="47" y="430" type="curve" smooth="yes"/>
      <point x="19" y="352" type="line"/>
      <point x="38" y="352" type="line"/>
      <point x="61" y="413" type="line" smooth="yes"/>
      <point x="79" y="461"/>
      <point x="96" y="476"/>
      <point x="116" y="476" type="curve" smooth="yes"/>
      <point x="134" y="476"/>
      <point x="134" y="465"/>
      <point x="125" y="434" type="curve" smooth="yes"/>
      <point x="3" y="0" type="line"/>
      <point x="3" y="0"/>
      <point x="180" y="0"/>
      <point x="180" y="0" type="curve"/>
    </contour>
    <contour>
      <point x="181" y="3" type="line"/>
      <point x="239" y="223"/>
      <point x="349" y="471"/>
      <point x="403" y="471" type="curve" smooth="yes"/>
      <point x="416" y="471"/>
      <point x="417" y="453"/>
      <point x="405" y="417" type="curve" smooth="yes"/>
      <point x="319" y="158" type="line" smooth="yes"/>
      <point x="296" y="88"/>
      <point x="300" y="50"/>
      <point x="320" y="22" type="curve" smooth="yes"/>
      <point x="337" y="-2"/>
      <point x="369" y="-14"/>
      <point x="410" y="-14" type="curve" smooth="yes"/>
      <point x="463" y="-14"/>
      <point x="524" y="5"/>
      <point x="553" y="89" type="curve" smooth="yes"/>
      <point x="578" y="162" type="line"/>
      <point x="559" y="162" type="line"/>
      <point x="538" y="106" type="line" smooth="yes"/>
      <point x="517" y="50"/>
      <point x="497" y="43"/>
      <point x="485" y="43" type="curve" smooth="yes"/>
      <point x="476" y="43"/>
      <point x="460" y="47"/>
      <point x="473" y="85" type="curve" smooth="yes"/>
      <point x="572" y="382" type="line" smooth="yes"/>
      <point x="600" y="466"/>
      <point x="587" y="533"/>
      <point x="487" y="533" type="curve" smooth="yes"/>
      <point x="380" y="533"/>
      <point x="311" y="468"/>
      <point x="203" y="143" type="curve"/>
    </contour>
    <contour>
      <point x="229" y="0" type="move" name="bottom"/>
    </contour>
    <contour>
      <point x="354" y="514" type="move" name="top"/>
    </contour>
  </outline>
</glyph>
<glyph name="o" format="1">
  <advance width="557"/>
  <unicode hex="006F"/>
  <outline>
    <contour>
      <point x="358" y="513"/>
      <point x="366" y="506"/>
      <point x="366" y="455" type="curve" smooth="yes"/>
      <point x="366" y="254"/>
      <point x="244" y="6"/>
      <point x="191" y="6" type="curve" smooth="yes"/>
      <point x="178" y="6"/>
      <point x="172" y="20"/>
      <point x="172" y="62" type="curve" smooth="yes"/>
      <point x="172" y="248"/>
      <point x="292" y="513"/>
      <point x="349" y="513" type="curve" smooth="yes"/>
    </contour>
    <contour>
      <point x="6" y="47"/>
      <point x="68" y="-14"/>
      <point x="184" y="-14" type="curve" smooth="yes"/>
      <point x="424" y="-14"/>
      <point x="532" y="206"/>
      <point x="532" y="363" type="curve" smooth="yes"/>
      <point x="532" y="472"/>
      <point x="470" y="533"/>
      <point x="354" y="533" type="curve" smooth="yes"/>
      <point x="114" y="533"/>
      <point x="6" y="313"/>
      <point x="6" y="156" type="curve" smooth="yes"/>
    </contour>
    <contour>
      <point x="180" y="0" type="move" name="bottom"/>
    </contour>
    <contour>
      <point x="354" y="514" type="move" name="top"/>
    </contour>
  </outline>
</glyph>
<glyph name="p" format="1">
  <advance width="605"/>
  <unicode hex="0070"/>
  <outline>
    <contour>
      <point x="384" y="466"/>
      <point x="394" y="456"/>
      <point x="394" y="385" type="curve" smooth="yes"/>
      <point x="394" y="220"/>
      <point x="302" y="19"/>
      <point x="212" y="19" type="curve" smooth="yes"/>
      <point x="198" y="19"/>
      <point x="189" y="22"/>
      <point x="178" y="26" type="curve"/>
      <point x="171" y="13" type="line"/>
      <point x="192" y="-2"/>
      <point x="232" y="-14"/>
      <point x="277" y="-14" type="curve" smooth="yes"/>
      <point x="470" y="-14"/>
      <point x="580" y="214"/>
      <point x="580" y="370" type="curve" smooth="yes"/>
      <point x="580" y="474"/>
      <point x="536" y="533"/>
      <point x="443" y="533" type="curve" smooth="yes"/>
      <point x="367" y="533"/>
      <point x="311" y="474"/>
      <point x="263" y="336" type="curve"/>
      <point x="244" y="238" type="line"/>
      <point x="273" y="361"/>
      <point x="327" y="466"/>
      <point x="370" y="466" type="curve" smooth="yes"/>
    </contour>
    <contour>
      <point x="-21" y="-98" type="line" smooth="yes"/>
      <point x="-34" y="-145"/>
      <point x="-51" y="-160"/>
      <point x="-99" y="-160" type="curve"/>
      <point x="-105" y="-181" type="line"/>
      <point x="-74" y="-180"/>
      <point x="-6" y="-177"/>
      <point x="56" y="-177" type="curve" smooth="yes"/>
      <point x="126" y="-177"/>
      <point x="195" y="-180"/>
      <point x="230" y="-181" type="curve"/>
      <point x="236" y="-160" type="line"/>
      <point x="165" y="-159"/>
      <point x="139" y="-144"/>
      <point x="161" y="-67" type="curve" smooth="yes"/>
      <point x="374" y="690" type="line"/>
      <point x="316" y="671"/>
      <point x="257" y="658"/>
      <point x="187" y="652" type="curve"/>
    </contour>
    <contour>
      <point x="14" y="333" type="line"/>
      <point x="88" y="414"/>
      <point x="149" y="495"/>
      <point x="190" y="636" type="curve"/>
      <point x="187" y="652" type="line"/>
      <point x="127" y="489"/>
      <point x="72" y="424"/>
      <point x="3" y="346" type="curve"/>
    </contour>
  </outline>
</glyph>
<glyph name="q" format="1">
  <advance width="581"/>
  <unicode hex="0071"/>
  <outline>
    <contour>
      <point x="565" y="467" type="line" smooth="yes"/>
      <point x="571" y="488"/>
      <point x="578" y="508"/>
      <point x="587" y="526" type="curve"/>
      <point x="572" y="533" type="line"/>
      <point x="519" y="513"/>
      <point x="454" y="495"/>
      <point x="402" y="510" type="curve"/>
      <point x="240" y="-85" type="line" smooth="yes"/>
      <point x="227" y="-133"/>
      <point x="204" y="-158"/>
      <point x="138" y="-160" type="curve"/>
      <point x="132" y="-181" type="line"/>
      <point x="165" y="-180"/>
      <point x="237" y="-177"/>
      <point x="303" y="-177" type="curve" smooth="yes"/>
      <point x="369" y="-177"/>
      <point x="439" y="-180"/>
      <point x="472" y="-181" type="curve"/>
      <point x="478" y="-160" type="line"/>
      <point x="421" y="-156"/>
      <point x="403" y="-137"/>
      <point x="417" y="-86" type="curve" smooth="yes"/>
    </contour>
    <contour>
      <point x="196" y="63"/>
      <point x="188" y="72"/>
      <point x="188" y="110" type="curve" smooth="yes"/>
      <point x="188" y="252"/>
      <point x="280" y="500"/>
      <point x="370" y="500" type="curve" smooth="yes"/>
      <point x="384" y="500"/>
      <point x="393" y="497"/>
      <point x="404" y="493" type="curve"/>
      <point x="411" y="506" type="line"/>
      <point x="394" y="521"/>
      <point x="362" y="533"/>
      <point x="325" y="533" type="curve" smooth="yes"/>
      <point x="140" y="533"/>
      <point x="2" y="305"/>
      <point x="2" y="149" type="curve" smooth="yes"/>
      <point x="2" y="45"/>
      <point x="46" y="-14"/>
      <point x="139" y="-14" type="curve" smooth="yes"/>
      <point x="215" y="-14"/>
      <point x="266" y="45"/>
      <point x="319" y="183" type="curve"/>
      <point x="338" y="281" type="line"/>
      <point x="309" y="163"/>
      <point x="255" y="63"/>
      <point x="212" y="63" type="curve"/>
    </contour>
  </outline>
</glyph>
<glyph name="r" format="1">
  <advance width="499"/>
  <unicode hex="0072"/>
  <outline>
    <contour>
      <point x="283" y="393" type="line" smooth="yes"/>
      <point x="298" y="457"/>
      <point x="287" y="533"/>
      <point x="196" y="533" type="curve" smooth="yes"/>
      <point x="127" y="533"/>
      <point x="74" y="505"/>
      <point x="47" y="430" type="curve" smooth="yes"/>
      <point x="19" y="352" type="line"/>
      <point x="38" y="352" type="line"/>
      <point x="61" y="413" type="line" smooth="yes"/>
      <point x="79" y="461"/>
      <point x="96" y="476"/>
      <point x="116" y="476" type="curve" smooth="yes"/>
      <point x="130" y="476"/>
      <point x="133" y="464"/>
      <point x="125" y="434" type="curve" smooth="yes"/>
      <point x="3" y="0" type="line"/>
      <point x="3" y="0"/>
      <point x="180" y="0"/>
      <point x="180" y="0" type="curve"/>
    </contour>
    <contour>
      <point x="440" y="513"/>
      <point x="445" y="511"/>
      <point x="449" y="510" type="curve"/>
      <point x="390" y="499"/>
      <point x="340" y="445"/>
      <point x="340" y="386" type="curve" smooth="yes"/>
      <point x="340" y="337"/>
      <point x="366" y="311"/>
      <point x="415" y="311" type="curve" smooth="yes"/>
      <point x="481" y="311"/>
      <point x="528" y="369"/>
      <point x="528" y="436" type="curve" smooth="yes"/>
      <point x="528" y="490"/>
      <point x="493" y="533"/>
      <point x="431" y="533" type="curve" smooth="yes"/>
      <point x="325" y="533"/>
      <point x="280" y="454"/>
      <point x="201" y="143" type="curve"/>
      <point x="180" y="3" type="line"/>
      <point x="291" y="501"/>
      <point x="371" y="513"/>
      <point x="435" y="513" type="curve" smooth="yes"/>
    </contour>
    <contour>
      <point x="86" y="0" type="move" name="bottom"/>
    </contour>
    <contour>
      <point x="303" y="514" type="move" name="top"/>
    </contour>
  </outline>
</glyph>
<glyph name="s" format="1">
  <advance width="446"/>
  <unicode hex="0073"/>
  <outline>
    <contour>
      <point x="93" y="34"/>
      <point x="112" y="72"/>
      <point x="112" y="115" type="curve" smooth="yes"/>
      <point x="112" y="168"/>
      <point x="86" y="203"/>
      <point x="47" y="203" type="curve" smooth="yes"/>
      <point x="5" y="203"/>
      <point x="-21" y="163"/>
      <point x="-21" y="114" type="curve" smooth="yes"/>
      <point x="-21" y="15"/>
      <point x="70" y="-14"/>
      <point x="164" y="-14" type="curve" smooth="yes"/>
      <point x="296" y="-14"/>
      <point x="364" y="54"/>
      <point x="364" y="136" type="curve" smooth="yes"/>
      <point x="364" y="181"/>
      <point x="348" y="222"/>
      <point x="304" y="297" type="curve" smooth="yes"/>
      <point x="276" y="345"/>
      <point x="244" y="388"/>
      <point x="245" y="433" type="curve" smooth="yes"/>
      <point x="246" y="483"/>
      <point x="269" y="511"/>
      <point x="316" y="511" type="curve" smooth="yes"/>
      <point x="327" y="511"/>
      <point x="337" y="509"/>
      <point x="341" y="507" type="curve"/>
      <point x="326" y="491"/>
      <point x="309" y="455"/>
      <point x="309" y="413" type="curve" smooth="yes"/>
      <point x="309" y="364"/>
      <point x="333" y="329"/>
      <point x="373" y="329" type="curve" smooth="yes"/>
      <point x="420" y="329"/>
      <point x="444" y="377"/>
      <point x="444" y="418" type="curve" smooth="yes"/>
      <point x="444" y="509"/>
      <point x="356" y="533"/>
      <point x="272" y="533" type="curve" smooth="yes"/>
      <point x="138" y="533"/>
      <point x="73" y="467"/>
      <point x="73" y="382" type="curve" smooth="yes"/>
      <point x="73" y="326"/>
      <point x="101" y="284"/>
      <point x="133" y="232" type="curve" smooth="yes"/>
      <point x="167" y="177"/>
      <point x="191" y="128"/>
      <point x="191" y="83" type="curve" smooth="yes"/>
      <point x="191" y="36"/>
      <point x="160" y="7"/>
      <point x="119" y="7" type="curve" smooth="yes"/>
      <point x="106" y="7"/>
      <point x="95" y="9"/>
      <point x="84" y="14" type="curve"/>
    </contour>
    <contour>
      <point x="143" y="0" type="move" name="bottom"/>
    </contour>
    <contour>
      <point x="290" y="514" type="move" name="top"/>
    </contour>
  </outline>
</glyph>
<glyph name="t" format="1">
  <advance width="365"/>
  <unicode hex="0074"/>
  <outline>
    <contour>
      <point x="49" y="514" type="line"/>
      <point x="44" y="494" type="line"/>
      <point x="415" y="494" type="line"/>
      <point x="418" y="514" type="line"/>
    </contour>
    <contour>
      <point x="367" y="680" type="line"/>
      <point x="312" y="671"/>
      <point x="258" y="667"/>
      <point x="185" y="666" type="curve"/>
      <point x="39" y="158" type="line" smooth="yes"/>
      <point x="12" y="64"/>
      <point x="39" y="-14"/>
      <point x="140" y="-14" type="curve" smooth="yes"/>
      <point x="217" y="-14"/>
      <point x="273" y="31"/>
      <point x="299" y="107" type="curve" smooth="yes"/>
      <point x="318" y="162" type="line"/>
      <point x="299" y="162" type="line"/>
      <point x="283" y="119" type="line" smooth="yes"/>
      <point x="267" y="76"/>
      <point x="238" y="43"/>
      <point x="211" y="43" type="curve" smooth="yes"/>
      <point x="193" y="43"/>
      <point x="185" y="57"/>
      <point x="193" y="85" type="curve" smooth="yes"/>
    </contour>
    <contour>
      <point x="117" y="0" type="move" name="bottom"/>
    </contour>
    <contour>
      <point x="183" y="257" type="move" name="center"/>
    </contour>
    <contour>
      <point x="370" y="514" type="move" name="right"/>
    </contour>
    <contour>
      <point x="225" y="514" type="move" name="top"/>
    </contour>
  </outline>
</glyph>
<glyph name="u" format="1">
  <advance width="617"/>
  <unicode hex="0075"/>
  <outline>
    <contour>
      <point x="419" y="516" type="line"/>
      <point x="361" y="296"/>
      <point x="250" y="48"/>
      <point x="196" y="48" type="curve" smooth="yes"/>
      <point x="183" y="48"/>
      <point x="182" y="66"/>
      <point x="194" y="102" type="curve" smooth="yes"/>
      <point x="280" y="361" type="line" smooth="yes"/>
      <point x="319" y="478"/>
      <point x="278" y="533"/>
      <point x="189" y="533" type="curve" smooth="yes"/>
      <point x="136" y="533"/>
      <point x="75" y="514"/>
      <point x="46" y="430" type="curve" smooth="yes"/>
      <point x="21" y="357" type="line"/>
      <point x="40" y="357" type="line"/>
      <point x="61" y="413" type="line" smooth="yes"/>
      <point x="82" y="469"/>
      <point x="102" y="476"/>
      <point x="114" y="476" type="curve" smooth="yes"/>
      <point x="123" y="476"/>
      <point x="139" y="472"/>
      <point x="126" y="434" type="curve" smooth="yes"/>
      <point x="29" y="137" type="line" smooth="yes"/>
      <point x="-4" y="37"/>
      <point x="29" y="-14"/>
      <point x="110" y="-14" type="curve" smooth="yes"/>
      <point x="217" y="-14"/>
      <point x="286" y="43"/>
      <point x="391" y="354" type="curve"/>
    </contour>
    <contour>
      <point x="600" y="533" type="line"/>
      <point x="548" y="524"/>
      <point x="488" y="520"/>
      <point x="419" y="519" type="curve"/>
      <point x="316" y="126" type="line" smooth="yes"/>
      <point x="306" y="88"/>
      <point x="304" y="52"/>
      <point x="320" y="25" type="curve" smooth="yes"/>
      <point x="334" y="1"/>
      <point x="362" y="-14"/>
      <point x="409" y="-14" type="curve" smooth="yes"/>
      <point x="469" y="-14"/>
      <point x="525" y="14"/>
      <point x="552" y="89" type="curve" smooth="yes"/>
      <point x="580" y="167" type="line"/>
      <point x="561" y="167" type="line"/>
      <point x="538" y="106" type="line" smooth="yes"/>
      <point x="520" y="58"/>
      <point x="503" y="43"/>
      <point x="483" y="43" type="curve" smooth="yes"/>
      <point x="465" y="43"/>
      <point x="465" y="54"/>
      <point x="474" y="85" type="curve" smooth="yes"/>
    </contour>
    <contour>
      <point x="274" y="0" type="move" name="bottom"/>
    </contour>
    <contour>
      <point x="472" y="0" type="move" name="ogonek"/>
    </contour>
    <contour>
      <point x="347" y="514" type="move" name="top"/>
    </contour>
  </outline>
</glyph>
<glyph name="v" format="1">
  <advance width="519"/>
  <unicode hex="0076"/>
  <outline>
    <contour>
      <point x="430" y="166"/>
      <point x="352" y="39"/>
      <point x="248" y="39" type="curve" smooth="yes"/>
      <point x="213" y="39"/>
      <point x="202" y="62"/>
      <point x="202" y="107" type="curve" smooth="yes"/>
      <point x="202" y="204"/>
      <point x="264" y="386"/>
      <point x="352" y="529" type="curve"/>
      <point x="331" y="539" type="line"/>
      <point x="321" y="520" type="line"/>
      <point x="293" y="506"/>
      <point x="269" y="505"/>
      <point x="256" y="505" type="curve" smooth="yes"/>
      <point x="198" y="505"/>
      <point x="184" y="534"/>
      <point x="146" y="534" type="curve" smooth="yes"/>
      <point x="111" y="534"/>
      <point x="76" y="511"/>
      <point x="52" y="426" type="curve" smooth="yes"/>
      <point x="30" y="353" type="line"/>
      <point x="49" y="353" type="line"/>
      <point x="56" y="374" type="line" smooth="yes"/>
      <point x="64" y="400"/>
      <point x="72" y="412"/>
      <point x="89" y="412" type="curve" smooth="yes"/>
      <point x="107" y="412"/>
      <point x="121" y="397"/>
      <point x="142" y="397" type="curve" smooth="yes"/>
      <point x="199" y="397"/>
      <point x="220" y="487"/>
      <point x="304" y="490" type="curve"/>
      <point x="137" y="365"/>
      <point x="12" y="239"/>
      <point x="12" y="110" type="curve" smooth="yes"/>
      <point x="12" y="49"/>
      <point x="47" y="-14"/>
      <point x="171" y="-14" type="curve" smooth="yes"/>
      <point x="400" y="-14"/>
      <point x="502" y="250"/>
      <point x="502" y="435" type="curve" smooth="yes"/>
      <point x="502" y="496"/>
      <point x="479" y="533"/>
      <point x="426" y="533" type="curve" smooth="yes"/>
      <point x="376" y="533"/>
      <point x="348" y="501"/>
      <point x="348" y="451" type="curve" smooth="yes"/>
      <point x="348" y="383"/>
      <point x="397" y="326"/>
      <point x="463" y="296" type="curve"/>
    </contour>
  </outline>
</glyph>
<glyph name="w" format="1">
  <advance width="676"/>
  <unicode hex="0077"/>
  <outline>
    <contour>
      <point x="290" y="58" type="line"/>
      <point x="273" y="46"/>
      <point x="252" y="39"/>
      <point x="232" y="39" type="curve" smooth="yes"/>
      <point x="196" y="39"/>
      <point x="185" y="63"/>
      <point x="185" y="102" type="curve" smooth="yes"/>
      <point x="185" y="210"/>
      <point x="272" y="386"/>
      <point x="395" y="529" type="curve"/>
      <point x="374" y="539" type="line"/>
      <point x="364" y="520" type="line"/>
      <point x="332" y="506"/>
      <point x="304" y="505"/>
      <point x="290" y="505" type="curve" smooth="yes"/>
      <point x="222" y="505"/>
      <point x="201" y="528"/>
      <point x="161" y="528" type="curve" smooth="yes"/>
      <point x="126" y="528"/>
      <point x="90" y="510"/>
      <point x="65" y="426" type="curve" smooth="yes"/>
      <point x="43" y="353" type="line"/>
      <point x="62" y="353" type="line"/>
      <point x="69" y="374" type="line" smooth="yes"/>
      <point x="78" y="400"/>
      <point x="85" y="412"/>
      <point x="102" y="412" type="curve" smooth="yes"/>
      <point x="121" y="412"/>
      <point x="132" y="397"/>
      <point x="157" y="397" type="curve" smooth="yes"/>
      <point x="218" y="397"/>
      <point x="250" y="490"/>
      <point x="350" y="490" type="curve"/>
      <point x="353" y="495" type="line"/>
      <point x="141" y="335"/>
      <point x="-5" y="237"/>
      <point x="-5" y="114" type="curve" smooth="yes"/>
      <point x="-5" y="41"/>
      <point x="45" y="-14"/>
      <point x="136" y="-14" type="curve" smooth="yes"/>
      <point x="211" y="-14"/>
      <point x="262" y="10"/>
      <point x="299" y="45" type="curve"/>
    </contour>
    <contour>
      <point x="422" y="69"/>
      <point x="390" y="114"/>
      <point x="390" y="178" type="curve" smooth="yes"/>
      <point x="390" y="259"/>
      <point x="414" y="337"/>
      <point x="438" y="337" type="curve" smooth="yes"/>
      <point x="449" y="337"/>
      <point x="454" y="318"/>
      <point x="454" y="290" type="curve" smooth="yes"/>
      <point x="454" y="215"/>
      <point x="418" y="134"/>
      <point x="362" y="80" type="curve"/>
      <point x="369" y="63" type="line"/>
      <point x="440" y="127"/>
      <point x="477" y="209"/>
      <point x="477" y="296" type="curve" smooth="yes"/>
      <point x="477" y="318"/>
      <point x="474" y="359"/>
      <point x="436" y="359" type="curve" smooth="yes"/>
      <point x="369" y="359"/>
      <point x="266" y="249"/>
      <point x="266" y="123" type="curve" smooth="yes"/>
      <point x="266" y="17"/>
      <point x="339" y="-14"/>
      <point x="408" y="-14" type="curve" smooth="yes"/>
      <point x="553" y="-14"/>
      <point x="633" y="157"/>
      <point x="633" y="322" type="curve" smooth="yes"/>
      <point x="633" y="393"/>
      <point x="614" y="533"/>
      <point x="526" y="533" type="curve" smooth="yes"/>
      <point x="476" y="533"/>
      <point x="457" y="496"/>
      <point x="457" y="468" type="curve" smooth="yes"/>
      <point x="457" y="381"/>
      <point x="543" y="338"/>
      <point x="612" y="306" type="curve"/>
      <point x="608" y="184"/>
      <point x="567" y="69"/>
      <point x="483" y="69" type="curve" smooth="yes"/>
    </contour>
    <contour>
      <point x="389" y="514" type="move" name="top"/>
    </contour>
  </outline>
</glyph>
<glyph name="x" format="1">
  <advance width="591"/>
  <unicode hex="0078"/>
  <outline>
    <contour>
      <point x="359" y="417" type="line" smooth="yes"/>
      <point x="349" y="510"/>
      <point x="305" y="533"/>
      <point x="232" y="533" type="curve" smooth="yes"/>
      <point x="175" y="533"/>
      <point x="107" y="519"/>
      <point x="79" y="431" type="curve" smooth="yes"/>
      <point x="54" y="358" type="line"/>
      <point x="73" y="358" type="line"/>
      <point x="86" y="395" type="line" smooth="yes"/>
      <point x="109" y="463"/>
      <point x="125" y="470"/>
      <point x="141" y="470" type="curve" smooth="yes"/>
      <point x="158" y="470"/>
      <point x="172" y="465"/>
      <point x="177" y="431" type="curve" smooth="yes"/>
      <point x="217" y="88" type="line" smooth="yes"/>
      <point x="225" y="9"/>
      <point x="277" y="-14"/>
      <point x="346" y="-14" type="curve" smooth="yes"/>
      <point x="398" y="-14"/>
      <point x="466" y="-1"/>
      <point x="494" y="88" type="curve" smooth="yes"/>
      <point x="519" y="161" type="line"/>
      <point x="500" y="161" type="line"/>
      <point x="487" y="124" type="line" smooth="yes"/>
      <point x="464" y="56"/>
      <point x="447" y="42"/>
      <point x="430" y="42" type="curve" smooth="yes"/>
      <point x="413" y="42"/>
      <point x="402" y="53"/>
      <point x="396" y="88" type="curve" smooth="yes"/>
    </contour>
    <contour>
      <point x="440" y="383"/>
      <point x="485" y="359"/>
      <point x="527" y="359" type="curve" smooth="yes"/>
      <point x="580" y="359"/>
      <point x="617" y="396"/>
      <point x="617" y="448" type="curve" smooth="yes"/>
      <point x="617" y="502"/>
      <point x="578" y="533"/>
      <point x="524" y="533" type="curve" smooth="yes"/>
      <point x="487" y="533"/>
      <point x="444" y="521"/>
      <point x="408" y="472" type="curve" smooth="yes"/>
      <point x="354" y="398"/>
      <point x="321" y="285"/>
      <point x="317" y="265" type="curve"/>
      <point x="317" y="265"/>
      <point x="337" y="264"/>
      <point x="337" y="264" type="curve"/>
      <point x="352" y="320"/>
      <point x="379" y="399"/>
      <point x="421" y="456" type="curve"/>
    </contour>
    <contour>
      <point x="132" y="121"/>
      <point x="99" y="160"/>
      <point x="46" y="160" type="curve" smooth="yes"/>
      <point x="-4" y="160"/>
      <point x="-46" y="125"/>
      <point x="-46" y="66" type="curve" smooth="yes"/>
      <point x="-46" y="17"/>
      <point x="-11" y="-14"/>
      <point x="46" y="-14" type="curve" smooth="yes"/>
      <point x="83" y="-14"/>
      <point x="126" y="-1"/>
      <point x="163" y="47" type="curve" smooth="yes"/>
      <point x="208" y="106"/>
      <point x="240" y="198"/>
      <point x="254" y="254" type="curve"/>
      <point x="254" y="254"/>
      <point x="234" y="255"/>
      <point x="234" y="255" type="curve"/>
      <point x="219" y="199"/>
      <point x="192" y="120"/>
      <point x="150" y="63" type="curve"/>
    </contour>
    <contour>
      <point x="152" y="0" type="move" name="bottom"/>
    </contour>
    <contour>
      <point x="321" y="514" type="move" name="top"/>
    </contour>
  </outline>
</glyph>
<glyph name="y" format="1">
  <advance width="483"/>
  <unicode hex="0079"/>
  <outline>
    <contour>
      <point x="277" y="414" type="line" smooth="yes"/>
      <point x="263" y="507"/>
      <point x="222" y="533"/>
      <point x="159" y="533" type="curve" smooth="yes"/>
      <point x="102" y="533"/>
      <point x="58" y="511"/>
      <point x="30" y="430" type="curve" smooth="yes"/>
      <point x="5" y="357" type="line"/>
      <point x="24" y="357" type="line"/>
      <point x="45" y="413" type="line" smooth="yes"/>
      <point x="65" y="466"/>
      <point x="72" y="476"/>
      <point x="85" y="476" type="curve" smooth="yes"/>
      <point x="97" y="476"/>
      <point x="100" y="466"/>
      <point x="106" y="433" type="curve" smooth="yes"/>
      <point x="190" y="-78" type="line"/>
      <point x="323" y="75" type="line"/>
    </contour>
    <contour>
      <point x="38" y="-80"/>
      <point x="-3" y="-49"/>
      <point x="-52" y="-49" type="curve" smooth="yes"/>
      <point x="-102" y="-49"/>
      <point x="-132" y="-83"/>
      <point x="-132" y="-122" type="curve" smooth="yes"/>
      <point x="-132" y="-163"/>
      <point x="-103" y="-188"/>
      <point x="-49" y="-188" type="curve" smooth="yes"/>
      <point x="-33" y="-188"/>
      <point x="-11" y="-185"/>
      <point x="10" y="-180" type="curve" smooth="yes"/>
      <point x="99" y="-159"/>
      <point x="193" y="-97"/>
      <point x="278" y="4" type="curve" smooth="yes"/>
      <point x="385" y="131"/>
      <point x="475" y="317"/>
      <point x="475" y="436" type="curve" smooth="yes"/>
      <point x="475" y="496"/>
      <point x="452" y="533"/>
      <point x="399" y="533" type="curve" smooth="yes"/>
      <point x="349" y="533"/>
      <point x="321" y="501"/>
      <point x="321" y="451" type="curve" smooth="yes"/>
      <point x="321" y="389"/>
      <point x="364" y="334"/>
      <point x="425" y="300" type="curve"/>
      <point x="397" y="220"/>
      <point x="345" y="119"/>
      <point x="275" y="31" type="curve" smooth="yes"/>
      <point x="204" y="-59"/>
      <point x="136" y="-108"/>
      <point x="71" y="-137" type="curve"/>
    </contour>
    <contour>
      <point x="307" y="514" type="move" name="top"/>
    </contour>
  </outline>
</glyph>
<glyph name="z" format="1">
  <advance width="476"/>
  <unicode hex="007A"/>
  <outline>
    <contour>
      <point x="536" y="518" type="line"/>
      <point x="505" y="518" type="line"/>
      <point x="478" y="483"/>
      <point x="454" y="471"/>
      <point x="413" y="471" type="curve" smooth="yes"/>
      <point x="327" y="471"/>
      <point x="296" y="528"/>
      <point x="204" y="528" type="curve" smooth="yes"/>
      <point x="97" y="528"/>
      <point x="43" y="458"/>
      <point x="43" y="390" type="curve" smooth="yes"/>
      <point x="43" y="332"/>
      <point x="83" y="298"/>
      <point x="154" y="282" type="curve"/>
      <point x="160" y="297" type="line"/>
      <point x="129" y="311"/>
      <point x="116" y="321"/>
      <point x="116" y="344" type="curve" smooth="yes"/>
      <point x="116" y="357"/>
      <point x="125" y="369"/>
      <point x="142" y="369" type="curve" smooth="yes"/>
      <point x="171" y="369"/>
      <point x="181" y="337"/>
      <point x="227" y="337" type="curve" smooth="yes"/>
      <point x="289" y="337"/>
      <point x="368" y="432"/>
      <point x="448" y="461" type="curve"/>
      <point x="-61" y="0" type="line"/>
      <point x="-30" y="0" type="line"/>
      <point x="-2" y="37"/>
      <point x="25" y="47"/>
      <point x="61" y="47" type="curve" smooth="yes"/>
      <point x="151" y="47"/>
      <point x="187" y="-14"/>
      <point x="279" y="-14" type="curve" smooth="yes"/>
      <point x="367" y="-14"/>
      <point x="412" y="42"/>
      <point x="412" y="113" type="curve" smooth="yes"/>
      <point x="412" y="173"/>
      <point x="379" y="208"/>
      <point x="301" y="226" type="curve"/>
      <point x="295" y="211" type="line"/>
      <point x="316" y="205"/>
      <point x="339" y="192"/>
      <point x="339" y="164" type="curve" smooth="yes"/>
      <point x="339" y="155"/>
      <point x="332" y="139"/>
      <point x="314" y="139" type="curve" smooth="yes"/>
      <point x="282" y="139"/>
      <point x="275" y="171"/>
      <point x="227" y="171" type="curve" smooth="yes"/>
      <point x="172" y="171"/>
      <point x="106" y="92"/>
      <point x="39" y="67" type="curve"/>
    </contour>
    <contour>
      <point x="150" y="0" type="move" name="bottom"/>
    </contour>
    <contour>
      <point x="302" y="514" type="move" name="top"/>
    </contour>
  </outline>
</glyph>
<glyph name="bar" format="1">
  <advance width="403"/>
  <unicode hex="007C"/>
  <outline>
    <contour>
      <point x="151" y="858" type="line"/>
      <point x="151" y="-195" type="line"/>
      <point x="271" y="-195" type="line"/>
      <point x="271" y="858" type="line"/>
    </contour>
  </outline>
</glyph>
<glyph name="braceright" format="1">
  <advance width="397"/>
  <unicode hex="007D"/>
  <outline>
    <contour>
      <point x="143" y="763" type="line"/>
      <point x="181" y="762"/>
      <point x="200" y="754"/>
      <point x="200" y="713" type="curve" smooth="yes"/>
      <point x="201" y="682"/>
      <point x="191" y="632"/>
      <point x="171" y="551" type="curve" smooth="yes"/>
      <point x="128" y="378"/>
      <point x="164" y="333"/>
      <point x="340" y="299" type="curve"/>
      <point x="174" y="275"/>
      <point x="91" y="228"/>
      <point x="45" y="47" type="curve" smooth="yes"/>
      <point x="-5" y="-150"/>
      <point x="-22" y="-168"/>
      <point x="-87" y="-169" type="curve"/>
      <point x="-92" y="-188" type="line"/>
      <point x="87" y="-188"/>
      <point x="178" y="-147"/>
      <point x="225" y="47" type="curve" smooth="yes"/>
      <point x="270" y="234"/>
      <point x="299" y="285"/>
      <point x="362" y="290" type="curve" smooth="yes"/>
      <point x="367" y="290" type="line"/>
      <point x="370" y="308" type="line"/>
      <point x="365" y="308" type="line" smooth="yes"/>
      <point x="334" y="310"/>
      <point x="319" y="326"/>
      <point x="318" y="367" type="curve" smooth="yes"/>
      <point x="318" y="404"/>
      <point x="329" y="462"/>
      <point x="351" y="551" type="curve" smooth="yes"/>
      <point x="392" y="716"/>
      <point x="383" y="785"/>
      <point x="148" y="782" type="curve"/>
    </contour>
  </outline>
</glyph>
<glyph name="cent" format="1">
  <advance width="507"/>
  <unicode hex="00A2"/>
  <outline>
    <contour>
      <point x="393" y="708" type="line"/>
      <point x="371" y="708" type="line"/>
      <point x="132" y="-181" type="line"/>
      <point x="154" y="-181" type="line"/>
    </contour>
    <component base="c" xOffset="4"/>
  </outline>
</glyph>
<glyph name="sterling" format="1">
  <advance width="704"/>
  <unicode hex="00A3"/>
  <outline>
    <contour>
      <point x="58" y="317" type="line"/>
      <point x="52" y="297" type="line"/>
      <point x="487" y="297" type="line"/>
      <point x="493" y="317" type="line"/>
    </contour>
    <contour>
      <point x="85" y="417" type="line"/>
      <point x="79" y="397" type="line"/>
      <point x="514" y="397" type="line"/>
      <point x="520" y="417" type="line"/>
    </contour>
    <contour>
      <point x="562" y="721"/>
      <point x="571" y="716"/>
      <point x="577" y="710" type="curve"/>
      <point x="518" y="698"/>
      <point x="478" y="648"/>
      <point x="478" y="585" type="curve" smooth="yes"/>
      <point x="478" y="531"/>
      <point x="513" y="504"/>
      <point x="567" y="504" type="curve" smooth="yes"/>
      <point x="629" y="504"/>
      <point x="676" y="553"/>
      <point x="676" y="629" type="curve" smooth="yes"/>
      <point x="676" y="689"/>
      <point x="626" y="736"/>
      <point x="549" y="736" type="curve" smooth="yes"/>
      <point x="343" y="736"/>
      <point x="231" y="607"/>
      <point x="187" y="439" type="curve" smooth="yes"/>
      <point x="139" y="258" type="line" smooth="yes"/>
      <point x="114" y="163"/>
      <point x="91" y="114"/>
      <point x="68" y="69" type="curve"/>
      <point x="-3" y="58"/>
      <point x="-31" y="19"/>
      <point x="-31" y="-4" type="curve" smooth="yes"/>
      <point x="-31" y="-12"/>
      <point x="-27" y="-14"/>
      <point x="-18" y="-14" type="curve" smooth="yes"/>
      <point x="18" y="-14"/>
      <point x="58" y="5"/>
      <point x="81" y="52" type="curve"/>
      <point x="108" y="61"/>
      <point x="133" y="63"/>
      <point x="161" y="63" type="curve" smooth="yes"/>
      <point x="284" y="63"/>
      <point x="334" y="-14"/>
      <point x="460" y="-14" type="curve" smooth="yes"/>
      <point x="559" y="-14"/>
      <point x="621" y="42"/>
      <point x="621" y="119" type="curve" smooth="yes"/>
      <point x="621" y="192"/>
      <point x="546" y="224"/>
      <point x="475" y="235" type="curve"/>
      <point x="471" y="216" type="line"/>
      <point x="526" y="205"/>
      <point x="544" y="188"/>
      <point x="544" y="169" type="curve" smooth="yes"/>
      <point x="544" y="152"/>
      <point x="532" y="146"/>
      <point x="515" y="146" type="curve" smooth="yes"/>
      <point x="465" y="146"/>
      <point x="415" y="182"/>
      <point x="312" y="182" type="curve" smooth="yes"/>
      <point x="233" y="182"/>
      <point x="156" y="137"/>
      <point x="88" y="68" type="curve"/>
      <point x="175" y="222"/>
      <point x="331" y="211"/>
      <point x="384" y="415" type="curve" smooth="yes"/>
      <point x="433" y="603" type="line" smooth="yes"/>
      <point x="456" y="691"/>
      <point x="491" y="722"/>
      <point x="547" y="721" type="curve" smooth="yes"/>
    </contour>
  </outline>
</glyph>
<glyph name="currency" format="1">
  <advance width="717"/>
  <unicode hex="00A4"/>
  <outline>
    <contour>
      <point x="269" y="368"/>
      <point x="311" y="405"/>
      <point x="362" y="405" type="curve" smooth="yes"/>
      <point x="413" y="405"/>
      <point x="455" y="368"/>
      <point x="455" y="300" type="curve" smooth="yes"/>
      <point x="455" y="232"/>
      <point x="413" y="196"/>
      <point x="362" y="196" type="curve" smooth="yes"/>
      <point x="311" y="196"/>
      <point x="269" y="232"/>
      <point x="269" y="300" type="curve" smooth="yes"/>
    </contour>
    <contour>
      <point x="198" y="15" type="line"/>
      <point x="266" y="83" type="line"/>
      <point x="295" y="70"/>
      <point x="326" y="64"/>
      <point x="360" y="64" type="curve" smooth="yes"/>
      <point x="393" y="64"/>
      <point x="424" y="71"/>
      <point x="453" y="83" type="curve"/>
      <point x="522" y="14" type="line"/>
      <point x="645" y="137" type="line"/>
      <point x="577" y="205" type="line"/>
      <point x="590" y="234"/>
      <point x="597" y="266"/>
      <point x="597" y="300" type="curve" smooth="yes"/>
      <point x="597" y="333"/>
      <point x="590" y="365"/>
      <point x="577" y="394" type="curve"/>
      <point x="645" y="462" type="line"/>
      <point x="522" y="585" type="line"/>
      <point x="454" y="517" type="line"/>
      <point x="425" y="530"/>
      <point x="393" y="537"/>
      <point x="360" y="537" type="curve" smooth="yes"/>
      <point x="326" y="537"/>
      <point x="294" y="530"/>
      <point x="265" y="517" type="curve"/>
      <point x="198" y="584" type="line"/>
      <point x="75" y="461" type="line"/>
      <point x="143" y="393" type="line"/>
      <point x="131" y="364"/>
      <point x="124" y="333"/>
      <point x="124" y="300" type="curve" smooth="yes"/>
      <point x="124" y="266"/>
      <point x="130" y="235"/>
      <point x="143" y="206" type="curve"/>
      <point x="75" y="138" type="line"/>
    </contour>
  </outline>
</glyph>
<glyph name="brokenbar" format="1">
  <advance width="406"/>
  <unicode hex="00A6"/>
  <outline>
    <contour>
      <point x="273" y="-195" type="line"/>
      <point x="273" y="326" type="line"/>
      <point x="153" y="326" type="line"/>
      <point x="153" y="-195" type="line"/>
    </contour>
    <contour>
      <point x="153" y="858" type="line"/>
      <point x="153" y="384" type="line"/>
      <point x="273" y="384" type="line"/>
      <point x="273" y="858" type="line"/>
    </contour>
  </outline>
</glyph>
<glyph name="section" format="1">
  <advance width="621"/>
  <unicode hex="00A7"/>
  <outline>
    <contour>
      <point x="488" y="730"/>
      <point x="450" y="689"/>
      <point x="450" y="644" type="curve" smooth="yes"/>
      <point x="450" y="608"/>
      <point x="474" y="581"/>
      <point x="522" y="581" type="curve" smooth="yes"/>
      <point x="585" y="581"/>
      <point x="635" y="633"/>
      <point x="635" y="691" type="curve" smooth="yes"/>
      <point x="635" y="771"/>
      <point x="519" y="782"/>
      <point x="464" y="782" type="curve" smooth="yes"/>
      <point x="330" y="782"/>
      <point x="154" y="717"/>
      <point x="154" y="570" type="curve" smooth="yes"/>
      <point x="154" y="506"/>
      <point x="200" y="456"/>
      <point x="297" y="380" type="curve" smooth="yes"/>
      <point x="414" y="290"/>
      <point x="441" y="259"/>
      <point x="427" y="204" type="curve" smooth="yes"/>
      <point x="416" y="158"/>
      <point x="397" y="141"/>
      <point x="361" y="115" type="curve"/>
      <point x="368" y="105" type="line"/>
      <point x="469" y="146"/>
      <point x="588" y="208"/>
      <point x="588" y="327" type="curve" smooth="yes"/>
      <point x="588" y="395"/>
      <point x="533" y="437"/>
      <point x="450" y="507" type="curve" smooth="yes"/>
      <point x="380" y="566"/>
      <point x="341" y="590"/>
      <point x="341" y="643" type="curve" smooth="yes"/>
      <point x="341" y="717"/>
      <point x="401" y="763"/>
      <point x="469" y="763" type="curve" smooth="yes"/>
      <point x="500" y="763"/>
      <point x="525" y="754"/>
      <point x="530" y="749" type="curve"/>
    </contour>
    <contour>
      <point x="122" y="-169"/>
      <point x="97" y="-160"/>
      <point x="92" y="-155" type="curve"/>
      <point x="136" y="-135"/>
      <point x="172" y="-95"/>
      <point x="172" y="-46" type="curve" smooth="yes"/>
      <point x="172" y="-11"/>
      <point x="146" y="13"/>
      <point x="100" y="13" type="curve" smooth="yes"/>
      <point x="36" y="13"/>
      <point x="-12" y="-40"/>
      <point x="-12" y="-98" type="curve" smooth="yes"/>
      <point x="-12" y="-179"/>
      <point x="102" y="-188"/>
      <point x="158" y="-188" type="curve" smooth="yes"/>
      <point x="292" y="-188"/>
      <point x="468" y="-123"/>
      <point x="468" y="24" type="curve" smooth="yes"/>
      <point x="468" y="88"/>
      <point x="422" y="138"/>
      <point x="325" y="214" type="curve" smooth="yes"/>
      <point x="224" y="292"/>
      <point x="192" y="328"/>
      <point x="192" y="369" type="curve" smooth="yes"/>
      <point x="192" y="418"/>
      <point x="226" y="454"/>
      <point x="261" y="479" type="curve"/>
      <point x="254" y="489" type="line"/>
      <point x="153" y="448"/>
      <point x="34" y="386"/>
      <point x="34" y="267" type="curve" smooth="yes"/>
      <point x="34" y="199"/>
      <point x="89" y="157"/>
      <point x="172" y="87" type="curve" smooth="yes"/>
      <point x="242" y="28"/>
      <point x="281" y="4"/>
      <point x="281" y="-49" type="curve" smooth="yes"/>
      <point x="281" y="-123"/>
      <point x="221" y="-169"/>
      <point x="153" y="-169" type="curve" smooth="yes"/>
    </contour>
  </outline>
</glyph>
<glyph name="dieresis" format="1">
  <advance width="390"/>
  <unicode hex="00A8"/>
  <outline>
    <contour>
      <point x="-11" y="629"/>
      <point x="10" y="598"/>
      <point x="63" y="598" type="curve" smooth="yes"/>
      <point x="112" y="598"/>
      <point x="163" y="625"/>
      <point x="163" y="694" type="curve" smooth="yes"/>
      <point x="163" y="740"/>
      <point x="141" y="772"/>
      <point x="88" y="772" type="curve" smooth="yes"/>
      <point x="37" y="772"/>
      <point x="-11" y="743"/>
      <point x="-11" y="674" type="curve" smooth="yes"/>
    </contour>
    <contour>
      <point x="227" y="629"/>
      <point x="248" y="598"/>
      <point x="301" y="598" type="curve" smooth="yes"/>
      <point x="350" y="598"/>
      <point x="401" y="625"/>
      <point x="401" y="694" type="curve" smooth="yes"/>
      <point x="401" y="740"/>
      <point x="379" y="772"/>
      <point x="326" y="772" type="curve" smooth="yes"/>
      <point x="275" y="772"/>
      <point x="227" y="743"/>
      <point x="227" y="674" type="curve" smooth="yes"/>
    </contour>
    <contour>
      <point x="155" y="514" type="move" name="_top"/>
    </contour>
  </outline>
</glyph>
<glyph name="copyright" format="1">
  <advance width="902"/>
  <unicode hex="00A9"/>
  <outline>
    <contour>
      <point x="77" y="164"/>
      <point x="255" y="-14"/>
      <point x="475" y="-14" type="curve" smooth="yes"/>
      <point x="695" y="-14"/>
      <point x="873" y="164"/>
      <point x="873" y="384" type="curve" smooth="yes"/>
      <point x="873" y="604"/>
      <point x="695" y="782"/>
      <point x="475" y="782" type="curve" smooth="yes"/>
      <point x="255" y="782"/>
      <point x="77" y="604"/>
      <point x="77" y="384" type="curve" smooth="yes"/>
    </contour>
    <contour>
      <point x="117" y="586"/>
      <point x="277" y="750"/>
      <point x="475" y="750" type="curve" smooth="yes"/>
      <point x="673" y="750"/>
      <point x="833" y="586"/>
      <point x="833" y="384" type="curve" smooth="yes"/>
      <point x="833" y="182"/>
      <point x="673" y="18"/>
      <point x="475" y="18" type="curve" smooth="yes"/>
      <point x="277" y="18"/>
      <point x="117" y="182"/>
      <point x="117" y="384" type="curve" smooth="yes"/>
    </contour>
    <contour>
      <point x="497" y="190"/>
      <point x="431" y="233"/>
      <point x="431" y="398" type="curve" smooth="yes"/>
      <point x="431" y="585"/>
      <point x="463" y="632"/>
      <point x="530" y="632" type="curve" smooth="yes"/>
      <point x="553" y="632"/>
      <point x="575" y="625"/>
      <point x="587" y="617" type="curve" smooth="yes"/>
      <point x="543" y="605"/>
      <point x="505" y="567"/>
      <point x="505" y="517" type="curve" smooth="yes"/>
      <point x="505" y="464"/>
      <point x="538" y="427"/>
      <point x="597" y="427" type="curve" smooth="yes"/>
      <point x="653" y="427"/>
      <point x="693" y="469"/>
      <point x="693" y="524" type="curve" smooth="yes"/>
      <point x="693" y="622"/>
      <point x="588" y="658"/>
      <point x="501" y="658" type="curve" smooth="yes"/>
      <point x="356" y="658"/>
      <point x="244" y="576"/>
      <point x="244" y="384" type="curve" smooth="yes"/>
      <point x="244" y="182"/>
      <point x="351" y="111"/>
      <point x="485" y="111" type="curve" smooth="yes"/>
      <point x="604" y="111"/>
      <point x="669" y="200"/>
      <point x="694" y="281" type="curve" smooth="yes"/>
      <point x="677" y="287" type="line" smooth="yes"/>
      <point x="633" y="199"/>
      <point x="583" y="190"/>
      <point x="556" y="190" type="curve" smooth="yes"/>
    </contour>
  </outline>
</glyph>
<glyph name="ordfeminine" format="1">
  <advance width="584"/>
  <unicode hex="00AA"/>
  <outline>
    <contour>
      <point x="591" y="722" type="line"/>
      <point x="541" y="716"/>
      <point x="486" y="713"/>
      <point x="421" y="713" type="curve"/>
      <point x="360" y="499" type="line" smooth="yes"/>
      <point x="329" y="390"/>
      <point x="375" y="360"/>
      <point x="443" y="360" type="curve" smooth="yes"/>
      <point x="510" y="360"/>
      <point x="557" y="389"/>
      <point x="579" y="450" type="curve" smooth="yes"/>
      <point x="589" y="478" type="line"/>
      <point x="570" y="478" type="line"/>
      <point x="561" y="453" type="line" smooth="yes"/>
      <point x="553" y="431"/>
      <point x="539" y="422"/>
      <point x="523" y="422" type="curve" smooth="yes"/>
      <point x="501" y="422"/>
      <point x="502" y="440"/>
      <point x="509" y="463" type="curve" smooth="yes"/>
    </contour>
    <contour>
      <point x="282" y="421"/>
      <point x="274" y="438"/>
      <point x="274" y="475" type="curve" smooth="yes"/>
      <point x="274" y="581"/>
      <point x="341" y="698"/>
      <point x="382" y="698" type="curve" smooth="yes"/>
      <point x="395" y="698"/>
      <point x="407" y="686"/>
      <point x="406" y="651" type="curve"/>
      <point x="413" y="667" type="line"/>
      <point x="419" y="717"/>
      <point x="393" y="722"/>
      <point x="368" y="722" type="curve" smooth="yes"/>
      <point x="236" y="722"/>
      <point x="101" y="588"/>
      <point x="101" y="461" type="curve" smooth="yes"/>
      <point x="101" y="393"/>
      <point x="139" y="360"/>
      <point x="210" y="360" type="curve" smooth="yes"/>
      <point x="279" y="360"/>
      <point x="346" y="392"/>
      <point x="386" y="548" type="curve"/>
      <point x="397" y="627" type="line"/>
      <point x="380" y="526"/>
      <point x="332" y="421"/>
      <point x="296" y="421" type="curve" smooth="yes"/>
    </contour>
  </outline>
</glyph>
<glyph name="guillemotleft" format="1">
  <advance width="632"/>
  <unicode hex="00AB"/>
  <outline>
    <contour>
      <point x="384" y="533" type="line"/>
      <point x="268" y="437"/>
      <point x="154" y="347"/>
      <point x="20" y="269" type="curve"/>
      <point x="15" y="249" type="line"/>
      <point x="113" y="171"/>
      <point x="187" y="82"/>
      <point x="257" y="-14" type="curve"/>
      <point x="275" y="-14" type="line"/>
      <point x="276" y="70"/>
      <point x="247" y="206"/>
      <point x="215" y="259" type="curve"/>
      <point x="272" y="312"/>
      <point x="363" y="449"/>
      <point x="402" y="533" type="curve"/>
    </contour>
    <contour>
      <point x="590" y="493" type="line"/>
      <point x="491" y="413"/>
      <point x="391" y="335"/>
      <point x="275" y="269" type="curve"/>
      <point x="270" y="249" type="line"/>
      <point x="356" y="183"/>
      <point x="420" y="106"/>
      <point x="483" y="26" type="curve"/>
      <point x="501" y="26" type="line"/>
      <point x="504" y="98"/>
      <point x="483" y="214"/>
      <point x="461" y="259" type="curve"/>
      <point x="504" y="304"/>
      <point x="579" y="421"/>
      <point x="608" y="493" type="curve"/>
    </contour>
  </outline>
</glyph>
<glyph name="logicalnot" format="1">
  <advance width="636"/>
  <unicode hex="00AC"/>
  <outline>
    <contour>
      <point x="545" y="340" type="line"/>
      <point x="495" y="165" type="line"/>
      <point x="531" y="165" type="line"/>
      <point x="590" y="370" type="line"/>
      <point x="89" y="370" type="line"/>
      <point x="80" y="340" type="line"/>
    </contour>
  </outline>
</glyph>
<glyph name="registered" format="1">
  <advance width="676"/>
  <unicode hex="00AE"/>
  <outline>
    <contour>
      <point x="240" y="782"/>
      <point x="115" y="657"/>
      <point x="115" y="503" type="curve" smooth="yes"/>
      <point x="115" y="349"/>
      <point x="240" y="224"/>
      <point x="394" y="224" type="curve" smooth="yes"/>
      <point x="548" y="224"/>
      <point x="673" y="349"/>
      <point x="673" y="503" type="curve" smooth="yes"/>
      <point x="673" y="657"/>
      <point x="548" y="782"/>
      <point x="394" y="782" type="curve" smooth="yes"/>
    </contour>
    <contour>
      <point x="332" y="510" type="line" smooth="yes"/>
      <point x="407" y="510"/>
      <point x="413" y="501"/>
      <point x="420" y="464" type="curve" smooth="yes"/>
      <point x="433" y="392" type="line" smooth="yes"/>
      <point x="438" y="362"/>
      <point x="464" y="347"/>
      <point x="511" y="347" type="curve" smooth="yes"/>
      <point x="538" y="347"/>
      <point x="557" y="354"/>
      <point x="569" y="364" type="curve" smooth="yes"/>
      <point x="563" y="375" type="line" smooth="yes"/>
      <point x="559" y="372"/>
      <point x="556" y="371"/>
      <point x="552" y="371" type="curve" smooth="yes"/>
      <point x="545" y="371"/>
      <point x="541" y="375"/>
      <point x="539" y="388" type="curve" smooth="yes"/>
      <point x="522" y="459" type="line" smooth="yes"/>
      <point x="515" y="496"/>
      <point x="495" y="513"/>
      <point x="419" y="518" type="curve" smooth="yes"/>
      <point x="396" y="522"/>
      <point x="397" y="525"/>
      <point x="330" y="525" type="curve" smooth="yes"/>
    </contour>
    <contour>
      <point x="526" y="750"/>
      <point x="631" y="638"/>
      <point x="631" y="503" type="curve" smooth="yes"/>
      <point x="631" y="368"/>
      <point x="526" y="256"/>
      <point x="394" y="256" type="curve" smooth="yes"/>
      <point x="262" y="256"/>
      <point x="157" y="368"/>
      <point x="157" y="503" type="curve" smooth="yes"/>
      <point x="157" y="638"/>
      <point x="262" y="750"/>
      <point x="394" y="750" type="curve" smooth="yes"/>
    </contour>
    <contour>
      <point x="394" y="676"/>
      <point x="359" y="675"/>
      <point x="322" y="675" type="curve" smooth="yes"/>
      <point x="297" y="675"/>
      <point x="266" y="675"/>
      <point x="250" y="676" type="curve" smooth="yes"/>
      <point x="250" y="661" type="line" smooth="yes"/>
      <point x="269" y="659"/>
      <point x="273" y="655"/>
      <point x="273" y="623" type="curve" smooth="yes"/>
      <point x="273" y="404" type="line" smooth="yes"/>
      <point x="273" y="373"/>
      <point x="269" y="369"/>
      <point x="250" y="367" type="curve" smooth="yes"/>
      <point x="250" y="352" type="line" smooth="yes"/>
      <point x="266" y="352"/>
      <point x="297" y="353"/>
      <point x="326" y="353" type="curve" smooth="yes"/>
      <point x="352" y="353"/>
      <point x="378" y="352"/>
      <point x="397" y="352" type="curve" smooth="yes"/>
      <point x="397" y="367" type="line" smooth="yes"/>
      <point x="378" y="369"/>
      <point x="374" y="373"/>
      <point x="374" y="404" type="curve" smooth="yes"/>
      <point x="374" y="636" type="line" smooth="yes"/>
      <point x="374" y="655"/>
      <point x="378" y="661"/>
      <point x="392" y="661" type="curve" smooth="yes"/>
      <point x="420" y="661"/>
      <point x="435" y="637"/>
      <point x="435" y="594" type="curve" smooth="yes"/>
      <point x="435" y="550"/>
      <point x="414" y="526"/>
      <point x="378" y="526" type="curve" smooth="yes"/>
      <point x="325" y="526" type="line" smooth="yes"/>
      <point x="325" y="526"/>
      <point x="325" y="510"/>
      <point x="325" y="510" type="curve" smooth="yes"/>
      <point x="385" y="513" type="line" smooth="yes"/>
      <point x="507" y="519"/>
      <point x="534" y="567"/>
      <point x="534" y="597" type="curve" smooth="yes"/>
      <point x="534" y="647"/>
      <point x="501" y="676"/>
      <point x="408" y="676" type="curve" smooth="yes"/>
    </contour>
  </outline>
</glyph>
<glyph name="macron" format="1">
  <advance width="362"/>
  <unicode hex="00AF"/>
  <outline>
    <contour>
      <point x="101" y="712" type="line"/>
      <point x="95" y="687" type="line"/>
      <point x="447" y="687" type="line"/>
      <point x="453" y="712" type="line"/>
    </contour>
    <contour>
      <point x="236" y="514" type="move" name="_top"/>
    </contour>
  </outline>
</glyph>
<glyph name="degree" format="1">
  <advance width="332"/>
  <unicode hex="00B0"/>
  <outline>
    <contour>
      <point x="197" y="820"/>
      <point x="140" y="774"/>
      <point x="140" y="700" type="curve" smooth="yes"/>
      <point x="140" y="625"/>
      <point x="197" y="579"/>
      <point x="261" y="579" type="curve" smooth="yes"/>
      <point x="326" y="579"/>
      <point x="383" y="625"/>
      <point x="383" y="700" type="curve" smooth="yes"/>
      <point x="383" y="774"/>
      <point x="326" y="820"/>
      <point x="261" y="820" type="curve" smooth="yes"/>
    </contour>
    <contour>
      <point x="216" y="599"/>
      <point x="164" y="633"/>
      <point x="164" y="700" type="curve" smooth="yes"/>
      <point x="164" y="765"/>
      <point x="216" y="800"/>
      <point x="261" y="800" type="curve" smooth="yes"/>
      <point x="306" y="800"/>
      <point x="359" y="765"/>
      <point x="359" y="700" type="curve" smooth="yes"/>
      <point x="359" y="633"/>
      <point x="306" y="599"/>
      <point x="261" y="599" type="curve" smooth="yes"/>
    </contour>
  </outline>
</glyph>
<glyph name="twosuperior" format="1">
  <advance width="366"/>
  <unicode hex="00B2"/>
  <outline>
    <contour>
      <point x="224" y="754"/>
      <point x="165" y="717"/>
      <point x="130" y="679" type="curve"/>
      <point x="144" y="668" type="line"/>
      <point x="175" y="699"/>
      <point x="207" y="714"/>
      <point x="239" y="714" type="curve" smooth="yes"/>
      <point x="267" y="714"/>
      <point x="285" y="703"/>
      <point x="285" y="674" type="curve" smooth="yes"/>
      <point x="285" y="587"/>
      <point x="124" y="491"/>
      <point x="76" y="455" type="curve"/>
      <point x="72" y="437" type="line"/>
      <point x="105" y="450"/>
      <point x="119" y="452"/>
      <point x="150" y="451" type="curve" smooth="yes"/>
      <point x="211" y="448"/>
      <point x="260" y="433"/>
      <point x="305" y="433" type="curve" smooth="yes"/>
      <point x="370" y="433"/>
      <point x="399" y="464"/>
      <point x="399" y="503" type="curve" smooth="yes"/>
      <point x="399" y="524"/>
      <point x="391" y="545"/>
      <point x="379" y="563" type="curve"/>
      <point x="362" y="556" type="line"/>
      <point x="365" y="550"/>
      <point x="366" y="543"/>
      <point x="366" y="538" type="curve" smooth="yes"/>
      <point x="366" y="520"/>
      <point x="351" y="512"/>
      <point x="329" y="512" type="curve" smooth="yes"/>
      <point x="296" y="512"/>
      <point x="241" y="530"/>
      <point x="208" y="530" type="curve"/>
      <point x="275" y="575"/>
      <point x="404" y="628"/>
      <point x="404" y="698" type="curve" smooth="yes"/>
      <point x="404" y="737"/>
      <point x="363" y="754"/>
      <point x="307" y="754" type="curve" smooth="yes"/>
    </contour>
  </outline>
</glyph>
<glyph name="threesuperior" format="1">
  <advance width="348"/>
  <unicode hex="00B3"/>
  <outline>
    <contour>
      <point x="233" y="754"/>
      <point x="167" y="712"/>
      <point x="135" y="679" type="curve"/>
      <point x="149" y="667" type="line"/>
      <point x="188" y="702"/>
      <point x="220" y="715"/>
      <point x="252" y="715" type="curve" smooth="yes"/>
      <point x="275" y="715"/>
      <point x="292" y="704"/>
      <point x="292" y="677" type="curve" smooth="yes"/>
      <point x="292" y="644"/>
      <point x="262" y="612"/>
      <point x="219" y="592" type="curve"/>
      <point x="193" y="593"/>
      <point x="175" y="588"/>
      <point x="175" y="575" type="curve" smooth="yes"/>
      <point x="175" y="565"/>
      <point x="185" y="562"/>
      <point x="193" y="562" type="curve" smooth="yes"/>
      <point x="200" y="562"/>
      <point x="210" y="564"/>
      <point x="225" y="572" type="curve"/>
      <point x="243" y="568"/>
      <point x="260" y="556"/>
      <point x="260" y="520" type="curve" smooth="yes"/>
      <point x="260" y="428"/>
      <point x="139" y="375"/>
      <point x="34" y="366" type="curve"/>
      <point x="34" y="348" type="line"/>
      <point x="175" y="357"/>
      <point x="380" y="412"/>
      <point x="380" y="512" type="curve" smooth="yes"/>
      <point x="380" y="565"/>
      <point x="319" y="585"/>
      <point x="231" y="586" type="curve"/>
      <point x="303" y="599"/>
      <point x="410" y="643"/>
      <point x="410" y="700" type="curve" smooth="yes"/>
      <point x="410" y="737"/>
      <point x="368" y="754"/>
      <point x="310" y="754" type="curve" smooth="yes"/>
    </contour>
  </outline>
</glyph>
<glyph name="acute" format="1">
  <advance width="223"/>
  <unicode hex="00B4"/>
  <outline>
    <contour>
      <point x="137" y="599" type="line"/>
      <point x="238" y="669"/>
      <point x="307" y="694"/>
      <point x="349" y="736" type="curve" smooth="yes"/>
      <point x="382" y="769"/>
      <point x="395" y="807"/>
      <point x="365" y="837" type="curve" smooth="yes"/>
      <point x="331" y="871"/>
      <point x="282" y="855"/>
      <point x="255" y="828" type="curve" smooth="yes"/>
      <point x="209" y="782"/>
      <point x="194" y="716"/>
      <point x="127" y="609" type="curve"/>
    </contour>
    <contour>
      <point x="167" y="514" type="move" name="_top"/>
    </contour>
  </outline>
</glyph>
<glyph name="paragraph" format="1">
  <advance width="754"/>
  <unicode hex="00B6"/>
  <outline>
    <contour>
      <point x="261" y="327"/>
      <point x="147" y="344"/>
      <point x="148" y="351" type="curve" smooth="yes"/>
      <point x="149" y="356"/>
      <point x="273" y="376"/>
      <point x="422" y="376" type="curve"/>
      <point x="470" y="528"/>
      <point x="534" y="656"/>
      <point x="541" y="656" type="curve"/>
      <point x="539" y="652"/>
      <point x="378" y="48"/>
      <point x="378" y="48" type="curve" smooth="yes"/>
      <point x="373" y="48"/>
      <point x="376" y="170"/>
      <point x="409" y="327" type="curve"/>
    </contour>
    <contour>
      <point x="327" y="-124"/>
      <point x="304" y="-171"/>
      <point x="249" y="-171" type="curve" smooth="yes"/>
      <point x="242" y="-171"/>
      <point x="236" y="-171"/>
      <point x="226" y="-169" type="curve"/>
      <point x="269" y="-151"/>
      <point x="291" y="-123"/>
      <point x="291" y="-85" type="curve" smooth="yes"/>
      <point x="291" y="-36"/>
      <point x="246" y="-12"/>
      <point x="190" y="-12" type="curve" smooth="yes"/>
      <point x="122" y="-12"/>
      <point x="86" y="-49"/>
      <point x="86" y="-99" type="curve" smooth="yes"/>
      <point x="86" y="-166"/>
      <point x="160" y="-188"/>
      <point x="251" y="-188" type="curve" smooth="yes"/>
      <point x="460" y="-188"/>
      <point x="549" y="-83"/>
      <point x="588" y="65" type="curve" smooth="yes"/>
      <point x="733" y="621" type="line" smooth="yes"/>
      <point x="745" y="665"/>
      <point x="763" y="686"/>
      <point x="828" y="689" type="curve"/>
      <point x="833" y="708" type="line"/>
      <point x="795" y="706"/>
      <point x="751" y="706"/>
      <point x="713" y="706" type="curve" smooth="yes"/>
      <point x="651" y="706"/>
      <point x="588" y="709"/>
      <point x="513" y="709" type="curve" smooth="yes"/>
      <point x="249" y="709"/>
      <point x="42" y="494"/>
      <point x="42" y="229" type="curve" smooth="yes"/>
      <point x="42" y="85"/>
      <point x="129" y="-13"/>
      <point x="360" y="-13" type="curve"/>
    </contour>
  </outline>
</glyph>
<glyph name="onesuperior" format="1">
  <advance width="278"/>
  <unicode hex="00B9"/>
  <outline>
    <contour>
      <point x="330" y="753" type="line"/>
      <point x="281" y="720"/>
      <point x="225" y="682"/>
      <point x="109" y="653" type="curve"/>
      <point x="104" y="634" type="line"/>
      <point x="146" y="642"/>
      <point x="172" y="651"/>
      <point x="202" y="660" type="curve"/>
      <point x="129" y="437" type="line"/>
      <point x="248" y="437" type="line"/>
      <point x="349" y="753" type="line"/>
    </contour>
  </outline>
</glyph>
<glyph name="ordmasculine" format="1">
  <advance width="545"/>
  <unicode hex="00BA"/>
  <outline>
    <contour>
      <point x="399" y="704"/>
      <point x="409" y="686"/>
      <point x="409" y="646" type="curve" smooth="yes"/>
      <point x="409" y="526"/>
      <point x="347" y="379"/>
      <point x="294" y="379" type="curve" smooth="yes"/>
      <point x="276" y="379"/>
      <point x="266" y="397"/>
      <point x="266" y="437" type="curve" smooth="yes"/>
      <point x="266" y="556"/>
      <point x="328" y="704"/>
      <point x="381" y="704" type="curve" smooth="yes"/>
    </contour>
    <contour>
      <point x="104" y="404"/>
      <point x="177" y="361"/>
      <point x="289" y="361" type="curve" smooth="yes"/>
      <point x="476" y="361"/>
      <point x="571" y="501"/>
      <point x="571" y="587" type="curve" smooth="yes"/>
      <point x="571" y="679"/>
      <point x="498" y="722"/>
      <point x="386" y="722" type="curve" smooth="yes"/>
      <point x="199" y="722"/>
      <point x="104" y="581"/>
      <point x="104" y="495" type="curve" smooth="yes"/>
    </contour>
  </outline>
</glyph>
<glyph name="questiondown" format="1">
  <advance width="516"/>
  <unicode hex="00BF"/>
  <outline>
    <contour>
      <point x="183" y="-163"/>
      <point x="147" y="-142"/>
      <point x="147" y="-94" type="curve" smooth="yes"/>
      <point x="147" y="-41"/>
      <point x="191" y="-10"/>
      <point x="281" y="50" type="curve" smooth="yes"/>
      <point x="347" y="94"/>
      <point x="423" y="145"/>
      <point x="423" y="209" type="curve" smooth="yes"/>
      <point x="423" y="278"/>
      <point x="335" y="317"/>
      <point x="225" y="317" type="curve" smooth="yes"/>
      <point x="143" y="317"/>
      <point x="20" y="295"/>
      <point x="20" y="211" type="curve" smooth="yes"/>
      <point x="20" y="170"/>
      <point x="50" y="149"/>
      <point x="90" y="149" type="curve" smooth="yes"/>
      <point x="138" y="149"/>
      <point x="174" y="178"/>
      <point x="174" y="218" type="curve" smooth="yes"/>
      <point x="174" y="257"/>
      <point x="140" y="282"/>
      <point x="109" y="284" type="curve"/>
      <point x="121" y="289"/>
      <point x="145" y="294"/>
      <point x="166" y="294" type="curve" smooth="yes"/>
      <point x="217" y="294"/>
      <point x="230" y="266"/>
      <point x="230" y="237" type="curve" smooth="yes"/>
      <point x="230" y="183"/>
      <point x="187" y="151"/>
      <point x="104" y="95" type="curve" smooth="yes"/>
      <point x="5" y="29"/>
      <point x="-46" y="-7"/>
      <point x="-46" y="-67" type="curve" smooth="yes"/>
      <point x="-46" y="-143"/>
      <point x="38" y="-188"/>
      <point x="167" y="-188" type="curve" smooth="yes"/>
      <point x="260" y="-188"/>
      <point x="384" y="-165"/>
      <point x="384" y="-74" type="curve" smooth="yes"/>
      <point x="384" y="-22"/>
      <point x="343" y="2"/>
      <point x="301" y="2" type="curve" smooth="yes"/>
      <point x="252" y="2"/>
      <point x="210" y="-31"/>
      <point x="210" y="-76" type="curve" smooth="yes"/>
      <point x="210" y="-118"/>
      <point x="247" y="-149"/>
      <point x="292" y="-154" type="curve"/>
      <point x="273" y="-161"/>
      <point x="243" y="-163"/>
      <point x="229" y="-163" type="curve" smooth="yes"/>
    </contour>
    <component base="period" xOffset="216" yOffset="375"/>
  </outline>
</glyph>
<glyph name="AE" format="1">
  <advance width="910"/>
  <unicode hex="00C6"/>
  <outline>
    <contour>
      <point x="565" y="773" type="line"/>
      <point x="-4" y="84" type="line" smooth="yes"/>
      <point x="-41" y="42"/>
      <point x="-71" y="21"/>
      <point x="-90" y="20" type="curve"/>
      <point x="-90" y="0" type="line"/>
      <point x="-74" y="2"/>
      <point x="-47" y="3"/>
      <point x="-23" y="3" type="curve" smooth="yes"/>
      <point x="10" y="3"/>
      <point x="45" y="2"/>
      <point x="63" y="0" type="curve"/>
      <point x="63" y="20" type="line"/>
      <point x="-17" y="26"/>
      <point x="-9" y="50"/>
      <point x="30" y="94" type="curve" smooth="yes"/>
      <point x="591" y="773" type="line"/>
    </contour>
    <contour>
      <point x="729" y="346" type="line"/>
      <point x="733" y="366" type="line"/>
      <point x="241" y="366" type="line"/>
      <point x="222" y="346" type="line"/>
    </contour>
    <contour>
      <point x="658" y="346" type="line"/>
      <point x="733" y="341"/>
      <point x="705" y="280"/>
      <point x="705" y="234" type="curve"/>
      <point x="727" y="234" type="line"/>
      <point x="739" y="300"/>
      <point x="745" y="327"/>
      <point x="753" y="356" type="curve" smooth="yes"/>
      <point x="764" y="398"/>
      <point x="770" y="426"/>
      <point x="787" y="478" type="curve"/>
      <point x="765" y="478" type="line"/>
      <point x="743" y="420"/>
      <point x="722" y="366"/>
      <point x="662" y="366" type="curve"/>
    </contour>
    <contour>
      <point x="667" y="602" type="line" smooth="yes"/>
      <point x="686" y="675"/>
      <point x="701" y="685"/>
      <point x="767" y="685" type="curve" smooth="yes"/>
      <point x="810" y="685" type="line" smooth="yes"/>
      <point x="890" y="685"/>
      <point x="912" y="646"/>
      <point x="891" y="528" type="curve"/>
      <point x="913" y="528" type="line"/>
      <point x="915" y="543"/>
      <point x="919" y="566"/>
      <point x="926" y="590" type="curve" smooth="yes"/>
      <point x="933" y="613"/>
      <point x="947" y="661"/>
      <point x="964" y="708" type="curve"/>
      <point x="901" y="705"/>
      <point x="818" y="705"/>
      <point x="757" y="705" type="curve" smooth="yes"/>
      <point x="685" y="705"/>
      <point x="525" y="705"/>
      <point x="410" y="708" type="curve"/>
      <point x="405" y="688" type="line"/>
      <point x="472" y="685"/>
      <point x="483" y="675"/>
      <point x="464" y="602" type="curve" smooth="yes"/>
      <point x="332" y="106" type="line" smooth="yes"/>
      <point x="313" y="33"/>
      <point x="297" y="23"/>
      <point x="229" y="20" type="curve"/>
      <point x="225" y="0" type="line"/>
      <point x="341" y="3"/>
      <point x="501" y="3"/>
      <point x="573" y="3" type="curve" smooth="yes"/>
      <point x="640" y="3"/>
      <point x="731" y="3"/>
      <point x="799" y="0" type="curve"/>
      <point x="806" y="51"/>
      <point x="818" y="103"/>
      <point x="825" y="128" type="curve" smooth="yes"/>
      <point x="832" y="156"/>
      <point x="839" y="182"/>
      <point x="846" y="200" type="curve"/>
      <point x="824" y="200" type="line"/>
      <point x="779" y="68"/>
      <point x="741" y="23"/>
      <point x="645" y="23" type="curve" smooth="yes"/>
      <point x="592" y="23" type="line" smooth="yes"/>
      <point x="526" y="23"/>
      <point x="516" y="33"/>
      <point x="535" y="106" type="curve" smooth="yes"/>
    </contour>
    <contour>
      <point x="546" y="708" type="move" name="top"/>
    </contour>
  </outline>
</glyph>
<glyph name="Oslash" format="1">
  <advance width="809"/>
  <unicode hex="00D8"/>
  <outline>
    <contour>
      <point x="676" y="612" type="line"/>
      <point x="816" y="760" type="line"/>
      <point x="801" y="773" type="line"/>
      <point x="666" y="632" type="line"/>
    </contour>
    <contour>
      <point x="157" y="92" type="line"/>
      <point x="9" y="-59" type="line"/>
      <point x="26" y="-73" type="line"/>
      <point x="170" y="74" type="line"/>
    </contour>
    <contour>
      <point x="212" y="78" type="line"/>
      <point x="659" y="612" type="line"/>
      <point x="649" y="632" type="line"/>
      <point x="199" y="96" type="line"/>
    </contour>
    <component base="O"/>
    <contour>
      <point x="405" y="708" type="move" name="top"/>
    </contour>
  </outline>
</glyph>
<glyph name="Thorn" format="1">
  <advance width="698"/>
  <unicode hex="00DE"/>
  <outline>
    <contour>
      <point x="298" y="530" type="line"/>
      <point x="335" y="533"/>
      <point x="345" y="536"/>
      <point x="394" y="536" type="curve" smooth="yes"/>
      <point x="456" y="536"/>
      <point x="491" y="486"/>
      <point x="491" y="420" type="curve" smooth="yes"/>
      <point x="491" y="288"/>
      <point x="420" y="152"/>
      <point x="275" y="152" type="curve" smooth="yes"/>
      <point x="230" y="152" type="line"/>
      <point x="230" y="152"/>
      <point x="225" y="132"/>
      <point x="225" y="132" type="curve"/>
      <point x="265" y="132" type="line" smooth="yes"/>
      <point x="525" y="132"/>
      <point x="702" y="247"/>
      <point x="702" y="404" type="curve" smooth="yes"/>
      <point x="702" y="495"/>
      <point x="619" y="555"/>
      <point x="443" y="555" type="curve" smooth="yes"/>
      <point x="393" y="555"/>
      <point x="345" y="553"/>
      <point x="297" y="553" type="curve"/>
    </contour>
    <component base="I"/>
  </outline>
</glyph>
<glyph name="germandbls" format="1">
  <advance width="648"/>
  <unicode hex="00DF"/>
  <outline>
    <contour>
      <point x="454" y="767"/>
      <point x="487" y="744"/>
      <point x="487" y="678" type="curve" smooth="yes"/>
      <point x="487" y="622"/>
      <point x="476" y="552"/>
      <point x="427" y="501" type="curve" smooth="yes"/>
      <point x="374" y="446"/>
      <point x="338" y="423"/>
      <point x="338" y="363" type="curve" smooth="yes"/>
      <point x="338" y="320"/>
      <point x="359" y="262"/>
      <point x="371" y="221" type="curve" smooth="yes"/>
      <point x="384" y="177"/>
      <point x="395" y="145"/>
      <point x="395" y="99" type="curve" smooth="yes"/>
      <point x="395" y="45"/>
      <point x="371" y="6"/>
      <point x="341" y="6" type="curve" smooth="yes"/>
      <point x="334" y="6"/>
      <point x="330" y="7"/>
      <point x="327" y="8" type="curve"/>
      <point x="349" y="29"/>
      <point x="362" y="69"/>
      <point x="362" y="102" type="curve" smooth="yes"/>
      <point x="362" y="157"/>
      <point x="334" y="198"/>
      <point x="293" y="198" type="curve" smooth="yes"/>
      <point x="249" y="198"/>
      <point x="222" y="154"/>
      <point x="222" y="107" type="curve" smooth="yes"/>
      <point x="222" y="39"/>
      <point x="271" y="-14"/>
      <point x="368" y="-14" type="curve" smooth="yes"/>
      <point x="486" y="-14"/>
      <point x="599" y="36"/>
      <point x="599" y="150" type="curve" smooth="yes"/>
      <point x="599" y="212"/>
      <point x="557" y="242"/>
      <point x="499" y="291" type="curve" smooth="yes"/>
      <point x="450" y="332"/>
      <point x="389" y="374"/>
      <point x="389" y="422" type="curve" smooth="yes"/>
      <point x="389" y="434"/>
      <point x="390" y="448"/>
      <point x="449" y="494" type="curve" smooth="yes"/>
      <point x="563" y="583"/>
      <point x="660" y="609"/>
      <point x="660" y="684" type="curve" smooth="yes"/>
      <point x="660" y="732"/>
      <point x="601" y="782"/>
      <point x="441" y="782" type="curve" smooth="yes"/>
      <point x="253" y="782"/>
      <point x="168" y="698"/>
      <point x="120" y="515" type="curve" smooth="yes"/>
      <point x="-66" y="-188" type="line"/>
      <point x="-13" y="-179"/>
      <point x="46" y="-175"/>
      <point x="114" y="-174" type="curve"/>
      <point x="327" y="636" type="line" smooth="yes"/>
      <point x="349" y="719"/>
      <point x="376" y="767"/>
      <point x="420" y="767" type="curve" smooth="yes"/>
    </contour>
  </outline>
</glyph>
